<?xml version="1.0" encoding="utf-8"?>
<!-- Generator: Adobe Illustrator 21.0.2, SVG Export Plug-In . SVG Version: 6.00 Build 0)  -->
<svg version="1.1" id="Layer_1" xmlns="http://www.w3.org/2000/svg" xmlns:xlink="http://www.w3.org/1999/xlink" x="0px" y="0px"
	 viewBox="0 0 178.7 176.8" style="enable-background:new 0 0 178.7 176.8;" xml:space="preserve">
<style type="text/css">
	.st0{fill:none;}
	.st1{fill:#2C2B7D;}
	.st2{fill:#87D6F8;}
	.st3{fill:#44ADD2;}
</style>
<g>
	<g>
		<line class="st0" x1="94" y1="95.3" x2="94" y2="56.8"/>
		<path class="st1" d="M94,96.8c-0.8,0-1.5-0.7-1.5-1.5V56.8c0-0.8,0.7-1.5,1.5-1.5s1.5,0.7,1.5,1.5v38.5
			C95.5,96.1,94.8,96.8,94,96.8z"/>
	</g>
	<g>
		<path class="st1" d="M64.1,70.5l-6.4,21.6h-5.2l-7.8-30.7h5.5l5.1,20.8l6.4-20.8h4.9l6.3,20.4c0.8-3,1.4-5.6,2-7.8
			c0.5-2.1,1-4,1.4-5.5s0.7-2.9,1-4s0.5-2.2,0.8-3.2h5.5L75.8,92h-5.2L64.1,70.5z"/>
	</g>
	<g>
		<path class="st1" d="M123.9,70.5l-6.4,21.6h-5.2l-7.8-30.7h5.5l5.1,20.8l6.4-20.8h4.9l6.3,20.4c0.8-3,1.4-5.6,2-7.8
			c0.5-2.1,1-4,1.4-5.5s0.7-2.9,1-4s0.5-2.2,0.8-3.2h5.5L135.6,92h-5.2L123.9,70.5z"/>
	</g>
	<g>
		<path class="st1" d="M45.2,103.4h3.3c0.6,0,1.1,0.1,1.6,0.3c0.5,0.2,0.9,0.5,1.2,0.9s0.6,0.8,0.8,1.3s0.3,1,0.3,1.6
			s-0.1,1.1-0.3,1.6s-0.4,0.9-0.8,1.3c-0.3,0.4-0.7,0.7-1.2,0.9c-0.5,0.2-1,0.3-1.5,0.3h-3.3L45.2,103.4L45.2,103.4z M46.6,110.7
			h1.5c0.4,0,0.7-0.1,1.1-0.2s0.6-0.3,0.8-0.6s0.4-0.6,0.6-1c0.1-0.4,0.2-0.8,0.2-1.3s-0.1-1-0.2-1.4c-0.1-0.4-0.3-0.7-0.6-1
			c-0.2-0.3-0.5-0.5-0.8-0.6s-0.7-0.2-1.1-0.2h-1.5V110.7z"/>
		<path class="st1" d="M52.9,108.7c0-0.4,0.1-0.8,0.2-1.2c0.1-0.4,0.3-0.7,0.6-1c0.2-0.3,0.5-0.5,0.9-0.7s0.8-0.2,1.2-0.2
			c0.5,0,0.9,0.1,1.2,0.2c0.4,0.2,0.7,0.4,0.9,0.7c0.2,0.3,0.4,0.6,0.6,1c0.1,0.4,0.2,0.8,0.2,1.2c0,0.4-0.1,0.8-0.2,1.2
			c-0.1,0.4-0.3,0.7-0.6,1s-0.6,0.5-0.9,0.7c-0.4,0.2-0.8,0.2-1.2,0.2c-0.5,0-0.9-0.1-1.2-0.2c-0.4-0.2-0.7-0.4-0.9-0.7
			c-0.2-0.3-0.4-0.6-0.6-1C53,109.6,52.9,109.2,52.9,108.7z M54.3,108.7c0,0.3,0,0.6,0.1,0.8s0.2,0.5,0.3,0.7s0.3,0.3,0.5,0.4
			s0.4,0.2,0.6,0.2c0.2,0,0.4-0.1,0.6-0.2c0.2-0.1,0.3-0.3,0.5-0.4s0.2-0.4,0.3-0.7c0.1-0.3,0.1-0.5,0.1-0.8s0-0.6-0.1-0.8
			c-0.1-0.3-0.2-0.5-0.3-0.7s-0.3-0.3-0.5-0.5c-0.2-0.1-0.4-0.2-0.6-0.2c-0.2,0-0.4,0.1-0.6,0.2c-0.2,0.1-0.3,0.3-0.5,0.5
			c-0.1,0.2-0.2,0.4-0.3,0.7S54.3,108.4,54.3,108.7z"/>
		<path class="st1" d="M59.6,105.7H61v0.6c0.2-0.2,0.5-0.4,0.7-0.6c0.3-0.1,0.5-0.2,0.8-0.2s0.6,0.1,0.9,0.2
			c0.3,0.2,0.5,0.4,0.7,0.7c0.3-0.4,0.5-0.6,0.9-0.7c0.3-0.1,0.6-0.2,1-0.2c0.3,0,0.6,0,0.8,0.1c0.3,0.1,0.5,0.2,0.7,0.4
			c0.2,0.2,0.3,0.4,0.4,0.6s0.2,0.5,0.2,0.7v4.2h-1.4v-4c0-0.2,0-0.4-0.1-0.5s-0.1-0.3-0.2-0.3c-0.1-0.1-0.2-0.1-0.3-0.2
			c-0.1,0-0.2-0.1-0.3-0.1c-0.1,0-0.3,0-0.4,0.1s-0.3,0.2-0.4,0.3c-0.1,0.1-0.2,0.3-0.3,0.5c-0.1,0.2-0.1,0.4-0.1,0.6v3.6h-1.4v-4
			c0-0.2,0-0.4-0.1-0.5s-0.1-0.3-0.2-0.3c-0.1-0.1-0.2-0.1-0.3-0.2c-0.1,0-0.2-0.1-0.3-0.1c-0.2,0-0.4,0-0.5,0.1s-0.3,0.2-0.4,0.4
			c-0.1,0.1-0.2,0.3-0.3,0.5S61,108,61,108.1v3.6h-1.4V105.7z"/>
		<path class="st1" d="M70.4,103.4v1.2H69v-1.2H70.4z M70.4,105.7v6H69v-6H70.4z"/>
		<path class="st1" d="M71.2,105.7h1.4v0.6c0.3-0.3,0.6-0.4,0.8-0.6c0.3-0.1,0.6-0.2,0.9-0.2c0.6,0,1.1,0.2,1.5,0.5s0.5,0.8,0.5,1.3
			v4.2h-1.4v-4.1c0-0.4-0.1-0.6-0.2-0.7s-0.3-0.2-0.5-0.2s-0.4,0-0.6,0.1s-0.4,0.2-0.5,0.3s-0.3,0.3-0.3,0.5
			c-0.1,0.2-0.1,0.4-0.1,0.6v3.6h-1.4v-5.9H71.2z"/>
		<path class="st1" d="M78.6,103.4v1.2h-1.4v-1.2H78.6z M78.6,105.7v6h-1.4v-6H78.6z"/>
		<path class="st1" d="M83.3,107.7c-0.1-0.4-0.3-0.7-0.5-0.9s-0.4-0.3-0.7-0.3c-0.2,0-0.4,0.1-0.6,0.2s-0.3,0.3-0.4,0.4
			c-0.1,0.2-0.2,0.4-0.3,0.6s-0.1,0.5-0.1,0.8s0,0.6,0.1,0.8s0.2,0.5,0.3,0.7c0.1,0.2,0.3,0.4,0.4,0.5c0.2,0.1,0.4,0.2,0.6,0.2
			c0.3,0,0.6-0.1,0.8-0.4c0.2-0.3,0.3-0.6,0.4-1h1.5c-0.1,0.8-0.4,1.3-0.8,1.8c-0.5,0.4-1.1,0.6-1.9,0.6c-0.5,0-0.9-0.1-1.2-0.3
			c-0.3-0.2-0.6-0.4-0.9-0.7s-0.4-0.6-0.5-1s-0.2-0.8-0.2-1.2c0-0.4,0.1-0.8,0.2-1.2c0.1-0.4,0.3-0.7,0.6-1s0.5-0.5,0.9-0.6
			c0.3-0.2,0.7-0.2,1.2-0.2c0.4,0,0.7,0.1,1,0.2s0.6,0.3,0.8,0.4s0.4,0.4,0.5,0.7c0.1,0.3,0.2,0.5,0.3,0.8L83.3,107.7L83.3,107.7z"
			/>
		<path class="st1" d="M85.7,107.5c0-0.3,0.1-0.6,0.3-0.8c0.2-0.2,0.4-0.4,0.6-0.6s0.5-0.3,0.8-0.3c0.3-0.1,0.6-0.1,0.9-0.1
			s0.6,0,0.9,0.1s0.6,0.2,0.8,0.3c0.2,0.1,0.4,0.3,0.6,0.6c0.1,0.2,0.2,0.5,0.2,0.8v3c0,0.1,0,0.2,0,0.3c0,0.1,0.1,0.1,0.1,0.1
			s0,0,0.1,0s0.2-0.1,0.4-0.1v1c-0.2,0.1-0.3,0.1-0.5,0.1c-0.1,0-0.3,0-0.4,0c-0.3,0-0.5-0.1-0.7-0.2s-0.3-0.3-0.4-0.5
			c-0.3,0.3-0.6,0.5-0.9,0.6s-0.6,0.1-1,0.1c-0.3,0-0.5,0-0.8-0.1c-0.2-0.1-0.5-0.2-0.6-0.3c-0.2-0.1-0.3-0.3-0.4-0.5
			s-0.2-0.5-0.2-0.7c0-0.3,0.1-0.6,0.3-0.7c0.2-0.2,0.4-0.4,0.7-0.5s0.6-0.2,0.9-0.3c0.3-0.1,0.6-0.2,0.9-0.3
			c0.3-0.1,0.5-0.2,0.7-0.3c0.2-0.1,0.3-0.3,0.3-0.5c0-0.3-0.1-0.5-0.3-0.6c-0.2-0.1-0.5-0.2-0.8-0.2s-0.5,0.1-0.7,0.2
			s-0.3,0.4-0.4,0.7h-1.4V107.5z M89.3,108.8c-0.1,0.1-0.3,0.1-0.6,0.2c-0.3,0.1-0.5,0.1-0.8,0.2s-0.5,0.2-0.7,0.4
			c-0.2,0.1-0.3,0.3-0.3,0.5c0,0.3,0.1,0.5,0.2,0.6s0.3,0.2,0.5,0.2c0.3,0,0.6-0.1,0.9-0.3c0.3-0.2,0.5-0.5,0.8-0.9V108.8z"/>
		<path class="st1" d="M91.9,105.7h1.4v0.6c0.3-0.3,0.6-0.4,0.8-0.6c0.3-0.1,0.6-0.2,0.9-0.2c0.6,0,1.1,0.2,1.5,0.5s0.5,0.8,0.5,1.3
			v4.2h-1.4v-4.1c0-0.4-0.1-0.6-0.2-0.7s-0.3-0.2-0.5-0.2s-0.4,0-0.6,0.1s-0.4,0.2-0.5,0.3c-0.1,0.1-0.3,0.3-0.3,0.5
			c-0.1,0.2-0.1,0.4-0.1,0.6v3.6H92v-5.9H91.9z"/>
		<path class="st1" d="M107.3,105.8c0,0.4-0.1,0.7-0.3,1.1s-0.4,0.6-0.8,0.9c0.2,0.1,0.4,0.2,0.5,0.3c0.1,0.1,0.2,0.2,0.3,0.4
			c0.1,0.1,0.1,0.3,0.1,0.5s0,0.3,0,0.5v1.2c0,0.2,0,0.4,0.1,0.6s0.1,0.4,0.2,0.5H106c-0.1-0.2-0.2-0.4-0.2-0.6s0-0.3,0-0.5v-1.3
			c0-0.1,0-0.3-0.1-0.4s-0.1-0.3-0.2-0.4s-0.2-0.2-0.4-0.3c-0.2-0.1-0.3-0.1-0.6-0.1h-2.1v3.5H101v-8.3h3.6c0.4,0,0.8,0.1,1.2,0.2
			c0.3,0.1,0.6,0.3,0.9,0.6c0.2,0.2,0.4,0.5,0.5,0.8C107.3,105.2,107.3,105.5,107.3,105.8z M102.4,107.3h2.1c0.2,0,0.3,0,0.5-0.1
			s0.3-0.2,0.4-0.3c0.1-0.1,0.2-0.3,0.3-0.5c0.1-0.2,0.1-0.4,0.1-0.6c0-0.4-0.1-0.7-0.4-1c-0.2-0.3-0.5-0.4-0.9-0.4h-2.1V107.3z"/>
		<path class="st1" d="M109.3,109c0,0.2,0.1,0.5,0.1,0.7s0.2,0.4,0.3,0.6s0.3,0.3,0.5,0.4s0.4,0.1,0.6,0.1c0.6,0,1.1-0.4,1.4-1.2
			h1.3c-0.1,0.3-0.2,0.6-0.4,0.9s-0.4,0.5-0.6,0.7s-0.5,0.3-0.8,0.4s-0.6,0.1-0.9,0.1c-0.4,0-0.9-0.1-1.2-0.3
			c-0.4-0.2-0.7-0.4-0.9-0.7c-0.3-0.3-0.4-0.6-0.6-1s-0.2-0.8-0.2-1.2c0-0.4,0.1-0.8,0.2-1.1c0.1-0.4,0.3-0.7,0.6-1
			c0.3-0.3,0.6-0.5,0.9-0.7c0.4-0.2,0.8-0.2,1.2-0.2c0.4,0,0.8,0.1,1.2,0.2c0.3,0.1,0.6,0.3,0.9,0.6c0.2,0.3,0.4,0.6,0.6,0.9
			s0.2,0.7,0.2,1.2v0.5L109.3,109L109.3,109z M112.2,108.1c0-0.4-0.2-0.8-0.4-1.1c-0.2-0.3-0.6-0.4-1-0.4c-0.2,0-0.4,0-0.5,0.1
			c-0.2,0.1-0.3,0.2-0.4,0.3s-0.2,0.3-0.3,0.5c-0.1,0.2-0.1,0.4-0.1,0.6H112.2z"/>
		<path class="st1" d="M114.5,105.7h1.4v0.6c0.2-0.3,0.5-0.4,0.7-0.6c0.3-0.1,0.5-0.2,0.8-0.2c0.4,0,0.8,0.1,1.2,0.2
			c0.3,0.2,0.6,0.4,0.8,0.7c0.2,0.3,0.4,0.6,0.5,1s0.2,0.8,0.2,1.2s-0.1,0.8-0.2,1.2c-0.1,0.4-0.3,0.7-0.5,1s-0.5,0.5-0.9,0.7
			s-0.7,0.2-1.2,0.2c-0.2,0-0.5,0-0.7-0.2c-0.3-0.1-0.5-0.3-0.7-0.6v3h-1.4C114.5,113.9,114.5,105.7,114.5,105.7z M115.9,108.8
			c0,0.3,0,0.5,0.1,0.8c0.1,0.2,0.2,0.5,0.3,0.6c0.1,0.2,0.3,0.3,0.4,0.4c0.2,0.1,0.4,0.2,0.6,0.2s0.4-0.1,0.6-0.2s0.3-0.3,0.4-0.5
			s0.2-0.4,0.3-0.7c0.1-0.3,0.1-0.5,0.1-0.8s0-0.6-0.1-0.8c-0.1-0.3-0.2-0.5-0.3-0.7c-0.1-0.2-0.3-0.3-0.4-0.5
			c-0.2-0.1-0.4-0.2-0.6-0.2s-0.4,0.1-0.6,0.2s-0.3,0.3-0.4,0.5s-0.2,0.4-0.3,0.7C115.9,108.1,115.9,108.4,115.9,108.8L115.9,108.8z
			"/>
		<path class="st1" d="M126,111.6h-1.4V111c-0.3,0.2-0.6,0.4-0.8,0.5c-0.3,0.1-0.6,0.2-0.9,0.2c-0.6,0-1.1-0.2-1.5-0.5
			s-0.5-0.8-0.5-1.3v-4.2h1.4v4.1c0,0.4,0.1,0.6,0.2,0.8s0.3,0.2,0.6,0.2c0.2,0,0.4,0,0.6-0.1s0.4-0.2,0.5-0.3
			c0.1-0.1,0.3-0.3,0.3-0.5s0.1-0.4,0.1-0.6v-3.6h1.4C126,105.7,126,111.6,126,111.6z"/>
		<path class="st1" d="M126.9,103.4h1.4v2.8c0.2-0.2,0.4-0.3,0.6-0.5c0.2-0.1,0.5-0.2,0.7-0.2c0.4,0,0.8,0.1,1.2,0.2
			c0.3,0.2,0.6,0.4,0.8,0.7c0.2,0.3,0.4,0.6,0.5,1s0.2,0.8,0.2,1.2s-0.1,0.8-0.2,1.2c-0.1,0.4-0.3,0.7-0.5,1s-0.5,0.5-0.8,0.7
			s-0.7,0.2-1.2,0.2c-0.2,0-0.5-0.1-0.7-0.2s-0.4-0.3-0.6-0.5v0.5h-1.4V103.4z M128.3,108.7c0,0.3,0,0.6,0.1,0.8s0.1,0.5,0.2,0.7
			c0.1,0.2,0.2,0.3,0.4,0.5c0.2,0.1,0.3,0.2,0.5,0.2s0.4-0.1,0.5-0.2c0.2-0.1,0.3-0.3,0.4-0.5c0.1-0.2,0.2-0.4,0.3-0.7
			c0.1-0.3,0.1-0.5,0.1-0.8s0-0.6-0.1-0.8c-0.1-0.3-0.1-0.5-0.3-0.7c-0.1-0.2-0.2-0.3-0.4-0.5c-0.2-0.1-0.3-0.2-0.5-0.2
			s-0.4,0.1-0.5,0.2c-0.2,0.1-0.3,0.3-0.4,0.4c-0.1,0.2-0.2,0.4-0.2,0.6S128.3,108.4,128.3,108.7L128.3,108.7z"/>
		<path class="st1" d="M134.6,103.4v8.3h-1.4v-8.3H134.6z"/>
		<path class="st1" d="M136.8,103.4v1.2h-1.4v-1.2H136.8z M136.8,105.7v6h-1.4v-6H136.8z"/>
		<path class="st1" d="M141.5,107.7c-0.1-0.4-0.3-0.7-0.5-0.9s-0.4-0.3-0.7-0.3c-0.2,0-0.4,0.1-0.6,0.2c-0.2,0.1-0.3,0.3-0.4,0.4
			c-0.1,0.2-0.2,0.4-0.3,0.6s-0.1,0.5-0.1,0.8s0,0.6,0.1,0.8c0.1,0.3,0.2,0.5,0.3,0.7s0.3,0.4,0.4,0.5s0.4,0.2,0.6,0.2
			c0.3,0,0.6-0.1,0.8-0.4s0.3-0.6,0.4-1h1.5c-0.1,0.8-0.4,1.3-0.8,1.8c-0.5,0.4-1.1,0.6-1.9,0.6c-0.5,0-0.9-0.1-1.2-0.3
			c-0.3-0.2-0.6-0.4-0.9-0.7c-0.2-0.3-0.4-0.6-0.5-1s-0.2-0.8-0.2-1.2c0-0.4,0.1-0.8,0.2-1.2c0.1-0.4,0.3-0.7,0.6-1s0.5-0.5,0.9-0.6
			c0.3-0.2,0.7-0.2,1.2-0.2c0.4,0,0.7,0.1,1,0.2s0.6,0.3,0.8,0.4s0.4,0.4,0.5,0.7s0.2,0.5,0.3,0.8L141.5,107.7L141.5,107.7z"/>
	</g>
	<path class="st2" d="M127.1,142.5c-20.7,14.8-49.1,21.4-80.4,6.5c-13.9-6.6-14.4-20-14-23.5c0.7-4.2,2.2-9.2,5.3-14.4
		c2.2-4.4,1.8-7.9-2.4-8.7c-3.4-0.7-5.1,3.5-5.7,4.6c-1.1,2.5-2,4.8-2.6,8c0.8-7.1,2.8-16.3,7.8-26.4c3.1-7.1,2.6-12.5-2.9-12.9
		c-4.5-0.3-8.2,9.4-8.9,11.2c-0.4,0.8-3.4,11.6-3.6,19.1c-3.4-30.7,11.7-45.8,25.6-64.7c5.8-8.4,1.9-17.2-5.8-17.2
		c-6.3,0-13.2,6.4-22.1,19.5C7.4,60.5,7.1,76.2,7.4,85c0,0-0.1,0.1-0.1,0.3c0,3.5,0.6,11.9,1.2,15.5s2.2,10.1,6.1,19.3
		S28,139.8,28,139.8c20,22.2,53.8,26,71.4,23.4c29.8-4.3,51.4-24.9,58.8-44.7c12.7-34,8.2-80.7-26.4-101C101-0.6,58.7,6.5,41.5,19.8
		c0,0,19.4-14.1,57.7-6.6c44.2,8.6,57.3,36.5,58.6,61.8C159,98.9,151.7,124.9,127.1,142.5z"/>
	<path class="st3" d="M41.5,19.8l2.1-1.9c0.7-0.6,1.5-1.2,2.3-1.8c1.6-1.1,3.2-2.2,4.9-3.1c3.4-1.9,6.9-3.4,10.7-4.6
		c3.7-1.2,7.5-2,11.4-2.6c1.9-0.3,3.8-0.5,5.8-0.7C79.4,5,80.4,5,81.4,5s2-0.1,2.9-0.1c15.6-0.1,31.2,3.8,45,11.4
		c3.4,1.9,6.8,4,9.9,6.5c1.6,1.2,3.1,2.5,4.6,3.8s2.9,2.7,4.3,4.1c5.5,5.7,10.1,12.4,13.6,19.6s6,14.9,7.3,22.8
		c1.4,7.9,1.7,16,0.6,24c-1.9,16-8.6,31.5-19.1,43.7c-5.3,6.1-11.5,11.3-18.4,15.5c-6.9,4.1-14.4,7.2-22.1,9s-15.7,2.3-23.5,1.7
		c-7.8-0.5-15.4-2.1-22.8-4.5c-7.3-2.4-14.4-5.7-20.8-9.9s-12.3-9.3-17-15.3c5.2,5.5,11.3,10.1,17.9,13.8c3.3,1.8,6.7,3.5,10.1,4.9
		c3.5,1.4,7,2.6,10.6,3.6c7.2,1.9,14.6,3,22.1,3.1c7.4,0.2,14.7-0.9,21.7-3.2c6.9-2.2,13.4-5.6,19.2-9.9c5.8-4.3,10.9-9.3,15.3-15
		c8.8-11.2,14.8-24.6,17-38.7c2-14.1,1.1-29.1-4.1-42.9c-2.6-6.9-6.4-13.4-11.3-19c-2.4-2.9-5.1-5.4-8-7.8s-6-4.5-9.2-6.4
		c-12.9-7.5-28-11.2-42.9-11.3c-7.5,0.1-15.1,0.4-22.4,2.1c-3.6,0.9-7.2,2.1-10.6,3.7c-1.7,0.8-3.4,1.7-5,2.7l-2.4,1.4l-1.2,0.8
		L41.5,19.8z"/>
</g>
</svg>
