<?xml version="1.0" encoding="utf-8"?>
<!-- Generator: Adobe Illustrator 21.0.2, SVG Export Plug-In . SVG Version: 6.00 Build 0)  -->
<svg version="1.1" id="Layer_1" xmlns="http://www.w3.org/2000/svg" xmlns:xlink="http://www.w3.org/1999/xlink" x="0px" y="0px"
	 viewBox="0 0 570 570" style="enable-background:new 0 0 570 570;" xml:space="preserve">
<style type="text/css">
	.st0{fill:#ED2517;}
</style>
<g>
	<path class="st0" d="M128.2,227c-5.9,0-12.3,0-18.2,0c0,24.7-0.1,40.7-0.1,65.5c-7.8-24.1-15.6-40.1-23.5-65.5
		c-6.7,0-10.8,0-17.5,0c0,38.6,0,77.3,0,115.9c5.9-0.8,12.2-1.6,18.1-2.4c0-24.2,0-39.1,0.1-63.4c8.1,23.9,13.1,37.9,21.2,60.6
		c6.3-0.7,13.3-1.6,19.7-2.3C128.1,299.4,128.2,263.2,128.2,227"/>
	<path class="st0" d="M196.2,227c-16.9,0-33.5,0-50.4,0c-0.1,35.7-0.1,71.3-0.2,107c16.9-1.5,33.7-2.8,50.6-3.8c0-5.2,0-12.7,0-17.9
		c-11,0.7-21.5,1.4-32.4,2.1c0-9.6,0-17.5,0.1-27.1c8-0.1,16.4,0,24.6-0.2c0-5.2,0-12.8,0-18c-8.1,0.1-16.6,0.2-24.6,0.3
		c0-9.6,0-14.8,0.1-24.4c5-0.1,9.9-0.1,14.8-0.1c0.9,0,1.7,0,2.6,0c0.9,0,1.7,0,2.6,0c4.1,0,8.2,0,12.4,0
		C196.3,239.7,196.2,232.2,196.2,227"/>
	<path class="st0" d="M264.1,227.1c-18.5,0-37.6,0-56.1,0c0,5.2,0,12.6,0,17.8c0.8,0,1.6,0,2.4,0c2.4,0,4.9,0,7.3,0
		c2.4,0,4.9,0,7.3,0c0.6,0,1.2,0,1.9,0c0,28.7-0.1,55-0.1,83.7c5.9-0.2,12.3-0.4,18.2-0.6c0-28.6,0.1-54.7,0.1-83.3
		c6.3,0,12.7,0,19-0.1C264.1,239.8,264.1,232.2,264.1,227.1"/>
	<path class="st0" d="M326.5,227c-16.9,0-33.7,0-50.6,0c0,33.6,0,67.1,0,100.7c2,0,3.9,0,5.9,0c4,0,8.1,0,12.1,0
		c0-14.2,0-27.2,0-41.5c1,0,2,0,3,0c2.4,0,4.7,0,7.1,0c2.4,0,4.8,0,7.2,0c2.5,0,4.9,0,7.3,0c0-5.1,0-12.7,0-17.8c-2.3,0-4.6,0-6.9,0
		c-2.5,0-5,0-7.5,0c-2.5,0-5,0-7.4,0c-0.9,0-1.9,0-2.8,0c0-9.2,0-14.3,0-23.5c2,0,4,0,5.9,0c2,0,4,0,6,0c2,0,4,0,6,0
		c4.9,0,9.8,0,14.7,0C326.5,239.9,326.5,232.2,326.5,227"/>
	<path class="st0" d="M338.3,227.1c0,33.9-0.1,67.8-0.1,101.6c16.2,0.6,33.2,1.3,49.3,2.4c0-5.2,0-12.7,0-17.9
		c-10.2-0.6-20.9-1.3-31.1-1.7c0-29,0.1-55.3,0.1-84.4C350.5,227.1,344.2,227.1,338.3,227.1"/>
	<path class="st0" d="M402.4,227.1c0.1,35,0.1,70.1,0.2,105.1c5.9,0.5,12.1,0.9,18,1.5c0-35.5,0.1-71.1,0-106.6
		C414.7,227.1,408.4,227.1,402.4,227.1"/>
	<path class="st0" d="M436.2,227.1c7.3,17.7,13.9,35.5,21.3,54.3c-7.7,18.1-15.5,36-23.2,53.4c6.4,0.6,12.9,1.5,19.3,2.3
		c4.6-11.2,8.7-19.8,13.3-31.2c4.5,12.2,8.7,21.7,13.2,34.3c6.3,0.8,14.5,2,20.9,2.9c-7.7-20.5-16.1-41.9-23.8-61.2
		c7.7-18.2,15.5-35.6,23.5-54.6c-6.6,0-13.3,0-19.9,0c-4.9,11.8-8.3,19.3-13,30.5c-4.4-11.6-7.3-19.2-11.8-30.5
		C449.5,227.1,442.8,227.1,436.2,227.1"/>
</g>
</svg>
