<?xml version="1.0" encoding="UTF-8"?>
<svg width="761px" height="459px" viewBox="0 0 761 459" version="1.1" xmlns="http://www.w3.org/2000/svg" xmlns:xlink="http://www.w3.org/1999/xlink">
    <!-- Generator: Sketch 64 (93537) - https://sketch.com -->
    <title>undraw_message_sent_1030</title>
    <desc>Created with Sketch.</desc>
    <g id="Page-1" stroke="none" stroke-width="1" fill="none" fill-rule="evenodd">
        <g id="undraw_message_sent_1030" transform="translate(-70.000000, -108.000000)">
            <path d="M587.601773,370.045455 L594.119273,368.918587 C594.744503,368.80902 595.36521,368.675588 595.989773,368.562277 C574.742455,355.37345 565.465871,329.225363 573.650753,305.594845 C581.835634,281.964326 605.298226,267.156078 630.151222,269.934975 L621.60864,290.262382 L641.847862,272.590132 C641.895074,272.601835 641.941276,272.617289 641.986027,272.636347 C655.371001,277.350503 666.334962,287.188915 672.465802,299.987102 C678.596643,312.785288 679.392119,327.49481 674.677222,340.879522 C674.338642,341.843272 673.935585,342.763485 673.54881,343.694955 C679.262535,340.82409 684.743655,337.48209 689.213482,333.20289 C698.262682,324.531517 703.220812,312.565455 708.761482,297.822982 C719.738527,268.608577 730.306972,238.9713 740.453692,209.269417 C717.334964,196.759118 706.735197,169.302839 715.449945,144.502912 C715.99362,142.9584 716.623432,141.471127 717.291,140.01045 C717.457867,139.6449 717.62625,139.281675 717.800542,138.921352 C718.47897,137.520967 719.19519,136.148902 719.981182,134.832105 C720.109657,134.616232 720.253597,134.414227 720.38481,134.200695 C721.06891,133.09044 721.790515,132.013045 722.549625,130.96851 C722.832217,130.576343 723.113872,130.185262 723.406125,129.80241 C724.266225,128.677717 725.15694,127.583332 726.096195,126.538545 C726.410055,126.188962 726.743047,125.862337 727.06527,125.521785 C727.786865,124.760405 728.52824,124.022007 729.289395,123.306592 C729.69072,122.929957 730.087755,122.550592 730.49961,122.187307 C730.605315,122.094105 730.703932,121.992382 730.810312,121.899945 C730.815637,121.906762 730.819777,121.914075 730.824892,121.92081 C750.27194,104.973747 779.046052,104.327348 799.234515,120.384015 L788.118472,146.836575 L808.127572,129.374483 C822.499931,147.685486 823.301129,173.213241 810.105322,192.389483 C810.123765,192.395985 810.142822,192.40101 810.161265,192.407483 C809.942797,192.728573 809.694682,193.022438 809.46996,193.337798 C809.04804,193.929678 808.616085,194.51103 808.174095,195.081855 C807.605595,195.813855 807.015232,196.521315 806.41257,197.219115 C805.9575,197.745825 805.508992,198.276907 805.03533,198.783562 C804.342517,199.524735 803.616637,200.226517 802.885972,200.924393 C802.45932,201.331455 802.051507,201.759142 801.612765,202.151258 C800.462605,203.178682 799.272707,204.153545 798.043072,205.075845 C797.611755,205.398877 797.156647,205.683833 796.716405,205.9932 C795.853057,206.600498 794.985232,207.19887 794.088975,207.753105 C793.532797,208.09686 792.961867,208.411095 792.393975,208.734158 C791.57208,209.202337 790.74435,209.655908 789.899295,210.07962 C789.300165,210.379965 788.69667,210.665063 788.0868,210.942915 C787.21914,211.338352 786.34056,211.705087 785.45274,212.054107 C784.856962,212.288107 784.264155,212.525107 783.660082,212.73789 C782.663572,213.08889 781.652422,213.393818 780.635265,213.685725 C780.121867,213.833287 779.616765,214.002105 779.09859,214.134225 C777.572745,214.523385 776.02992,214.854668 774.468975,215.108475 C774.17544,215.156408 773.87661,215.174475 773.581957,215.217307 C772.288095,215.405595 770.987407,215.55753 769.676362,215.65035 C769.112805,215.69004 768.545865,215.695755 767.9799,215.717797 C766.920217,215.759047 765.859455,215.780047 764.792902,215.757232 C764.170867,215.744032 763.54917,215.711857 762.925507,215.676675 C761.887007,215.61792 760.847552,215.52748 759.807142,215.405355 C759.191962,215.334105 758.578552,215.263395 757.962975,215.170192 C756.84813,215.001052 755.73501,214.7799 754.621357,214.537687 C754.54836,214.521817 754.47504,214.512187 754.401915,214.496017 C750.119235,227.026747 745.757262,239.530715 741.315997,252.00792 C752.26381,242.163312 766.786595,237.26872 781.45997,238.478259 C796.133344,239.687798 809.658617,246.894415 818.84661,258.398835 L800.348482,278.856172 L825.394065,268.858035 C831.477584,281.615021 832.247538,296.265396 827.53473,309.589785 C825.901817,314.27189 823.613612,318.698959 820.738365,322.738942 C808.076057,340.649395 785.761692,349.012948 764.446622,343.837415 C743.131552,338.661882 727.137283,320.996571 724.098382,299.273692 C723.627832,300.53085 723.173197,301.80378 722.701432,303.059692 C717.81195,316.065652 711.729135,332.251507 699.51312,343.953712 C691.232587,351.885495 681.044587,356.917695 671.270025,361.172175 C664.90506,363.94224 658.45538,366.50324 651.920985,368.855175 C644.656577,373.259783 636.44959,375.875342 627.97617,376.486365 C617.66583,379.350457 607.225455,381.741352 596.687325,383.58732 L590.116455,384.720015 C584.211292,385.731607 578.156205,386.773117 572.146702,387.973102 C573.011992,388.229827 573.8784,388.474755 574.739167,388.777702 C596.710872,396.510832 611.158397,417.566241 610.468687,440.848882 L569.274765,453.492952 L606.550342,459.412372 C599.619166,476.446376 584.429196,488.72988 566.321967,491.943404 C548.214738,495.156928 529.725581,488.850522 517.356187,475.241827 C517.734542,476.509537 518.11444,477.775262 518.49588,479.039002 C519.25254,481.550385 520.003192,484.047562 520.72425,486.521002 C530.532877,520.2246 526.311585,546.736695 508.835842,561.170235 L499.353082,549.69141 C516.361582,535.641112 511.084665,506.689687 506.428335,490.679835 C505.72056,488.251035 504.981517,485.797792 504.238147,483.331027 C497.849647,462.107685 490.607505,438.05118 499.987245,415.94523 C514.123402,382.626975 554.86515,375.650768 587.601773,370.045455 Z" id="Path" fill="#F2F2F2" fill-rule="nonzero"></path>
            <path d="M575.528303,565.49367 L286.902983,565.49367 C267.193409,565.49367 251.215643,549.515904 251.215643,529.80633 L251.215643,397.572518 C251.215643,393.691717 252.810876,389.981536 255.627383,387.311722 L408.570248,242.334615 C421.268072,230.298142 441.16322,230.298142 453.861045,242.334615 L599.683973,380.562585 C607.045938,387.541121 611.215658,397.239033 611.215658,407.382923 L611.215658,529.80633 C611.215658,539.271204 607.45575,548.34842 600.763072,555.041095 C594.070395,561.73377 584.993176,565.49367 575.528302,565.49367 L575.528303,565.49367 Z" id="Path" fill="#3F3D56" fill-rule="nonzero"></path>
            <path d="M251.215642,399.74367 L608.215642,399.74367 L608.215642,543.94446 C608.215642,555.84576 598.567733,565.49367 586.666432,565.49367 L272.764852,565.49367 C260.863552,565.49367 251.215642,555.84576 251.215642,543.94446 L251.215642,399.74367 Z" id="Path" fill="#000000" fill-rule="nonzero" opacity="0.1"></path>
            <g id="Group" transform="translate(0.543472, 0.105518)"></g>
            <rect id="Rectangle" fill="#6C63FF" fill-rule="nonzero" x="298.090642" y="286.11867" width="265.5" height="265.5" rx="26.1811"></rect>
            <polygon id="Path" fill="#000000" fill-rule="nonzero" opacity="0.1" points="563.5905 405.7065 563.5905 551.619 298.0905 551.619 298.0905 405.7065 430.8405 469.869"></polygon>
            <path d="M430.840642,478.11867 L260.745292,395.90592 C258.606612,394.872227 256.086641,395.011041 254.07444,396.27339 C252.062239,397.535738 250.840642,399.744183 250.840642,402.119572 L250.840642,543.569453 C250.840642,549.28466 253.110996,554.765787 257.152257,558.80705 C261.193518,562.848312 266.674645,565.11867 272.389852,565.11867 L589.291432,565.11867 C595.00664,565.11867 600.487767,562.848312 604.529028,558.80705 C608.570289,554.765787 610.840642,549.28466 610.840642,543.569452 L610.840642,404.542702 C610.840642,401.644093 609.349978,398.949199 606.894557,397.408797 C604.439136,395.868394 601.364099,395.699005 598.75434,396.96039 L430.840642,478.11867 Z" id="Path" fill="#3F3D56" fill-rule="nonzero"></path>
            <rect id="Rectangle" fill="#F2F2F2" fill-rule="nonzero" x="320.965643" y="310.49367" width="74.25" height="10.5"></rect>
            <rect id="Rectangle" fill="#F2F2F2" fill-rule="nonzero" x="314.965642" y="348.74367" width="220.5" height="6"></rect>
            <rect id="Rectangle" fill="#F2F2F2" fill-rule="nonzero" x="314.965642" y="368.99367" width="220.5" height="6"></rect>
            <rect id="Rectangle" fill="#F2F2F2" fill-rule="nonzero" x="314.965642" y="389.24367" width="220.5" height="6"></rect>
            <line x1="116.215642" y1="565.11867" x2="734.215642" y2="565.11867" id="Path" stroke="#3F3D56"></line>
            <path d="M70.5,472.764818 C70.5,516.98502 98.241435,552.767445 132.524512,552.767445" id="Path" fill="#46455B" fill-rule="nonzero"></path>
            <path d="M132.524512,552.767445 C132.524512,508.05039 163.482337,471.865912 201.740265,471.865912" id="Path" fill="#6C63FF" fill-rule="nonzero"></path>
            <path d="M92.9726475,476.773455 C92.9726475,518.777955 110.662837,552.767445 132.524512,552.767445" id="Path" fill="#6C63FF" fill-rule="nonzero"></path>
            <path d="M132.524512,552.767445 C132.524512,495.628987 168.306938,449.393265 212.527132,449.393265" id="Path" fill="#46455B" fill-rule="nonzero"></path>
            <path d="M119.476155,553.331475 C119.476155,553.331475 128.272252,553.06056 130.923172,551.172877 C133.574092,549.285195 144.45378,547.03119 145.11141,550.058625 C145.76904,553.08606 158.33031,565.115707 148.39956,565.195808 C138.46881,565.275908 125.324917,563.64894 122.679097,562.037265 C120.033277,560.42559 119.476155,553.331475 119.476155,553.331475 Z" id="Path" fill="#A8A8A8" fill-rule="nonzero"></path>
            <path d="M148.576785,564.141945 C138.646035,564.222075 125.50215,562.595093 122.856322,560.98341 C120.841387,559.756035 120.03846,555.351915 119.769802,553.320023 C119.58375,553.328025 119.476155,553.331468 119.476155,553.331468 C119.476155,553.331468 120.033277,560.425583 122.679105,562.037258 C125.324932,563.648933 138.468855,565.275922 148.39956,565.195792 C151.26618,565.172677 152.256352,564.152775 152.201985,562.642215 C151.80375,563.55486 150.710445,564.124747 148.576785,564.141945 Z" id="Path" fill="#000000" fill-rule="nonzero" opacity="0.2"></path>
            <path d="M610.284818,230.827928 C609.834068,234.843833 606.770978,238.078793 605.636033,241.95726 C603.927773,247.794885 606.88161,254.059178 610.92219,258.605572 C617.507383,265.937304 626.753683,270.327566 636.59742,270.7965 C638.029098,270.922355 639.471548,270.765146 640.842503,270.33384 C642.066541,269.841301 643.168644,269.088122 644.072213,268.12665 C647.11515,265.071247 648.748598,260.83776 649.399568,256.574985 C650.050538,252.31221 649.797555,247.969372 649.543005,243.664702 C649.544253,242.774866 649.382588,241.892319 649.066005,241.060702 C648.651053,240.268506 648.081079,239.567813 647.389958,239.000265 C645.199179,236.990561 642.786078,235.237593 640.197548,233.775427 C639.027523,233.251135 637.995676,232.461564 637.183763,231.469275 C636.694577,230.619207 636.377987,229.680944 636.252143,228.708277 L635.457555,224.659117 C635.315813,223.492247 634.917298,222.371274 634.29066,221.376787 C632.88696,219.483217 630.201885,219.225525 627.846585,219.133132 L619.217723,218.794643 C616.533653,218.68935 612.997058,217.919663 610.376813,218.446785 C607.93002,218.939018 608.742773,221.19375 609.18723,223.246785 C609.831755,225.725582 610.19986,228.268117 610.284818,230.827928 L610.284818,230.827928 Z" id="Path" fill="#A0616A" fill-rule="nonzero"></path>
            <path d="M605.636033,241.95726 C603.927773,247.794885 606.88161,254.059178 610.92219,258.605572 C617.507383,265.937304 626.753683,270.327566 636.59742,270.7965 C638.029098,270.922355 639.471548,270.765146 640.842503,270.33384 C642.066541,269.841301 643.168644,269.088122 644.072213,268.12665 C647.11515,265.071247 648.748598,260.83776 649.399568,256.574985 C650.050538,252.31221 649.797555,247.969372 649.543005,243.664702 C649.544253,242.774866 649.382588,241.892319 649.066005,241.060702 C648.651053,240.268506 648.081079,239.567813 647.389958,239.000265 C645.199179,236.990561 642.786078,235.237593 640.197548,233.775427 C639.027523,233.251135 637.995676,232.461564 637.183763,231.469275 C636.694577,230.619207 636.377987,229.680944 636.252143,228.708277 L635.457555,224.659117 C635.315813,223.492247 634.917298,222.371274 634.29066,221.376787 C632.88696,219.483217 630.201885,219.225525 627.846585,219.133132 L619.217723,218.794643 C616.533653,218.68935 612.997058,217.919663 610.376813,218.446785 C607.93002,218.939018 608.742773,221.19375 609.18723,223.246785 C609.831755,225.725582 610.19986,228.268117 610.284818,230.827928" id="Path" fill="#FFB8B8" fill-rule="nonzero" opacity="0.750646391"></path>
            <path d="M665.175885,411.586035 C663.953385,424.99019 662.730898,438.392273 661.508423,451.792282 C660.551423,462.337793 659.575898,472.926533 657.698963,483.33618 C657.050648,486.92337 656.291213,490.492065 655.389788,494.02986 C652.883078,503.852963 649.246538,513.453803 648.073403,523.523918 C648.03636,523.814085 648.005498,524.110418 647.974635,524.406825 C647.84329,526.633594 647.421941,528.833705 646.721258,530.951437 C646.134705,532.488802 645.233258,533.89035 644.59734,535.409212 C643.33164,538.4469 643.164922,541.805655 643.010573,545.09646 C638.558259,542.592614 633.684366,540.926834 628.63092,540.181837 C626.192115,539.817547 623.475503,539.558242 621.814642,537.736837 C619.974712,535.724047 620.178472,532.643137 620.487143,529.938847 C621.456497,521.541982 622.423788,513.149232 623.389013,504.760597 C623.704017,501.151531 624.31735,497.574749 625.222725,494.066917 C625.55616,492.899985 625.957455,491.7516 626.364975,490.603215 C626.926807,489.022627 627.49482,487.442032 627.920843,485.818215 C628.534758,483.194549 628.963891,480.531053 629.205083,477.847335 C630.19911,469.40106 631.396905,460.973295 632.446523,452.5332 L632.502105,452.088675 C634.076513,439.29576 635.274308,426.44112 634.928558,413.55561 C634.879148,411.647812 634.798882,409.73997 634.675395,407.825992 C634.502535,405.05379 634.249395,403.584337 636.546187,401.849392 C639.083768,399.935392 642.423937,398.595585 645.325852,397.342215 C646.887938,396.663067 664.089188,390.5568 664.49052,391.896622 C665.297455,394.754454 665.721003,397.706852 665.75004,400.67628 C665.762308,404.320728 665.570623,407.963007 665.175885,411.586035 Z" id="Path" fill="#605D82" fill-rule="nonzero"></path>
            <path d="M657.698962,483.33618 C657.050647,486.92337 656.291213,490.492065 655.389788,494.02986 C652.883078,503.852963 649.246538,513.453803 648.073403,523.523918 C648.03636,523.814085 648.005498,524.110418 647.974635,524.406825 C640.306275,513.453825 633.848107,501.673493 626.365013,490.6032 C626.926845,489.022612 627.494857,487.442017 627.92088,485.8182 C628.534796,483.194534 628.963929,480.531038 629.20512,477.84732 C630.199148,469.401045 631.396943,460.97328 632.44656,452.533185 L632.502143,452.08866 C632.941338,453.88047 633.568395,455.620931 634.372898,457.281127 C639.398693,467.493247 651.339533,472.654852 657.180315,482.428545 C657.359355,482.731115 657.532237,483.03366 657.698962,483.33618 Z" id="Path" fill="#000000" fill-rule="nonzero" opacity="0.1"></path>
            <path d="M595.475295,393.539017 C595.72857,401.729633 597.039705,409.846343 598.348125,417.935767 L601.047712,434.626035 C602.525213,443.760668 604.063463,453.081457 608.386252,461.263035 C611.619945,467.38326 616.278892,472.605847 620.49363,478.09674 C630.855165,491.595577 638.639198,506.886922 648.464205,520.781137 C651.319988,524.8197 655.40202,529.187235 660.275865,528.343965 C663.474615,527.79051 665.797913,525.127312 668.31231,523.073955 C671.2767,520.653112 674.849482,518.881717 677.181907,515.84727 C679.514333,512.812822 679.971322,507.768937 676.81134,505.609635 C675.667934,504.97625 674.454003,504.479539 673.194563,504.129735 C668.295938,502.266735 665.12526,497.483055 663.107813,492.645982 C661.090365,487.80891 659.868045,482.607795 657.179738,478.108867 C651.339555,468.335212 639.397005,463.173832 634.369988,452.958097 C631.554428,447.236407 631.286085,440.641657 631.070873,434.268367 L630.522248,418.0218 C630.462248,416.245147 630.415313,414.397372 631.13754,412.77303 C633.060428,408.448342 638.866253,408.045532 643.56729,407.497267 C648.902821,406.871952 654.071526,405.241211 658.799858,402.69135 C661.50753,401.229202 664.152833,399.36525 665.60136,396.650272 C666.922905,394.173292 667.105283,391.268032 667.260255,388.46484 L668.887988,359.021482 C669.028028,356.48835 669.155737,353.869162 668.262938,351.494482 C666.021135,345.531622 658.491533,343.58313 652.127535,343.867627 C640.285035,344.397037 629.352563,349.4913 618.18657,352.931505 C615.420873,353.803874 612.612957,354.536265 609.773513,355.125892 C607.267523,355.62879 604.234665,355.420125 601.844603,356.225887 C597.594143,357.65886 597.702068,366.954172 597.099353,370.80999 C595.854539,378.319601 595.310846,385.92871 595.475295,393.539017 L595.475295,393.539017 Z" id="Path" fill="#605D82" fill-rule="nonzero"></path>
            <path d="M658.66788,529.578442 C659.712157,530.631585 660.053505,532.174455 660.32553,533.63241 C661.833949,541.71962 662.618553,549.925182 662.67003,558.151702 C662.600241,558.919267 662.753473,559.690662 663.11133,560.373278 C663.405411,560.780411 663.803899,561.100651 664.264777,561.300233 C667.282957,562.738733 670.786147,560.733983 673.30113,558.530903 C677.96334,554.446838 681.90834,548.96505 682.17315,542.772653 C682.124614,541.177672 682.180484,539.581225 682.3404,537.99354 C682.7499,535.662255 684.111247,533.631015 685.310767,531.590505 C687.352134,528.117002 688.998649,524.426102 690.219615,520.586617 C690.678142,519.144128 690.983115,517.327823 689.852797,516.321127 C689.452033,516.007102 688.996426,515.77025 688.509157,515.622623 L674.875223,510.56034 C673.693755,510.121665 670.753852,517.673565 670.28724,518.499165 C669.14583,520.518675 668.0109,521.66514 665.721,522.131295 C663.38355,522.607125 660.601035,521.924355 658.420005,523.090545 C654.73056,525.06324 656.57889,527.4717 658.66788,529.578442 Z" id="Path" fill="#535070" fill-rule="nonzero"></path>
            <path d="M637.63044,534.238785 C637.376861,533.734668 637.023848,533.287106 636.592673,532.923068 C635.961492,532.522745 635.243839,532.278936 634.499423,532.211925 C631.903838,531.77121 628.827382,531.48102 627.035925,533.41026 C625.356375,535.218998 625.645117,538.165538 624.240952,540.19551 C623.796435,540.83814 623.194147,541.36776 622.808745,542.047485 C622.330386,543.086537 622.114625,544.227199 622.180433,545.369183 C622.108008,548.51562 622.0356,551.667398 622.25295,554.807183 C622.435088,557.438183 622.878578,560.195183 624.52386,562.256385 C627.164648,565.56471 631.9275,566.040428 636.155108,566.255153 L639.579045,566.429055 C640.522029,566.543666 641.47861,566.455967 642.385035,566.171805 C643.518617,565.647823 644.391732,564.687172 644.805353,563.508833 C646.58763,559.078973 643.765103,554.30628 642.026483,549.859103 C640.028145,544.747455 640.386975,539.071642 637.63044,534.238785 Z" id="Path" fill="#535070" fill-rule="nonzero"></path>
            <path d="M609.292815,208.199977 C609.250867,207.750895 609.316866,207.298291 609.48531,206.879887 C609.986805,205.993147 611.296305,206.234482 612.284123,206.483528 C616.256693,207.48507 620.44251,206.578477 624.532695,206.812455 C628.62288,207.046433 633.230183,209.09121 634.05258,213.104685 C637.021401,210.999986 639.580595,208.370454 641.604045,205.345673 C642.739208,203.646923 643.72866,201.70113 643.574123,199.663853 C643.35123,196.725353 640.8858,194.527778 638.60298,192.664193 L631.79805,187.108943 C630.904995,186.288119 629.873394,185.632251 628.751205,185.171827 C627.179797,184.634827 625.46616,184.890682 623.805532,184.891748 C618.852,184.89492 613.570575,182.64057 609.165007,184.905195 C607.324702,185.851178 605.93955,187.472265 604.604257,189.052935 L598.530757,196.24236 C598.073575,196.700554 597.739618,197.266869 597.559912,197.888692 C597.387112,198.76626 597.837787,199.63233 597.995055,200.512808 C598.281937,202.118925 597.590175,203.833058 598.122007,205.37547 C599.00493,207.936067 602.113942,208.298535 604.014652,209.766495 C604.723057,210.313612 605.833305,212.1678 606.67734,212.145157 C608.200223,212.104305 609.253223,209.383148 609.292815,208.199977 Z" id="Path" fill="#3F3D56" fill-rule="nonzero"></path>
            <circle id="Oval" fill="#FFB8B8" fill-rule="nonzero" cx="619.598093" cy="209.94357" r="19.4486625"></circle>
            <path d="M624.153315,252.507322 C622.799182,248.628624 619.087829,246.074591 614.981325,246.195458 C614.40887,246.302015 613.817429,246.227233 613.289512,245.981543 C612.990958,245.75215 612.752387,245.453877 612.594195,245.112218 C611.411597,242.98559 610.460892,240.738066 609.758445,238.408335 C609.448177,237.378915 609.023887,236.16531 607.982572,235.897673 C607.104015,235.782698 606.233611,236.161317 605.718742,236.882423 C605.224181,237.594744 604.683683,238.274048 604.100692,238.91601 C601.654642,241.1031 597.318667,239.10969 594.72246,241.11624 C594.298387,241.44399 593.948407,241.863847 593.503005,242.16198 C593.057208,242.430332 592.576738,242.636326 592.075005,242.774212 C587.061573,244.410913 582.146857,246.335809 577.355407,248.539282 C579.082335,258.93939 580.851907,269.520817 584.899875,279.255225 C586.826242,283.88772 589.009297,288.424725 590.551875,293.198737 C593.96979,303.776482 594.12132,315.094162 594.159682,326.210332 C594.185932,333.818377 594.148117,341.58885 591.686647,348.787755 C591.024476,350.378674 590.55773,352.044042 590.296635,353.74737 C590.147977,355.462807 590.647312,357.35424 592.037235,358.370572 C592.84309,358.897615 593.764754,359.221336 594.723187,359.313975 C598.988257,359.939797 603.288037,358.804725 607.487625,357.832132 C618.74379,355.225342 630.223725,353.73369 641.681625,352.24596 L660.881512,349.75296 C662.257751,349.659483 663.604684,349.31137 664.853872,348.726307 C668.367232,346.80267 668.700772,341.517817 666.518962,338.15868 C665.472982,336.548272 663.9972,335.227125 663.118342,333.519757 C662.239485,331.81239 662.164642,329.424847 663.677617,328.2423 C666.75522,325.836832 665.837212,321.37389 665.983995,317.470507 C666.39441,306.556147 666.338885,295.637525 665.81742,284.71464 C665.663276,282.453562 665.627089,280.185986 665.709007,277.92114 C666.050211,274.083339 666.759306,270.28719 667.82652,266.585002 L673.660567,243.614002 C672.136515,241.205647 669.218392,239.677665 666.454042,238.98393 C663.689692,238.290195 660.810547,238.086022 658.088182,237.24243 C652.510972,235.514227 647.545695,231.12843 641.721187,231.53718 C641.280608,231.545095 640.847305,231.650899 640.45266,231.84693 C639.13902,232.591117 639.347055,234.4842 639.263085,235.991647 C639.07731,239.3268 636.624292,242.114227 633.915352,244.068555 C631.206412,246.022882 628.112602,247.447927 625.62456,249.676717 C624.731674,250.349512 624.190885,251.389966 624.153315,252.507322 L624.153315,252.507322 Z" id="Path" fill="#3F3D56" fill-rule="nonzero"></path>
            <path d="M547.091243,274.296 C545.801531,275.132829 544.431033,275.83801 543.000383,276.400928 C541.59946,276.81767 540.275849,277.460017 539.081633,278.302695 C538.531242,278.778741 538.06984,279.348818 537.71895,279.986332 C536.377996,282.364151 536.437438,285.283333 537.874077,287.604593 C539.310715,289.925852 541.896838,291.28126 544.623143,291.141832 C546.402084,290.942505 548.131111,290.426985 549.728745,289.619565 L563.446222,283.675342 C565.76796,282.669263 568.275923,281.490202 569.373292,279.210195 C569.501147,278.997523 569.548532,278.746065 569.506853,278.501445 C569.396241,278.242768 569.196247,278.032527 568.943415,277.90914 C565.84934,275.899725 563.143463,273.348211 560.955975,270.377363 C560.393183,269.613255 559.704563,267.809048 558.909038,267.350925 C556.005472,265.678807 549.415268,272.787773 547.091243,274.296 Z" id="Path" fill="#FFB8B8" fill-rule="nonzero"></path>
            <path d="M693.73683,269.418367 L698.794178,275.19555 C699.8799,276.435802 700.966785,277.677495 701.95647,278.995657 C704.386786,282.34499 706.336442,286.017941 707.74872,289.907662 C708.848033,292.792312 709.760445,295.864965 709.376303,298.927995 C709.121261,300.498262 708.697161,302.036346 708.111398,303.515422 C707.184478,306.360076 706.035441,309.127488 704.674898,311.7921 C703.530547,313.816553 702.237989,315.75357 700.807808,317.58729 C696.892179,322.776947 692.607682,327.677705 687.9876,332.251492 C686.258625,333.963037 685.53354,336.730492 684.780908,339.044017 C683.392658,343.3113 680.08941,346.63491 676.89507,349.78659 C675.868554,350.870568 674.734024,351.846883 673.509135,352.70034 C671.674031,353.882237 669.529475,354.492995 667.34703,354.455272 C666.391641,354.461939 665.44568,354.26612 664.571453,353.880712 C662.385495,352.842675 661.27449,350.314905 661.046768,347.90574 C660.843279,345.719475 661.209659,343.517783 662.1102,341.515237 C665.01228,335.086522 672.4647,332.300737 677.7324,327.610117 C680.82129,324.85962 683.1834,321.404707 685.513073,317.98722 C687.095463,315.853479 688.416535,313.537853 689.448053,311.089837 C690.624473,307.950862 690.166553,304.234837 691.194338,301.044052 C691.628768,299.69532 692.40114,298.477507 692.86827,297.13974 C693.3354,295.801972 693.453008,294.21393 692.635845,293.056312 C692.019387,292.320587 691.233676,291.745363 690.346095,291.379972 C686.98098,289.67202 683.212095,287.473972 682.568048,283.75557 C682.31133,281.693503 682.850146,279.611111 684.074798,277.932345 C685.295021,276.275978 686.720963,274.781537 688.318298,273.484995 C689.790038,272.183603 692.265038,270.719767 693.73683,269.418367 Z" id="Path" fill="#FFB8B8" fill-rule="nonzero"></path>
            <path d="M543.844462,282.360405 C542.95146,280.556513 541.835033,278.716095 540.033075,277.819155 C538.267575,277.052591 536.264839,277.044186 534.492968,277.795905 C532.745649,278.549243 531.10979,279.538443 529.631033,280.735905 L525.27186,283.94928 C524.283505,284.597603 523.409059,285.40477 522.68385,286.338173 C521.995979,287.470386 521.537952,288.727048 521.335943,290.036348 C520.57615,293.02227 520.344206,296.118032 520.650585,299.183835 C521.342362,304.099605 524.306085,308.391173 527.56821,312.133103 C529.606605,314.471325 532.123275,316.83096 535.223662,316.930695 C536.561977,316.973745 538.050367,316.446233 538.60698,315.228398 C538.799726,314.745561 538.90215,314.231429 538.909155,313.71159 C539.244067,308.228535 537.282645,302.872875 534.995377,297.878438 C534.266107,296.570665 533.835167,295.117759 533.733442,293.623853 C533.717043,293.372445 533.782418,293.122479 533.919802,292.911293 C534.117078,292.705964 534.380758,292.577221 534.66399,292.54794 C537.794535,291.928718 543.186757,294.36069 545.382892,290.8842 C546.806602,288.630473 544.856198,284.404155 543.844462,282.360405 Z" id="Path" fill="#FFB8B8" fill-rule="nonzero"></path>
            <path d="M608.27286,202.080218 C608.23091,201.631136 608.296906,201.178531 608.465348,200.760128 C608.966843,199.873388 610.27635,200.114722 611.264168,200.363768 C615.23673,201.36531 619.422548,200.458718 623.512733,200.692695 C627.602917,200.926673 632.21022,202.97145 633.032625,206.984925 C636.001446,204.880226 638.56064,202.250694 640.58409,199.225913 C641.719245,197.527163 642.708698,195.58137 642.55416,193.544093 C642.331268,190.60563 639.865837,188.408025 637.583025,186.544433 L630.778087,180.989183 C629.885035,180.168359 628.853433,179.512492 627.731242,179.052075 C626.159835,178.515075 624.446198,178.770923 622.78557,178.771987 C617.832037,178.775168 612.550612,176.520817 608.145053,178.785435 C606.304747,179.731418 604.919595,181.352505 603.584303,182.933183 L597.510803,190.122608 C597.053621,190.5808 596.719664,191.147112 596.539958,191.768933 C596.367158,192.6465 596.817833,193.51257 596.975108,194.393055 C597.26199,195.999173 596.57022,197.713305 597.102053,199.25571 C597.984983,201.816308 601.093988,202.178775 602.994705,203.646743 C603.703102,204.193853 604.81335,206.048048 605.657385,206.025398 C607.180223,205.984545 608.23326,203.263388 608.27286,202.080218 Z" id="Path" fill="#3F3D56" fill-rule="nonzero"></path>
            <path d="M566.965478,255.378578 C566.180259,255.885012 565.491029,256.526628 564.929775,257.273648 C564.216712,258.351758 564.071775,259.712805 563.459272,260.851043 C562.14855,263.286713 559.082835,264.153225 557.170342,266.151435 C556.86651,266.426182 556.655377,266.788407 556.566045,267.188183 C556.556823,267.730486 556.738691,268.258748 557.079795,268.680443 L566.30232,283.179113 C569.372977,283.44948 572.31882,281.52567 575.390782,281.781045 C576.537787,281.8764 577.711492,282.272573 578.811412,281.933625 C579.598877,281.584461 580.336917,281.133092 581.00649,280.591163 C582.83922,279.43233 585.28017,279.297308 586.817782,277.76841 C588.293422,276.301125 588.481702,274.005443 588.464107,271.924538 C588.488763,270.117454 588.304796,268.313561 587.915857,266.548658 C586.558072,260.983508 582.301807,256.712798 579.63354,251.783108 C578.33454,249.383108 577.627687,247.97814 574.878217,249.62604 C572.114483,251.28246 569.56647,253.476517 566.965478,255.378578 Z" id="Path" fill="#3F3D56" fill-rule="nonzero"></path>
            <path d="M678.971558,248.046623 C680.704743,249.172092 682.267251,250.54072 683.6112,252.110565 C685.016175,253.92216 685.811917,256.139257 687.161535,257.992462 C688.469708,259.788757 690.250448,261.179962 691.734285,262.834058 C693.984615,265.34259 695.508855,268.40298 697.005652,271.422308 C693.349723,276.190374 689.363369,280.695735 685.076025,284.905125 C684.598819,285.467461 683.970048,285.880796 683.264588,286.095908 C682.289919,286.199396 681.328282,285.807351 680.703788,285.051908 C680.039588,284.35506 679.568828,283.495972 678.933848,282.772395 C677.435168,281.226375 675.437872,280.260388 673.295445,280.045395 C671.172048,279.840153 669.035323,279.810728 666.90708,279.95742 C666.439813,280.009472 665.967293,279.930062 665.54271,279.72813 C665.227024,279.510279 664.97106,279.216683 664.798275,278.874248 C662.301308,274.625325 663.10446,269.290688 663.985403,264.441758 L666.006848,253.31523 C666.299721,251.190228 666.865172,249.111818 667.689233,247.13133 C668.45478,245.495033 670.166978,242.720265 672.272153,243.21012 C674.394338,243.703897 677.18616,246.76242 678.971558,248.046623 Z" id="Path" fill="#3F3D56" fill-rule="nonzero"></path>
            <ellipse id="Oval" fill="#FFFFFF" fill-rule="nonzero" cx="308.965643" cy="290.299598" rx="30.75" ry="30.8059275"></ellipse>
            <path d="M308.965643,254.24367 C288.669178,254.24367 272.215642,270.697205 272.215642,290.99367 C272.215642,311.290135 288.669178,327.74367 308.965642,327.74367 C329.262107,327.74367 345.715642,311.290135 345.715642,290.99367 C345.656305,270.721835 329.237478,254.303008 308.965643,254.24367 Z M301.421295,310.587795 L282.58692,291.753398 L287.869725,286.470593 L301.438972,300.039825 L330.079223,271.399575 L335.362035,276.682388 L301.421288,310.587795 L301.421295,310.587795 Z" id="Shape" fill="#57B894" fill-rule="nonzero"></path>
        </g>
    </g>
</svg>