<?xml version="1.0" encoding="UTF-8"?>
<svg width="534px" height="504px" viewBox="0 0 534 504" version="1.1" xmlns="http://www.w3.org/2000/svg" xmlns:xlink="http://www.w3.org/1999/xlink">
    <!-- Generator: Sketch 64 (93537) - https://sketch.com -->
    <title>Slice 1</title>
    <desc>Created with Sketch.</desc>
    <g id="Page-1" stroke="none" stroke-width="1" fill="none" fill-rule="evenodd">
        <g id="feeling-proud" fill-rule="nonzero">
            <polygon id="Path" fill="#E6E6E6" points="387.2445 285.7635 387.2445 424.50975 410.4525 462.33225 412.21875 465.20925 503.7915 465.20925 505.64175 285.7635"></polygon>
            <polygon id="Path" fill="#000000" opacity="0.1" points="387.2445 285.7635 387.2445 424.50975 410.4525 462.33225 411.87675 285.7635"></polygon>
            <polygon id="Path" fill="#E6E6E6" points="166.1745 282.063 166.1745 420.81 142.9665 458.6325 141.20025 461.50875 49.6275 461.50875 47.77725 282.063"></polygon>
            <polygon id="Path" fill="#000000" opacity="0.1" points="166.1745 282.063 166.1745 420.81 142.9665 458.6325 141.54225 282.063"></polygon>
            <polygon id="Path" fill="#E6E6E6" points="533.391 279.28875 533.391 287.613 35.7525 287.613 35.7525 275.58825 82.00125 251.53875 492.69225 251.53875"></polygon>
            <polygon id="Path" fill="#000000" opacity="0.1" points="533.391 279.28875 533.391 287.613 35.7525 287.613 35.7525 275.58825"></polygon>
            <polygon id="Path" fill="#3F3D56" points="106.97625 320.91225 84.77625 320.91225 75.5265 314.4375 117.15075 314.4375"></polygon>
            <polygon id="Path" fill="#3F3D56" points="106.97625 347.73675 84.77625 347.73675 75.5265 341.262 117.15075 341.262"></polygon>
            <polygon id="Path" fill="#3F3D56" points="106.97625 385.66125 84.77625 385.66125 75.5265 379.18575 117.15075 379.18575"></polygon>
            <polygon id="Path" fill="#3F3D56" points="106.97625 423.585 84.77625 423.585 75.5265 417.11025 117.15075 417.11025"></polygon>
            <polygon id="Path" fill="#3F3D56" points="446.44275 324.612 468.64275 324.612 477.8925 318.13725 436.26825 318.13725"></polygon>
            <polygon id="Path" fill="#3F3D56" points="446.44275 351.4365 468.64275 351.4365 477.8925 344.96175 436.26825 344.96175"></polygon>
            <polygon id="Path" fill="#3F3D56" points="446.44275 389.361 468.64275 389.361 477.8925 382.88625 436.26825 382.88625"></polygon>
            <polygon id="Path" fill="#3F3D56" points="446.44275 427.28475 468.64275 427.28475 477.8925 420.81 436.26825 420.81"></polygon>
            <path d="M461.56038,91.0922024 L274.671307,91.0922024 C272.796707,91.0922024 270.998817,91.8365432 269.673274,93.1620861 C268.347731,94.4876291 267.60339,96.2855192 267.60339,98.16012 L267.60339,224.053417 C267.60339,225.928017 268.347734,227.725905 269.673276,229.051447 C270.998819,230.376988 272.796708,231.121564 274.671307,231.121327 L345.615982,231.121327 L342.958065,248.091 C342.958065,248.091 327.768457,256.160453 338.448682,256.397805 C349.128907,256.635157 399.444412,256.397805 399.444412,256.397805 C399.444412,256.397805 409.175272,256.397805 393.74832,247.853647 L391.248105,231.121328 L461.56038,231.121328 C463.434981,231.12157 465.232872,230.376996 466.558415,229.051453 C467.883958,227.72591 468.62829,225.928018 468.62829,224.053418 L468.62829,98.16012 C468.62829,96.285518 467.883961,94.4876245 466.558418,93.16208 C465.232875,91.8365355 463.434982,91.0922024 461.56038,91.0922024 Z" id="Path" fill="#3F3D56"></path>
            <rect id="Rectangle" fill="#F2F2F2" x="274.36752" y="98.5683375" width="187.496677" height="104.903205"></rect>
            <circle id="Oval" fill="#F2F2F2" cx="368.115855" cy="95.2456125" r="1.1866875"></circle>
            <circle id="Oval" fill="#F2F2F2" cx="368.115855" cy="221.509193" r="4.5094125"></circle>
            <polygon id="Path" fill="#3F3D56" points="361.089 269.214 361.089 271.58775 233.4015 271.58775 233.4015 269.68875 233.577 269.214 236.724 260.67 358.47825 260.67"></polygon>
            <path d="M410.227148,266.8905 C409.994565,267.884925 409.116397,268.934003 407.132272,269.926058 C400.012147,273.48612 385.534523,268.976707 385.534523,268.976707 C385.534523,268.976707 374.37966,267.078 374.37966,262.093912 C374.692868,261.879436 375.019478,261.68522 375.357488,261.512452 C378.350985,259.92873 388.276462,256.020787 405.87537,261.677917 C407.1719,262.084896 408.329989,262.843827 409.220633,263.870167 C410.02107,264.657286 410.3954,265.780569 410.227148,266.8905 Z" id="Path" fill="#3F3D56"></path>
            <path d="M410.227148,266.8905 C401.512148,270.229852 393.744068,270.47904 385.771898,264.941962 C382.75719,262.713193 379.106641,261.511047 375.357525,261.512452 C378.351022,259.92873 388.2765,256.020787 405.875408,261.677917 C407.171937,262.084896 408.330027,262.843827 409.22067,263.870167 C410.021094,264.657293 410.39541,265.780575 410.227148,266.8905 Z" id="Path" fill="#000000" opacity="0.1"></path>
            <ellipse id="Oval" fill="#F2F2F2" cx="399.300128" cy="263.99262" rx="3.0853875" ry="1"></ellipse>
            <polygon id="Path" fill="#000000" opacity="0.1" points="361.089 269.214 361.089 271.58775 233.4015 271.58775 233.4015 269.68875 233.577 269.214"></polygon>
            <path d="M70.996095,0.7501125 C69.7002044,0.643714522 68.4025723,0.933593633 67.27515,1.5813375 C66.16815,2.3394375 65.4704325,3.6675525 64.75824,4.90344 C62.0352261,9.68515352 58.3488171,13.8492386 53.93253,17.13192 C50.715825,19.48842 46.6262625,22.426665 47.1766125,26.7714375 C47.4669424,28.2062669 47.9970105,29.5819064 48.7445475,30.8405625 C51.7119975,36.8308125 59.809725,41.4600075 59.0132175,48.29538 C61.9614675,43.35969 58.0179675,40.91913 60.9662175,35.983485 C62.370255,33.632985 64.8093075,30.979725 66.9291225,32.4558375 C67.6389,32.9500875 68.10495,33.83655 68.8439775,34.270215 C70.6073925,35.305005 72.48342,33.326715 74.04438,31.9254675 C79.4270175,27.093495 87.08163,28.3593675 93.7797825,29.864895 C96.9419625,30.5756475 100.415258,31.508145 102.284565,34.53042 C104.742315,38.5040775 99.949485,42.795675 98.7385125,47.2882875 C98.5378412,48.0653093 98.7307627,48.8913436 99.2548503,49.4990969 C99.7789379,50.1068502 100.567628,50.4191321 101.36571,50.3348925 C103.375523,50.1366375 105.75636,49.9741425 105.875295,49.0921875 C108.40395,49.1821875 111.502313,48.89583 112.585755,46.2628125 C112.91689,45.2210407 113.091919,44.1359727 113.105145,43.04292 C113.502795,38.620035 115.37997,34.5850275 116.623538,30.3754725 C117.867105,26.1659175 118.407833,21.2325975 116.30922,17.5003725 C115.560246,16.2585971 114.633977,15.1328308 113.55972,14.158695 C101.650463,2.6336325 85.992405,0.733005 70.996095,0.7501125 Z" id="Path" fill="#2F2E41"></path>
            <path d="M61.603275,56.9289 C61.603275,56.9289 64.193325,78.5127 54.6964575,80.23941 C45.19959,81.96612 63.3299775,111.320085 63.3299775,111.320085 L106.497585,116.5002 L96.137355,81.9661125 C96.137355,81.9661125 89.2305375,79.376055 93.547305,62.109015 C97.8640725,44.841975 61.603275,56.9289 61.603275,56.9289 Z" id="Path" fill="#FFB8B8"></path>
            <polygon id="Path" fill="#FFB8B8" points="35.271 427.7385 38.72475 475.22325 56.8545 475.22325 51.675 427.7385"></polygon>
            <polygon id="Path" fill="#FFB8B8" points="168.22725 337.95 170.817 377.664 190.67475 369.03075 182.904 336.2235"></polygon>
            <path d="M22.32075,246.4347 C22.32075,246.4347 23.1840975,296.509125 28.36425,312.912818 C33.5444025,329.31651 32.68101,330.179858 31.8176625,332.769915 C30.954315,335.359973 30.0909525,333.63327 30.0909525,337.95003 C30.0909525,342.26679 28.36425,410.47161 30.0909525,416.51508 C31.817655,422.55855 24.910845,432.918773 30.0909525,433.78212 C35.27106,434.645468 59.444925,433.78212 60.30828,428.602005 C61.171635,423.42189 53.4014625,421.695188 56.854875,418.241783 C60.3082875,414.788378 65.488395,343.993493 65.488395,343.993493 L77.5753275,294.782423 L100.022483,268.881855 L147.506812,268.881855 L162.183803,325.863105 C162.183803,325.863105 156.140303,342.266798 160.457092,342.266798 C164.773883,342.266798 190.67442,347.446913 190.67442,328.453163 C190.67442,309.459413 182.0409,253.341517 180.314212,251.614815 C178.587525,249.888113 181.17756,243.844642 178.587503,241.254585 C175.997445,238.664527 145.780125,220.534132 134.556547,217.080727 C123.33297,213.627322 107.588213,209.517075 107.588213,209.517075 L22.32075,246.4347 Z" id="Path" fill="#2F2E41"></path>
            <path d="M190.67442,362.123887 C190.67442,362.123887 177.72417,357.807127 171.68067,370.757415 C165.63717,383.707702 168.227265,387.161107 168.227265,387.161107 C168.227265,387.161107 188.084363,394.067925 191.537775,390.614512 C193.040273,389.112008 197.811308,388.590068 202.722323,388.479855 C210.20199,388.311997 212.19201,377.729933 205.127933,375.265717 C204.917208,375.192217 204.703915,375.12837 204.488055,375.074175 C197.581237,373.347472 190.67442,362.123887 190.67442,362.123887 Z" id="Path" fill="#2F2E41"></path>
            <circle id="Oval" fill="#FFB8B8" cx="81.028695" cy="45.273645" r="25.9005675"></circle>
            <path d="M47.3579625,91.03131 C47.3579625,91.03131 89.662215,99.66483 100.022445,85.851195 C110.382675,72.03756 114.699427,124.702042 114.699427,124.702042 L119.879542,179.956583 L112.10937,210.17391 C112.10937,210.17391 71.53182,242.981295 58.58154,245.571345 C45.63126,248.161395 25.774155,249.888112 25.774155,249.888112 C25.774155,249.888112 31.817655,154.056015 31.817655,152.329312 C31.817655,150.60261 47.3579625,91.03131 47.3579625,91.03131 Z" id="Path" fill="#6C63FF"></path>
            <path d="M60.22371,74.839425 C60.22371,74.839425 50.8113675,69.4475025 48.22131,74.6276175 C45.6312525,79.8077325 21.457395,92.758005 18.8673375,92.758005 C16.27728,92.758005 24.0474525,164.416238 20.59404,173.049757 C17.1406275,181.683278 0.7369425,244.708005 10.2338175,249.888112 C19.7306925,255.06822 12.823875,244.707997 22.32075,257.658277 C31.817625,270.608558 78.4386375,270.608528 81.028695,265.42845 C83.6187525,260.248372 60.3082425,221.39745 64.6250025,185.136697 C68.9417625,148.875945 75.84858,98.8014825 69.8051175,91.894665 C63.761655,84.9878475 60.22371,74.839425 60.22371,74.839425 Z" id="Path" fill="#2F2E41"></path>
            <path d="M91.3889625,80.67108 L92.59152,76.53258 C92.59152,76.53258 128.5131,88.44126 130.23981,96.2114325 C131.96652,103.981605 131.103158,158.37279 125.059695,162.68955 C119.016233,167.00631 110.382705,173.913128 116.426175,184.27335 C122.469645,194.633572 129.376425,205.857157 134.55657,206.720505 C139.736715,207.583852 149.233552,213.627322 146.643495,219.670755 C144.053438,225.714187 112.972762,214.49064 112.972762,214.49064 C112.972762,214.49064 92.25231,198.950302 93.115665,174.776437 C93.97902,150.602573 91.3889625,80.67108 91.3889625,80.67108 Z" id="Path" fill="#2F2E41"></path>
            <path d="M121.606245,182.54664 L100.885792,221.397487 C100.885792,221.397487 70.6684725,252.478162 87.9355425,255.931575 C105.202613,259.384987 114.699458,227.44095 114.699458,227.44095 L137.14662,195.49695 L121.606245,182.54664 Z" id="Path" fill="#FFB8B8"></path>
            <path d="M72.25782,7.5269325 C71.2138496,7.44957607 70.1681594,7.65239754 69.22881,8.1144375 C68.3794854,8.73473622 67.6794794,9.53695697 67.179945,10.4624775 C64.8771519,13.9263926 61.8753688,16.8704142 58.36737,19.1054775 C55.748835,20.771055 52.419765,22.8477675 52.86777,25.9186275 C53.1109668,26.9482348 53.5438024,27.9235403 54.144135,28.7946525 C56.5681017,33.0713198 57.5330736,38.0211663 56.8930275,42.8951625 L64.09311,32.4296625 C65.2360575,30.76836 67.2215475,28.8930375 68.9471625,29.9363475 C69.524955,30.285675 69.904335,30.912225 70.5059325,31.218735 C71.9414325,31.95012 73.46859,30.551895 74.739285,29.5614825 C79.1209725,26.146275 85.3521525,27.0409875 90.8047275,28.10508 C93.37887,28.6074375 96.20628,29.2665225 97.7279775,31.40265 C100.256745,34.9524825 97.6162275,40.081725 99.0920925,44.18265 C99.9267588,43.5982706 100.489145,42.7007425 100.650982,41.6947725 C102.70941,41.7584025 105.231607,41.5560225 106.11357,39.6949875 C106.381823,38.965658 106.524775,38.1962065 106.536375,37.419195 C106.860083,34.2931275 108.388178,31.4412075 109.400498,28.4659275 C110.412818,25.4906475 110.852993,22.0038075 109.144628,19.3658925 C108.519652,18.4720977 107.765353,17.6761156 106.906433,17.004015 C97.2117675,8.85819 84.4654425,7.5148425 72.25782,7.5269325 Z" id="Path" fill="#2F2E41"></path>
            <path d="M121.606245,92.758005 L129.650205,94.89315 C129.650205,94.89315 148.370167,142.8324 144.053407,175.639815 C139.736648,208.44723 137.14659,201.540382 137.14659,201.540382 C137.14659,201.540382 130.239772,186.000037 114.699427,189.45345 L121.606245,92.758005 Z" id="Path" fill="#2F2E41"></path>
            <path d="M36.4671675,468.947505 C34.3852275,471.776715 34.802655,475.820948 32.9584575,478.810568 C31.3598775,481.402013 28.34718,482.76078 26.347665,485.057085 C25.7096416,485.819962 25.1408508,486.638164 24.6480375,487.501988 C22.793205,490.6089 21.2855625,494.590793 23.11233,497.714295 C24.58185,500.22696 27.670725,501.209003 30.50358,501.878295 C34.0841325,502.724295 37.80435,503.401328 41.426235,502.754865 C45.04812,502.108403 48.58785,499.890615 49.8792375,496.445573 C50.1330537,495.579318 50.4347936,494.727831 50.7830625,493.895048 C52.746165,490.030343 58.90368,489.988568 60.9127725,486.147548 C62.3187675,483.459548 61.0263075,480.210375 59.7343875,477.465713 L55.78857,469.082888 C54.47913,466.300995 49.170855,467.900828 46.4035275,467.234198 C42.7943475,466.364835 39.0635925,465.40695 36.4671675,468.947505 Z" id="Path" fill="#2F2E41"></path>
            <path d="M7.64376,199.81368 L43.90455,255.931575 C43.90455,255.931575 66.351705,284.422192 73.2585225,271.471913 C80.16534,258.521633 49.084665,236.937825 49.084665,236.937825 L25.774155,193.770255 L7.64376,199.81368 Z" id="Path" fill="#FFB8B8"></path>
            <path d="M25.774155,94.484715 L18.8673375,92.758005 C18.8673375,92.758005 5.0537025,97.074765 1.6002975,115.20516 C-1.8531075,133.335555 0.7369425,205.857142 5.0537025,206.72049 C9.3704625,207.583838 26.37414,194.093017 29.0958825,196.953345 C31.817625,199.813673 23.1840975,185.13669 25.7741325,177.366518 C28.3641675,169.596345 25.774155,94.484715 25.774155,94.484715 Z" id="Path" fill="#2F2E41"></path>
            <g id="f3c2397c-d780-4cc6-97d8-1503d8277a2c" transform="translate(299.250000, 132.750000)" fill="#6C63FF">
                <rect id="ad41612f-86f7-46b2-a964-3a5da7bcf3cf" x="28.80519" y="0.2720625" width="22.3142625" height="5.37195"></rect>
                <rect id="b9a0b375-cc2a-4c59-8850-661af54e4f62" x="120.541613" y="0.2720625" width="7.851315" height="5.37195"></rect>
                <rect id="e174c2ab-9bc5-41ec-b37c-b06fbf8a9878" x="136.244243" y="0.2720625" width="7.851315" height="5.37195"></rect>
                <rect id="ba2479ac-4c7d-43b4-a028-73b1e20e4002" x="58.97076" y="0.2720625" width="53.306295" height="5.37195"></rect>
                <rect id="ac60ef86-00f2-480b-8171-28b6fdfc1958" x="0.7057425" y="34.98315" width="22.3142625" height="5.37195"></rect>
                <rect id="b3d8298d-cd65-487a-8b19-4cee946356e7" x="92.4421575" y="34.98315" width="7.851315" height="5.37195"></rect>
                <rect id="ed27f15f-f0c4-4569-8330-a6688f8e356c" x="108.144787" y="34.98315" width="7.851315" height="5.37195"></rect>
                <rect id="f685c005-adaf-4d60-acda-005b037d82a6" x="30.87132" y="34.98315" width="53.306295" height="5.37195"></rect>
                <rect id="eca7c7fc-83f8-48ca-a588-6606db47af3f" x="92.855385" y="12.25566" width="22.3142625" height="5.37195"></rect>
                <rect id="a71b5b2f-f8b9-481d-a301-5e3357e5fe42" x="123.020963" y="12.25566" width="22.3142625" height="5.37195"></rect>
                <rect id="abb3a25a-f854-41fc-8391-e6ad9fbe2417" x="0.7057425" y="12.25566" width="7.851315" height="5.37195"></rect>
                <rect id="add2b425-b775-4eb5-9c25-8c4c14f957c9" x="16.40838" y="12.25566" width="7.851315" height="5.37195"></rect>
                <rect id="b7159612-3b84-4b0b-a885-612eaab04c06" x="32.110995" y="12.25566" width="53.306295" height="5.37195"></rect>
                <rect id="edfc7301-4de5-47dc-80e2-1ae2da982d6d" x="46.5739425" y="23.826015" width="22.3142625" height="5.37195"></rect>
                <rect id="e1009f91-6275-4375-80fa-0d778e331fdc" x="16.4083725" y="23.826015" width="22.3142625" height="5.37195"></rect>
                <rect id="a060fb9f-1f1a-4862-9a69-16dd49199e18" x="0.70575" y="23.826015" width="7.851315" height="5.37195"></rect>
                <rect id="b6754d5f-104f-449c-b9a9-cf9ac82bf5fe" x="137.483917" y="23.826015" width="7.851315" height="5.37195"></rect>
                <rect id="e6ed1ccd-2cfd-450f-a339-07df3a1ee6bb" x="76.3263075" y="23.826015" width="53.306295" height="5.37195"></rect>
            </g>
        </g>
    </g>
</svg>