<?xml version="1.0" encoding="UTF-8"?>
<svg width="761px" height="459px" viewBox="0 0 761 459" version="1.1" xmlns="http://www.w3.org/2000/svg" xmlns:xlink="http://www.w3.org/1999/xlink">
    <title>contact-me</title>
    <g id="Page-1" stroke="none" stroke-width="1" fill="none" fill-rule="evenodd">
        <g id="contact-me">
            <path d="M517.601773,262.045455 L524.119273,260.918587 C524.744503,260.80902 525.36521,260.675588 525.989773,260.562277 C504.742455,247.37345 495.465871,221.225363 503.650753,197.594845 C511.835634,173.964326 535.298226,159.156078 560.151222,161.934975 L551.60864,182.262382 L571.847862,164.590132 C571.895074,164.601835 571.941276,164.617289 571.986027,164.636347 C585.371001,169.350503 596.334962,179.188915 602.465802,191.987102 C608.596643,204.785288 609.392119,219.49481 604.677222,232.879522 C604.338642,233.843272 603.935585,234.763485 603.54881,235.694955 C609.262535,232.82409 614.743655,229.48209 619.213482,225.20289 C628.262682,216.531517 633.220812,204.565455 638.761482,189.822982 C649.738527,160.608577 660.306972,130.9713 670.453692,101.269417 C647.334964,88.759118 636.735197,61.302839 645.449945,36.502912 C645.99362,34.9584 646.623432,33.471127 647.291,32.01045 C647.457867,31.6449 647.62625,31.281675 647.800542,30.921352 C648.47897,29.520967 649.19519,28.148902 649.981182,26.832105 C650.109657,26.616232 650.253597,26.414227 650.38481,26.200695 C651.06891,25.09044 651.790515,24.013045 652.549625,22.96851 C652.832217,22.576343 653.113872,22.185262 653.406125,21.80241 C654.266225,20.677717 655.15694,19.583332 656.096195,18.538545 C656.410055,18.188962 656.743047,17.862337 657.06527,17.521785 C657.786865,16.760405 658.52824,16.022007 659.289395,15.306592 C659.69072,14.929957 660.087755,14.550592 660.49961,14.187307 C660.605315,14.094105 660.703932,13.992382 660.810312,13.899945 C660.815637,13.906762 660.819777,13.914075 660.824892,13.92081 C680.27194,-3.026253 709.046052,-3.672652 729.234515,12.384015 L718.118472,38.836575 L738.127572,21.374483 C752.499931,39.685486 753.301129,65.213241 740.105322,84.389483 C740.123765,84.395985 740.142822,84.40101 740.161265,84.407483 C739.942797,84.728573 739.694682,85.022438 739.46996,85.337798 C739.04804,85.929678 738.616085,86.51103 738.174095,87.081855 C737.605595,87.813855 737.015232,88.521315 736.41257,89.219115 C735.9575,89.745825 735.508992,90.276907 735.03533,90.783562 C734.342517,91.524735 733.616637,92.226517 732.885972,92.924393 C732.45932,93.331455 732.051507,93.759142 731.612765,94.151258 C730.462605,95.178682 729.272707,96.153545 728.043072,97.075845 C727.611755,97.398877 727.156647,97.683833 726.716405,97.9932 C725.853057,98.600498 724.985232,99.19887 724.088975,99.753105 C723.532797,100.09686 722.961867,100.411095 722.393975,100.734158 C721.57208,101.202337 720.74435,101.655908 719.899295,102.07962 C719.300165,102.379965 718.69667,102.665063 718.0868,102.942915 C717.21914,103.338352 716.34056,103.705087 715.45274,104.054107 C714.856962,104.288107 714.264155,104.525107 713.660082,104.73789 C712.663572,105.08889 711.652422,105.393818 710.635265,105.685725 C710.121867,105.833287 709.616765,106.002105 709.09859,106.134225 C707.572745,106.523385 706.02992,106.854668 704.468975,107.108475 C704.17544,107.156408 703.87661,107.174475 703.581957,107.217307 C702.288095,107.405595 700.987407,107.55753 699.676362,107.65035 C699.112805,107.69004 698.545865,107.695755 697.9799,107.717797 C696.920217,107.759047 695.859455,107.780047 694.792902,107.757232 C694.170867,107.744032 693.54917,107.711857 692.925507,107.676675 C691.887007,107.61792 690.847552,107.52748 689.807142,107.405355 C689.191962,107.334105 688.578552,107.263395 687.962975,107.170192 C686.84813,107.001052 685.73501,106.7799 684.621357,106.537687 C684.54836,106.521817 684.47504,106.512187 684.401915,106.496017 C680.119235,119.026747 675.757262,131.530715 671.315997,144.00792 C682.26381,134.163312 696.786595,129.26872 711.45997,130.478259 C726.133344,131.687798 739.658617,138.894415 748.84661,150.398835 L730.348482,170.856172 L755.394065,160.858035 C761.477584,173.615021 762.247538,188.265396 757.53473,201.589785 C755.901817,206.27189 753.613612,210.698959 750.738365,214.738942 C738.076057,232.649395 715.761692,241.012948 694.446622,235.837415 C673.131552,230.661882 657.137283,212.996571 654.098382,191.273692 C653.627832,192.53085 653.173197,193.80378 652.701432,195.059692 C647.81195,208.065652 641.729135,224.251507 629.51312,235.953712 C621.232587,243.885495 611.044587,248.917695 601.270025,253.172175 C594.90506,255.94224 588.45538,258.50324 581.920985,260.855175 C574.656577,265.259783 566.44959,267.875342 557.97617,268.486365 C547.66583,271.350457 537.225455,273.741352 526.687325,275.58732 L520.116455,276.720015 C514.211292,277.731607 508.156205,278.773117 502.146702,279.973102 C503.011992,280.229827 503.8784,280.474755 504.739167,280.777702 C526.710872,288.510832 541.158397,309.566241 540.468687,332.848882 L499.274765,345.492952 L536.550342,351.412372 C529.619166,368.446376 514.429196,380.72988 496.321967,383.943404 C478.214738,387.156928 459.725581,380.850522 447.356187,367.241827 C447.734542,368.509537 448.11444,369.775262 448.49588,371.039002 C449.25254,373.550385 450.003192,376.047562 450.72425,378.521002 C460.532877,412.2246 456.311585,438.736695 438.835842,453.170235 L429.353082,441.69141 C446.361582,427.641112 441.084665,398.689687 436.428335,382.679835 C435.72056,380.251035 434.981517,377.797792 434.238147,375.331027 C427.849647,354.107685 420.607505,330.05118 429.987245,307.94523 C444.123402,274.626975 484.86515,267.650768 517.601773,262.045455 Z" id="Path" fill="#F2F2F2" fill-rule="nonzero"></path>
            <path d="M505.528303,457.49367 L216.902983,457.49367 C197.193409,457.49367 181.215643,441.515904 181.215643,421.80633 L181.215643,289.572518 C181.215643,285.691717 182.810876,281.981536 185.627383,279.311722 L338.570248,134.334615 C351.268072,122.298142 371.16322,122.298142 383.861045,134.334615 L529.683973,272.562585 C537.045938,279.541121 541.215658,289.239033 541.215658,299.382923 L541.215658,421.80633 C541.215658,431.271204 537.45575,440.34842 530.763072,447.041095 C524.070395,453.73377 514.993176,457.49367 505.528302,457.49367 L505.528303,457.49367 Z" id="Path" fill="#3F3D56" fill-rule="nonzero"></path>
            <path d="M181.215642,291.74367 L538.215642,291.74367 L538.215642,435.94446 C538.215642,447.84576 528.567733,457.49367 516.666432,457.49367 L202.764852,457.49367 C190.863552,457.49367 181.215642,447.84576 181.215642,435.94446 L181.215642,291.74367 Z" id="Path" fill="#000000" fill-rule="nonzero" opacity="0.1"></path>
            <rect id="Rectangle" fill="#6C63FF" fill-rule="nonzero" x="228.090642" y="178.11867" width="265.5" height="265.5" rx="26.1811"></rect>
            <polygon id="Path" fill="#000000" fill-rule="nonzero" opacity="0.1" points="493.5905 297.7065 493.5905 443.619 228.0905 443.619 228.0905 297.7065 360.8405 361.869"></polygon>
            <path d="M360.840642,370.11867 L190.745292,287.90592 C188.606612,286.872227 186.086641,287.011041 184.07444,288.27339 C182.062239,289.535738 180.840642,291.744183 180.840642,294.119572 L180.840642,435.569453 C180.840642,441.28466 183.110996,446.765787 187.152257,450.80705 C191.193518,454.848312 196.674645,457.11867 202.389852,457.11867 L519.291432,457.11867 C525.00664,457.11867 530.487767,454.848312 534.529028,450.80705 C538.570289,446.765787 540.840642,441.28466 540.840642,435.569452 L540.840642,296.542702 C540.840642,293.644093 539.349978,290.949199 536.894557,289.408797 C534.439136,287.868394 531.364099,287.699005 528.75434,288.96039 L360.840642,370.11867 Z" id="Path" fill="#3F3D56" fill-rule="nonzero"></path>
            <rect id="Rectangle" fill="#F2F2F2" fill-rule="nonzero" x="250.965643" y="202.49367" width="74.25" height="10.5"></rect>
            <rect id="Rectangle" fill="#F2F2F2" fill-rule="nonzero" x="244.965642" y="240.74367" width="220.5" height="6"></rect>
            <rect id="Rectangle" fill="#F2F2F2" fill-rule="nonzero" x="244.965642" y="260.99367" width="220.5" height="6"></rect>
            <rect id="Rectangle" fill="#F2F2F2" fill-rule="nonzero" x="244.965642" y="281.24367" width="220.5" height="6"></rect>
            <line x1="46.215642" y1="457.11867" x2="664.215642" y2="457.11867" id="Path" stroke="#3F3D56"></line>
            <path d="M0.5,364.764818 C0.5,408.98502 28.241435,444.767445 62.524512,444.767445" id="Path" fill="#46455B" fill-rule="nonzero"></path>
            <path d="M62.524512,444.767445 C62.524512,400.05039 93.482337,363.865912 131.740265,363.865912" id="Path" fill="#6C63FF" fill-rule="nonzero"></path>
            <path d="M22.9726475,368.773455 C22.9726475,410.777955 40.662837,444.767445 62.524512,444.767445" id="Path" fill="#6C63FF" fill-rule="nonzero"></path>
            <path d="M62.524512,444.767445 C62.524512,387.628987 98.306938,341.393265 142.527132,341.393265" id="Path" fill="#46455B" fill-rule="nonzero"></path>
            <path d="M49.476155,445.331475 C49.476155,445.331475 58.272252,445.06056 60.923172,443.172877 C63.574092,441.285195 74.45378,439.03119 75.11141,442.058625 C75.76904,445.08606 88.33031,457.115707 78.39956,457.195808 C68.46881,457.275908 55.324917,455.64894 52.679097,454.037265 C50.033277,452.42559 49.476155,445.331475 49.476155,445.331475 Z" id="Path" fill="#A8A8A8" fill-rule="nonzero"></path>
            <path d="M78.576785,456.141945 C68.646035,456.222075 55.50215,454.595093 52.856322,452.98341 C50.841387,451.756035 50.03846,447.351915 49.769802,445.320023 C49.58375,445.328025 49.476155,445.331468 49.476155,445.331468 C49.476155,445.331468 50.033277,452.425583 52.679105,454.037258 C55.324932,455.648933 68.468855,457.275922 78.39956,457.195792 C81.26618,457.172677 82.256352,456.152775 82.201985,454.642215 C81.80375,455.55486 80.710445,456.124747 78.576785,456.141945 Z" id="Path" fill="#000000" fill-rule="nonzero" opacity="0.2"></path>
            <path d="M540.284818,122.827928 C539.834068,126.843833 536.770978,130.078793 535.636033,133.95726 C533.927773,139.794885 536.88161,146.059178 540.92219,150.605572 C547.507383,157.937304 556.753683,162.327566 566.59742,162.7965 C568.029098,162.922355 569.471548,162.765146 570.842503,162.33384 C572.066541,161.841301 573.168644,161.088122 574.072213,160.12665 C577.11515,157.071247 578.748598,152.83776 579.399568,148.574985 C580.050538,144.31221 579.797555,139.969372 579.543005,135.664702 C579.544253,134.774866 579.382588,133.892319 579.066005,133.060702 C578.651053,132.268506 578.081079,131.567813 577.389958,131.000265 C575.199179,128.990561 572.786078,127.237593 570.197548,125.775427 C569.027523,125.251135 567.995676,124.461564 567.183763,123.469275 C566.694577,122.619207 566.377987,121.680944 566.252143,120.708277 L565.457555,116.659117 C565.315813,115.492247 564.917298,114.371274 564.29066,113.376787 C562.88696,111.483217 560.201885,111.225525 557.846585,111.133132 L549.217723,110.794643 C546.533653,110.68935 542.997058,109.919663 540.376813,110.446785 C537.93002,110.939018 538.742773,113.19375 539.18723,115.246785 C539.831755,117.725582 540.19986,120.268117 540.284818,122.827928 L540.284818,122.827928 Z" id="Path" fill="#A0616A" fill-rule="nonzero"></path>
            <path d="M535.636033,133.95726 C533.927773,139.794885 536.88161,146.059178 540.92219,150.605572 C547.507383,157.937304 556.753683,162.327566 566.59742,162.7965 C568.029098,162.922355 569.471548,162.765146 570.842503,162.33384 C572.066541,161.841301 573.168644,161.088122 574.072213,160.12665 C577.11515,157.071247 578.748598,152.83776 579.399568,148.574985 C580.050538,144.31221 579.797555,139.969372 579.543005,135.664702 C579.544253,134.774866 579.382588,133.892319 579.066005,133.060702 C578.651053,132.268506 578.081079,131.567813 577.389958,131.000265 C575.199179,128.990561 572.786078,127.237593 570.197548,125.775427 C569.027523,125.251135 567.995676,124.461564 567.183763,123.469275 C566.694577,122.619207 566.377987,121.680944 566.252143,120.708277 L565.457555,116.659117 C565.315813,115.492247 564.917298,114.371274 564.29066,113.376787 C562.88696,111.483217 560.201885,111.225525 557.846585,111.133132 L549.217723,110.794643 C546.533653,110.68935 542.997058,109.919663 540.376813,110.446785 C537.93002,110.939018 538.742773,113.19375 539.18723,115.246785 C539.831755,117.725582 540.19986,120.268117 540.284818,122.827928" id="Path" fill="#FFB8B8" fill-rule="nonzero" opacity="0.750646391"></path>
            <path d="M595.175885,303.586035 C593.953385,316.99019 592.730898,330.392273 591.508423,343.792282 C590.551423,354.337793 589.575898,364.926533 587.698963,375.33618 C587.050648,378.92337 586.291213,382.492065 585.389788,386.02986 C582.883078,395.852963 579.246538,405.453803 578.073403,415.523918 C578.03636,415.814085 578.005498,416.110418 577.974635,416.406825 C577.84329,418.633594 577.421941,420.833705 576.721258,422.951437 C576.134705,424.488802 575.233258,425.89035 574.59734,427.409212 C573.33164,430.4469 573.164922,433.805655 573.010573,437.09646 C568.558259,434.592614 563.684366,432.926834 558.63092,432.181837 C556.192115,431.817547 553.475503,431.558242 551.814642,429.736837 C549.974712,427.724047 550.178472,424.643137 550.487143,421.938847 C551.456497,413.541982 552.423788,405.149232 553.389013,396.760597 C553.704017,393.151531 554.31735,389.574749 555.222725,386.066917 C555.55616,384.899985 555.957455,383.7516 556.364975,382.603215 C556.926807,381.022627 557.49482,379.442032 557.920843,377.818215 C558.534758,375.194549 558.963891,372.531053 559.205083,369.847335 C560.19911,361.40106 561.396905,352.973295 562.446523,344.5332 L562.502105,344.088675 C564.076513,331.29576 565.274308,318.44112 564.928558,305.55561 C564.879148,303.647812 564.798882,301.73997 564.675395,299.825992 C564.502535,297.05379 564.249395,295.584337 566.546187,293.849392 C569.083768,291.935392 572.423937,290.595585 575.325852,289.342215 C576.887938,288.663067 594.089188,282.5568 594.49052,283.896622 C595.297455,286.754454 595.721003,289.706852 595.75004,292.67628 C595.762308,296.320728 595.570623,299.963007 595.175885,303.586035 Z" id="Path" fill="#605D82" fill-rule="nonzero"></path>
            <path d="M587.698962,375.33618 C587.050647,378.92337 586.291213,382.492065 585.389788,386.02986 C582.883078,395.852963 579.246538,405.453803 578.073403,415.523918 C578.03636,415.814085 578.005498,416.110418 577.974635,416.406825 C570.306275,405.453825 563.848107,393.673493 556.365013,382.6032 C556.926845,381.022612 557.494857,379.442017 557.92088,377.8182 C558.534796,375.194534 558.963929,372.531038 559.20512,369.84732 C560.199148,361.401045 561.396943,352.97328 562.44656,344.533185 L562.502143,344.08866 C562.941338,345.88047 563.568395,347.620931 564.372898,349.281127 C569.398693,359.493247 581.339533,364.654852 587.180315,374.428545 C587.359355,374.731115 587.532237,375.03366 587.698962,375.33618 Z" id="Path" fill="#000000" fill-rule="nonzero" opacity="0.1"></path>
            <path d="M525.475295,285.539017 C525.72857,293.729633 527.039705,301.846343 528.348125,309.935767 L531.047712,326.626035 C532.525213,335.760668 534.063463,345.081457 538.386252,353.263035 C541.619945,359.38326 546.278892,364.605847 550.49363,370.09674 C560.855165,383.595577 568.639198,398.886922 578.464205,412.781137 C581.319988,416.8197 585.40202,421.187235 590.275865,420.343965 C593.474615,419.79051 595.797913,417.127312 598.31231,415.073955 C601.2767,412.653112 604.849482,410.881717 607.181907,407.84727 C609.514333,404.812822 609.971322,399.768937 606.81134,397.609635 C605.667934,396.97625 604.454003,396.479539 603.194563,396.129735 C598.295938,394.266735 595.12526,389.483055 593.107813,384.645982 C591.090365,379.80891 589.868045,374.607795 587.179738,370.108867 C581.339555,360.335212 569.397005,355.173832 564.369988,344.958097 C561.554428,339.236407 561.286085,332.641657 561.070873,326.268367 L560.522248,310.0218 C560.462248,308.245147 560.415313,306.397372 561.13754,304.77303 C563.060428,300.448342 568.866253,300.045532 573.56729,299.497267 C578.902821,298.871952 584.071526,297.241211 588.799858,294.69135 C591.50753,293.229202 594.152833,291.36525 595.60136,288.650272 C596.922905,286.173292 597.105283,283.268032 597.260255,280.46484 L598.887988,251.021482 C599.028028,248.48835 599.155737,245.869162 598.262938,243.494482 C596.021135,237.531622 588.491533,235.58313 582.127535,235.867627 C570.285035,236.397037 559.352563,241.4913 548.18657,244.931505 C545.420873,245.803874 542.612957,246.536265 539.773513,247.125892 C537.267523,247.62879 534.234665,247.420125 531.844603,248.225887 C527.594143,249.65886 527.702068,258.954172 527.099353,262.80999 C525.854539,270.319601 525.310846,277.92871 525.475295,285.539017 L525.475295,285.539017 Z" id="Path" fill="#605D82" fill-rule="nonzero"></path>
            <path d="M588.66788,421.578442 C589.712157,422.631585 590.053505,424.174455 590.32553,425.63241 C591.833949,433.71962 592.618553,441.925182 592.67003,450.151702 C592.600241,450.919267 592.753473,451.690662 593.11133,452.373278 C593.405411,452.780411 593.803899,453.100651 594.264777,453.300233 C597.282957,454.738733 600.786147,452.733983 603.30113,450.530903 C607.96334,446.446838 611.90834,440.96505 612.17315,434.772653 C612.124614,433.177672 612.180484,431.581225 612.3404,429.99354 C612.7499,427.662255 614.111247,425.631015 615.310767,423.590505 C617.352134,420.117002 618.998649,416.426102 620.219615,412.586617 C620.678142,411.144128 620.983115,409.327823 619.852797,408.321127 C619.452033,408.007102 618.996426,407.77025 618.509157,407.622623 L604.875223,402.56034 C603.693755,402.121665 600.753852,409.673565 600.28724,410.499165 C599.14583,412.518675 598.0109,413.66514 595.721,414.131295 C593.38355,414.607125 590.601035,413.924355 588.420005,415.090545 C584.73056,417.06324 586.57889,419.4717 588.66788,421.578442 Z" id="Path" fill="#535070" fill-rule="nonzero"></path>
            <path d="M567.63044,426.238785 C567.376861,425.734668 567.023848,425.287106 566.592673,424.923068 C565.961492,424.522745 565.243839,424.278936 564.499423,424.211925 C561.903838,423.77121 558.827382,423.48102 557.035925,425.41026 C555.356375,427.218998 555.645117,430.165538 554.240952,432.19551 C553.796435,432.83814 553.194147,433.36776 552.808745,434.047485 C552.330386,435.086537 552.114625,436.227199 552.180433,437.369183 C552.108026,440.51562 552.0356,443.667398 552.25295,446.807183 C552.435088,449.438183 552.878578,452.195183 554.52386,454.256385 C557.164648,457.56471 561.9275,458.040428 566.155108,458.255153 L569.579045,458.429055 C570.522029,458.543666 571.47861,458.455967 572.385035,458.171805 C573.518617,457.647823 574.391732,456.687172 574.805353,455.508833 C576.58763,451.078973 573.765103,446.30628 572.026483,441.859103 C570.028145,436.747455 570.386975,431.071642 567.63044,426.238785 Z" id="Path" fill="#535070" fill-rule="nonzero"></path>
            <path d="M539.292815,100.199977 C539.250867,99.750895 539.316866,99.298291 539.48531,98.879887 C539.986805,97.993147 541.296305,98.234482 542.284123,98.483528 C546.256693,99.48507 550.44251,98.578477 554.532695,98.812455 C558.62288,99.046433 563.230183,101.09121 564.05258,105.104685 C567.021401,102.999986 569.580595,100.370454 571.604045,97.345673 C572.739208,95.646923 573.72866,93.70113 573.574123,91.663853 C573.35123,88.725353 570.8858,86.527778 568.60298,84.664193 L561.79805,79.108943 C560.904995,78.288119 559.873394,77.632251 558.751205,77.171827 C557.179797,76.634827 555.46616,76.890682 553.805532,76.891748 C548.852,76.89492 543.570575,74.64057 539.165007,76.905195 C537.324702,77.851178 535.93955,79.472265 534.604257,81.052935 L528.530757,88.24236 C528.073575,88.700554 527.739618,89.266869 527.559912,89.888692 C527.387112,90.76626 527.837787,91.63233 527.995055,92.512808 C528.281937,94.118925 527.590175,95.833058 528.122007,97.37547 C529.00493,99.936067 532.113942,100.298535 534.014652,101.766495 C534.723057,102.313612 535.833305,104.1678 536.67734,104.145157 C538.200223,104.104305 539.253223,101.383148 539.292815,100.199977 Z" id="Path" fill="#3F3D56" fill-rule="nonzero"></path>
            <circle id="Oval" fill="#FFB8B8" fill-rule="nonzero" cx="549.598093" cy="101.94357" r="19.4486625"></circle>
            <path d="M554.153315,144.507322 C552.799182,140.628624 549.087829,138.074591 544.981325,138.195458 C544.40887,138.302015 543.817429,138.227233 543.289512,137.981543 C542.990958,137.75215 542.752387,137.453877 542.594195,137.112218 C541.411597,134.98559 540.460892,132.738066 539.758445,130.408335 C539.448177,129.378915 539.023887,128.16531 537.982572,127.897673 C537.104015,127.782698 536.233611,128.161317 535.718742,128.882423 C535.224181,129.594744 534.683683,130.274048 534.100692,130.91601 C531.654642,133.1031 527.318667,131.10969 524.72246,133.11624 C524.298387,133.44399 523.948407,133.863847 523.503005,134.16198 C523.057208,134.430332 522.576738,134.636326 522.075005,134.774212 C517.061573,136.410913 512.146857,138.335809 507.355407,140.539282 C509.082335,150.93939 510.851907,161.520817 514.899875,171.255225 C516.826242,175.88772 519.009297,180.424725 520.551875,185.198737 C523.96979,195.776482 524.12132,207.094162 524.159682,218.210332 C524.185932,225.818377 524.148117,233.58885 521.686647,240.787755 C521.024476,242.378674 520.55773,244.044042 520.296635,245.74737 C520.147977,247.462807 520.647312,249.35424 522.037235,250.370572 C522.84309,250.897615 523.764754,251.221336 524.723187,251.313975 C528.988257,251.939797 533.288037,250.804725 537.487625,249.832132 C548.74379,247.225342 560.223725,245.73369 571.681625,244.24596 L590.881512,241.75296 C592.257751,241.659483 593.604684,241.31137 594.853872,240.726307 C598.367232,238.80267 598.700772,233.517817 596.518962,230.15868 C595.472982,228.548272 593.9972,227.227125 593.118342,225.519757 C592.239485,223.81239 592.164642,221.424847 593.677617,220.2423 C596.75522,217.836832 595.837212,213.37389 595.983995,209.470507 C596.39441,198.556147 596.338885,187.637525 595.81742,176.71464 C595.663276,174.453562 595.627089,172.185986 595.709007,169.92114 C596.050211,166.083339 596.759306,162.28719 597.82652,158.585002 L603.660567,135.614002 C602.136515,133.205647 599.218392,131.677665 596.454042,130.98393 C593.689692,130.290195 590.810547,130.086022 588.088182,129.24243 C582.510972,127.514227 577.545695,123.12843 571.721187,123.53718 C571.280608,123.545095 570.847305,123.650899 570.45266,123.84693 C569.13902,124.591117 569.347055,126.4842 569.263085,127.991647 C569.07731,131.3268 566.624292,134.114227 563.915352,136.068555 C561.206412,138.022882 558.112602,139.447927 555.62456,141.676717 C554.731674,142.349512 554.190885,143.389966 554.153315,144.507322 L554.153315,144.507322 Z" id="Path" fill="#3F3D56" fill-rule="nonzero"></path>
            <path d="M477.091243,166.296 C475.801531,167.132829 474.431033,167.83801 473.000383,168.400928 C471.59946,168.81767 470.275849,169.460017 469.081633,170.302695 C468.531242,170.778741 468.06984,171.348818 467.71895,171.986332 C466.377996,174.364151 466.437438,177.283333 467.874077,179.604593 C469.310715,181.925852 471.896838,183.28126 474.623143,183.141832 C476.402084,182.942505 478.131111,182.426985 479.728745,181.619565 L493.446222,175.675342 C495.76796,174.669263 498.275923,173.490202 499.373292,171.210195 C499.501147,170.997523 499.548532,170.746065 499.506853,170.501445 C499.396241,170.242768 499.196247,170.032527 498.943415,169.90914 C495.84934,167.899725 493.143463,165.348211 490.955975,162.377363 C490.393183,161.613255 489.704563,159.809048 488.909038,159.350925 C486.005472,157.678807 479.415268,164.787773 477.091243,166.296 Z" id="Path" fill="#FFB8B8" fill-rule="nonzero"></path>
            <path d="M623.73683,161.418367 L628.794178,167.19555 C629.8799,168.435802 630.966785,169.677495 631.95647,170.995657 C634.386786,174.34499 636.336442,178.017941 637.74872,181.907662 C638.848033,184.792312 639.760445,187.864965 639.376303,190.927995 C639.121261,192.498262 638.697161,194.036346 638.111398,195.515422 C637.184478,198.360076 636.035441,201.127488 634.674898,203.7921 C633.530547,205.816553 632.237989,207.75357 630.807808,209.58729 C626.892179,214.776947 622.607682,219.677705 617.9876,224.251492 C616.258625,225.963037 615.53354,228.730492 614.780908,231.044017 C613.392658,235.3113 610.08941,238.63491 606.89507,241.78659 C605.868554,242.870568 604.734024,243.846883 603.509135,244.70034 C601.674031,245.882237 599.529475,246.492995 597.34703,246.455272 C596.391641,246.461939 595.44568,246.26612 594.571453,245.880712 C592.385495,244.842675 591.27449,242.314905 591.046768,239.90574 C590.843279,237.719475 591.209659,235.517783 592.1102,233.515237 C595.01228,227.086522 602.4647,224.300737 607.7324,219.610117 C610.82129,216.85962 613.1834,213.404707 615.513073,209.98722 C617.095463,207.853479 618.416535,205.537853 619.448053,203.089837 C620.624473,199.950862 620.166553,196.234837 621.194338,193.044052 C621.628768,191.69532 622.40114,190.477507 622.86827,189.13974 C623.3354,187.801972 623.453008,186.21393 622.635845,185.056312 C622.019387,184.320587 621.233676,183.745363 620.346095,183.379972 C616.98098,181.67202 613.212095,179.473972 612.568048,175.75557 C612.31133,173.693503 612.850146,171.611111 614.074798,169.932345 C615.295021,168.275978 616.720963,166.781537 618.318298,165.484995 C619.790038,164.183603 622.265038,162.719767 623.73683,161.418367 Z" id="Path" fill="#FFB8B8" fill-rule="nonzero"></path>
            <path d="M473.844462,174.360405 C472.95146,172.556513 471.835033,170.716095 470.033075,169.819155 C468.267575,169.052591 466.264839,169.044186 464.492968,169.795905 C462.745649,170.549243 461.10979,171.538443 459.631033,172.735905 L455.27186,175.94928 C454.283505,176.597603 453.409059,177.40477 452.68385,178.338173 C451.995979,179.470386 451.537952,180.727048 451.335943,182.036348 C450.57615,185.02227 450.344206,188.118032 450.650585,191.183835 C451.342362,196.099605 454.306085,200.391173 457.56821,204.133103 C459.606605,206.471325 462.123275,208.83096 465.223662,208.930695 C466.561977,208.973745 468.050367,208.446233 468.60698,207.228398 C468.799726,206.745561 468.90215,206.231429 468.909155,205.71159 C469.244067,200.228535 467.282645,194.872875 464.995377,189.878438 C464.266107,188.570665 463.835167,187.117759 463.733442,185.623853 C463.717043,185.372445 463.782418,185.122479 463.919802,184.911293 C464.117078,184.705964 464.380758,184.577221 464.66399,184.54794 C467.794535,183.928718 473.186757,186.36069 475.382892,182.8842 C476.806602,180.630473 474.856198,176.404155 473.844462,174.360405 Z" id="Path" fill="#FFB8B8" fill-rule="nonzero"></path>
            <path d="M538.27286,94.080218 C538.23091,93.631136 538.296906,93.178531 538.465348,92.760128 C538.966843,91.873388 540.27635,92.114722 541.264168,92.363768 C545.23673,93.36531 549.422548,92.458718 553.512733,92.692695 C557.602917,92.926673 562.21022,94.97145 563.032625,98.984925 C566.001446,96.880226 568.56064,94.250694 570.58409,91.225913 C571.719245,89.527163 572.708698,87.58137 572.55416,85.544093 C572.331268,82.60563 569.865837,80.408025 567.583025,78.544433 L560.778087,72.989183 C559.885035,72.168359 558.853433,71.512492 557.731242,71.052075 C556.159835,70.515075 554.446198,70.770923 552.78557,70.771987 C547.832037,70.775168 542.550612,68.520817 538.145053,70.785435 C536.304747,71.731418 534.919595,73.352505 533.584303,74.933183 L527.510803,82.122608 C527.053621,82.5808 526.719664,83.147112 526.539958,83.768933 C526.367158,84.6465 526.817833,85.51257 526.975108,86.393055 C527.26199,87.999173 526.57022,89.713305 527.102053,91.25571 C527.984983,93.816308 531.093988,94.178775 532.994705,95.646743 C533.703102,96.193853 534.81335,98.048048 535.657385,98.025398 C537.180223,97.984545 538.23326,95.263388 538.27286,94.080218 Z" id="Path" fill="#3F3D56" fill-rule="nonzero"></path>
            <path d="M496.965478,147.378578 C496.180259,147.885012 495.491029,148.526628 494.929775,149.273648 C494.216712,150.351758 494.071775,151.712805 493.459272,152.851043 C492.14855,155.286713 489.082835,156.153225 487.170342,158.151435 C486.86651,158.426182 486.655377,158.788407 486.566045,159.188183 C486.556823,159.730486 486.738691,160.258748 487.079795,160.680443 L496.30232,175.179113 C499.372977,175.44948 502.31882,173.52567 505.390782,173.781045 C506.537787,173.8764 507.711492,174.272573 508.811412,173.933625 C509.598877,173.584461 510.336917,173.133092 511.00649,172.591163 C512.83922,171.43233 515.28017,171.297308 516.817782,169.76841 C518.293422,168.301125 518.481702,166.005443 518.464107,163.924538 C518.488763,162.117454 518.304796,160.313561 517.915857,158.548658 C516.558072,152.983508 512.301807,148.712798 509.63354,143.783108 C508.33454,141.383108 507.627687,139.97814 504.878217,141.62604 C502.114483,143.28246 499.56647,145.476517 496.965478,147.378578 Z" id="Path" fill="#3F3D56" fill-rule="nonzero"></path>
            <path d="M608.971558,140.046623 C610.704743,141.172092 612.267251,142.54072 613.6112,144.110565 C615.016175,145.92216 615.811917,148.139257 617.161535,149.992462 C618.469708,151.788757 620.250448,153.179962 621.734285,154.834058 C623.984615,157.34259 625.508855,160.40298 627.005652,163.422308 C623.349723,168.190374 619.363369,172.695735 615.076025,176.905125 C614.598819,177.467461 613.970048,177.880796 613.264588,178.095908 C612.289919,178.199396 611.328282,177.807351 610.703788,177.051908 C610.039588,176.35506 609.568828,175.495972 608.933848,174.772395 C607.435168,173.226375 605.437872,172.260388 603.295445,172.045395 C601.172048,171.840153 599.035323,171.810728 596.90708,171.95742 C596.439813,172.009472 595.967293,171.930062 595.54271,171.72813 C595.227024,171.510279 594.97106,171.216683 594.798275,170.874248 C592.301308,166.625325 593.10446,161.290688 593.985403,156.441758 L596.006848,145.31523 C596.299721,143.190228 596.865172,141.111818 597.689233,139.13133 C598.45478,137.495033 600.166978,134.720265 602.272153,135.21012 C604.394338,135.703897 607.18616,138.76242 608.971558,140.046623 Z" id="Path" fill="#3F3D56" fill-rule="nonzero"></path>
            <ellipse id="Oval" fill="#FFFFFF" fill-rule="nonzero" cx="238.965643" cy="182.299598" rx="30.75" ry="30.8059275"></ellipse>
            <path d="M238.965643,146.24367 C218.669178,146.24367 202.215642,162.697205 202.215642,182.99367 C202.215642,203.290135 218.669178,219.74367 238.965642,219.74367 C259.262107,219.74367 275.715642,203.290135 275.715642,182.99367 C275.656305,162.721835 259.237478,146.303008 238.965643,146.24367 Z M231.421295,202.587795 L212.58692,183.753398 L217.869725,178.470593 L231.438972,192.039825 L260.079223,163.399575 L265.362035,168.682388 L231.421288,202.587795 L231.421295,202.587795 Z" id="Shape" fill="#57B894" fill-rule="nonzero"></path>
        </g>
    </g>
</svg>