<?xml version="1.0" encoding="UTF-8"?>
<svg width="666px" height="489px" viewBox="0 0 666 489" version="1.1" xmlns="http://www.w3.org/2000/svg" xmlns:xlink="http://www.w3.org/1999/xlink">
    <!-- Generator: Sketch 64 (93537) - https://sketch.com -->
    <title>Slice 1</title>
    <desc>Created with Sketch.</desc>
    <g id="Page-1" stroke="none" stroke-width="1" fill="none" fill-rule="evenodd">
        <g id="design-notes" fill-rule="nonzero">
            <ellipse id="Oval" fill="#E6E6E6" cx="72.5096025" cy="473.84463" rx="72.2613075" ry="15.0050775"></ellipse>
            <ellipse id="Oval" fill="#2F2E41" cx="41.3095125" cy="107.73801" rx="24.9118425" ry="23.3351475"></ellipse>
            <path d="M113.837677,253.109663 L120.144473,261.93918 C120.144473,261.93918 150.41709,268.245975 139.064857,277.706167 C127.712625,287.16636 111.314955,268.876658 111.314955,268.876658 L102.485437,257.524402 L113.837677,253.109663 Z" id="Path" fill="#FFB8B8"></path>
            <path d="M81.04233,152.831603 C81.04233,152.831603 89.241165,152.831603 91.133205,164.183835 C93.025245,175.536067 94.917285,213.376845 94.917285,213.376845 C94.917285,213.376845 121.40583,248.064225 116.991075,252.47898 C112.57632,256.893735 107.530875,265.092578 104.3775,263.83122 C101.224125,262.569862 74.1048825,225.35976 74.1048825,225.35976 L81.04233,152.831603 Z" id="Path" fill="#E6E6E6"></path>
            <path d="M55.81515,120.666938 C55.81515,120.666938 56.445825,145.263442 64.013985,146.524807 C71.582145,147.786172 69.0594225,155.985 69.0594225,155.985 C69.0594225,155.985 44.4629175,170.49063 28.06524,155.985 L24.9118425,148.416847 C24.9118425,148.416847 36.2640825,140.218012 31.218645,128.865772 L55.81515,120.666938 Z" id="Path" fill="#FFB8B8"></path>
            <path d="M98.0706825,272.030055 C98.0706825,272.030055 135.280785,341.404815 121.40583,362.847922 C107.530875,384.29103 86.71845,428.438603 83.5650525,428.438603 C80.411655,428.438603 62.75262,419.609085 64.013985,413.932973 C65.27535,408.25686 84.195735,366.00132 89.241165,362.21724 C94.286595,358.43316 91.7638875,348.342285 91.133205,347.71161 C90.5025225,347.080935 69.6900975,313.654905 69.6900975,313.654905 C69.6900975,313.654905 70.32078,366.631995 67.7980575,374.83083 C65.275335,383.029665 68.42874,441.682875 65.2753425,444.20559 C62.121945,446.728305 47.616315,451.14309 45.0935925,447.358988 C42.57087,443.574885 35.0027175,386.183063 40.048155,372.93879 L30.588,282.12093 L98.0706825,272.030055 Z" id="Path" fill="#2F2E41"></path>
            <path d="M64.014,440.421518 L79.7809875,469.432778 C79.7809875,469.432778 102.485452,485.830447 86.7184875,488.35317 C70.9515225,490.875892 61.4913,484.56909 61.4913,484.56909 L47.6163525,474.478215 L47.6163525,445.466955 L64.014,440.421518 Z" id="Path" fill="#2F2E41"></path>
            <path d="M85.4570925,424.023848 L77.25825,443.574915 C77.25825,443.574915 74.1048525,451.77375 77.25825,453.66579 C80.4116475,455.55783 89.2411575,466.91004 83.565045,468.17142 C82.4231965,468.395127 81.2627708,468.510484 80.0992275,468.515955 C70.5484641,468.676689 61.3459555,464.931827 54.621225,458.147955 L49.50834,453.03507 C49.50834,453.03507 67.02234,412.704195 66.7795275,413.003228 C66.536715,413.30226 85.4570925,424.023848 85.4570925,424.023848 Z" id="Path" fill="#2F2E41"></path>
            <circle id="Oval" fill="#FFB8B8" cx="40.048155" cy="114.36015" r="21.4431075"></circle>
            <path d="M27.7499025,144.31743 L34.3720425,150.939563 C34.3720425,150.939563 54.5537925,158.507715 64.013985,150.939563 C64.013985,150.939563 60.545235,143.686748 60.545235,144.31743 C60.545235,144.948112 87.9798,149.047523 90.502485,160.399755 C93.02517,171.751988 88.610445,191.303063 88.610445,191.303063 C88.610445,191.303063 106.269473,274.55277 99.331995,276.44481 C92.3945175,278.33685 27.43452,294.103838 28.065195,282.12093 C28.69587,270.138023 23.019765,220.945005 23.019765,220.945005 L0.945975,178.689465 C0.945975,178.689465 4.0993725,164.814518 11.667525,160.399755 C19.2356775,155.984993 27.7499025,144.31743 27.7499025,144.31743 Z" id="Path" fill="#E6E6E6"></path>
            <path d="M55.81515,267.615293 L64.013985,272.66073 C64.013985,272.66073 95.5479675,294.103838 79.1502975,297.887918 C62.7526275,301.671998 53.2924275,282.751605 53.2924275,282.751605 L46.9856325,275.183453 L55.81515,267.615293 Z" id="Path" fill="#FFB8B8"></path>
            <path d="M9.144855,174.905385 L3.468735,180.581505 C3.468735,180.581505 -0.3153375,233.558595 7.252815,244.280145 C14.8209675,255.001695 49.5083475,284.012962 51.4003875,282.12093 C53.2924275,280.228897 65.2753425,270.76869 62.75262,269.507332 C60.2298975,268.245975 26.688555,233.199472 26.688555,233.199472 L29.326605,184.365585 L9.144855,174.905385 Z" id="Path" fill="#000000" opacity="0.1"></path>
            <path d="M6.6221325,173.013352 L0.94602,178.689465 C0.94602,178.689465 -2.83806,231.666555 4.7301,242.388112 C12.29826,253.10967 46.9856325,282.12093 48.8776725,280.22889 C50.7697125,278.33685 62.75262,268.876657 60.229905,267.615293 C57.70719,266.353927 24.1658325,231.307402 24.1658325,231.307402 L26.8038825,182.473515 L6.6221325,173.013352 Z" id="Path" fill="#E6E6E6"></path>
            <path d="M48.9165525,83.9015475 C48.9165525,83.9015475 56.2056375,81.2509725 66.1452975,86.88345 L60.8441475,88.2087375 C60.8441475,88.2087375 68.7958725,88.8713775 69.78984,99.473685 L66.1452975,99.473685 C66.1452975,99.473685 68.4645525,108.750697 66.1452975,111.401273 L64.65435,108.585023 L60.34716,117.199403 L59.3532,112.89222 L57.365265,113.554868 L56.0399775,106.597118 C56.0399775,106.597118 52.726755,111.566948 50.07618,111.898268 L50.07618,107.591085 C50.07618,107.591085 42.7871025,115.87413 40.4678475,115.54281 L43.7810625,110.904308 L39.14256,111.898268 L41.1304875,108.585053 L29.2029,111.898253 L31.853475,108.585038 L23.57043,111.235613 L19.5945675,112.89222 C19.5945675,112.89222 13.9620675,99.970665 21.913815,91.0249725 C29.8655625,82.07928 41.461815,80.091345 48.9165525,83.9015475 Z" id="Path" fill="#2F2E41"></path>
            <rect id="Rectangle" fill="#E6E6E6" x="166.41405" y="51.7432425" width="482.896208" height="309.268215"></rect>
            <rect id="Rectangle" fill="#FFFFFF" x="180.22236" y="90.53319" width="455.279595" height="252.181935"></rect>
            <rect id="Rectangle" fill="#6C63FF" x="166.20786" y="51.469485" width="482.896207" height="20.5152"></rect>
            <circle id="Oval" fill="#FFFFFF" cx="181.45311" cy="61.9579425" r="3.802335"></circle>
            <circle id="Oval" fill="#FFFFFF" cx="195.885818" cy="61.9579425" r="3.802335"></circle>
            <circle id="Oval" fill="#FFFFFF" cx="210.318525" cy="61.9579425" r="3.802335"></circle>
            <rect id="Rectangle" fill="#E6E6E6" x="221.590748" y="116.699115" width="116.985405" height="199.85007"></rect>
            <rect id="Rectangle" fill="#6C63FF" x="358.770067" y="116.699115" width="97.4878425" height="55.0109925"></rect>
            <rect id="Rectangle" fill="#E6E6E6" x="358.770067" y="187.02963" width="97.4878425" height="59.1890475"></rect>
            <rect id="Rectangle" fill="#E6E6E6" x="358.770067" y="261.538192" width="97.4878425" height="55.0109925"></rect>
            <rect id="Rectangle" fill="#E6E6E6" x="477.148155" y="116.699115" width="116.985405" height="87.09357"></rect>
            <rect id="Rectangle" fill="#6C63FF" x="477.148155" y="229.455623" width="116.985405" height="87.09357"></rect>
            <polygon id="Path" fill="#3F3D56" points="408.51825 141.56625 406.99125 141.1605 440.31675 15.795 633.62025 15.795 633.62025 17.3745 441.531 17.3745"></polygon>
            <path d="M649.415438,33.1691175 C640.256037,33.1691175 632.830875,25.743956 632.830875,16.584555 C632.830875,7.42515405 640.256037,-7.5e-06 649.415438,-7.5e-06 C658.574838,-7.5e-06 666,7.42515405 666,16.584555 C665.989597,25.7396434 658.570526,33.1587144 649.415438,33.1691175 L649.415438,33.1691175 Z M649.415438,1.5794775 C643.346446,1.5794775 637.875045,5.23534494 635.552541,10.8423616 C633.230037,16.4493783 634.513807,22.9033347 638.805233,27.1947599 C643.096658,31.4861851 649.550614,32.769956 655.157631,30.447452 C660.764648,28.124948 664.420515,22.6535467 664.420515,16.584555 C664.411108,8.30137917 657.698613,1.58888452 649.415438,1.5794775 L649.415438,1.5794775 Z" id="Shape" fill="#3F3D56"></path>
            <circle id="Oval" fill="#6C63FF" cx="649.415438" cy="16.5845625" r="6.317925"></circle>
            <polygon id="Path" fill="#3F3D56" points="504.71025 398.0295 311.406 398.0295 311.406 396.45 503.496 396.45 536.50875 272.2575 538.03575 272.66325"></polygon>
            <path d="M295.61145,413.824305 C286.452049,413.824305 279.026887,406.399143 279.026887,397.239743 C279.026887,388.080342 286.452049,380.65518 295.61145,380.65518 C304.770851,380.65518 312.196012,388.080342 312.196012,397.239743 C312.185609,406.394831 304.766538,413.813902 295.61145,413.824305 Z M295.61145,382.234665 C289.542458,382.234665 284.071057,385.890532 281.748553,391.497549 C279.426049,397.104566 280.70982,403.558522 285.001245,407.849947 C289.29267,412.141373 295.746627,413.425143 301.353643,411.102639 C306.96066,408.780135 310.616528,403.308734 310.616528,397.239743 C310.60712,388.956567 303.894626,382.244072 295.61145,382.234665 L295.61145,382.234665 Z" id="Shape" fill="#3F3D56"></path>
            <circle id="Oval" fill="#6C63FF" cx="295.61145" cy="397.23975" r="6.317925"></circle>
        </g>
    </g>
</svg>