<?xml version="1.0" encoding="UTF-8"?>
<svg width="883px" height="464px" viewBox="0 0 883 464" version="1.1" xmlns="http://www.w3.org/2000/svg" xmlns:xlink="http://www.w3.org/1999/xlink">
    <title>developer-activity</title>
    <g id="Page-1" stroke="none" stroke-width="1" fill="none" fill-rule="evenodd">
        <g id="developer-activity" fill-rule="nonzero">
            <path d="M882.751628,297.1725 C882.760598,309.750024 880.981855,322.268569 877.464303,334.3725 C874.064534,346.041229 869.063098,357.211665 862.594904,367.5825 C862.594904,405.1575 836.498221,437.6325 798.618678,453.0825 C782.79015,459.473617 765.810665,462.737078 748.670769,462.684471 L167.575889,462.684471 C136.517596,462.684471 107.735625,454.5375 84.1313221,440.6625 C77.3759399,436.70982 70.9676356,432.222094 64.9716346,427.245 C38.7360577,405.33 22.47,375.045 22.47,341.595 C7.74577697,319.557634 -0.0616887668,293.831566 -0.00107562766,267.555 C-0.00107562766,212.535 33.481226,165.225 81.4460337,144.3375 C87.8152429,141.565198 94.3965331,139.278309 101.130433,137.4975 C103.512212,136.8675 105.919712,136.3025 108.352933,135.8025 C114.839365,134.45991 121.418557,133.582546 128.037332,133.1775 C130.429399,133.0325 132.834327,132.95 135.252115,132.93 L136.579327,132.93 C139.249183,132.93 141.895889,133.02 144.527163,133.17 L145.391394,131.745 C146.451106,130.025 147.536538,128.3225 148.647692,126.6375 C150.653942,123.5675 152.757933,120.5425 154.959663,117.5625 C157.264279,114.4175 159.669207,111.3225 162.174447,108.2775 L162.814904,107.5275 C164.234712,105.8075 165.685385,104.1075 167.166923,102.4275 C171.796731,97.1825 176.68375,92.095 181.827981,87.165 C237.470553,34.155 324.642115,0.03 422.639712,0.03 C498.892644,0.03 568.594399,20.6925 621.983798,54.8325 C642.209757,43.7074339 665.058036,37.8699736 688.298077,37.89 C763.717644,37.89 824.877404,98.1675 824.877404,172.5225 C824.866175,177.227183 824.608631,181.928262 824.105769,186.6075 C860.999453,211.991761 882.876706,253.238077 882.751628,297.1725 Z" id="Path" fill="#6C63FF" opacity="0.1"></path>
            <path d="M181.843413,87.135 L181.843413,102.3975 L167.182356,102.3975 C171.776154,97.1575 176.663173,92.07 181.843413,87.135 Z" id="Path" fill="#6C63FF" opacity="0.2"></path>
            <rect id="Rectangle" fill="#6C63FF" opacity="0.2" x="189.065913" y="83.265" width="19.684399" height="19.1325"></rect>
            <rect id="Rectangle" fill="#6C63FF" opacity="0.2" x="215.965096" y="83.265" width="19.684399" height="19.1325"></rect>
            <rect id="Rectangle" fill="#6C63FF" opacity="0.2" x="242.871995" y="83.265" width="19.684399" height="19.1325"></rect>
            <rect id="Rectangle" fill="#6C63FF" opacity="0.2" x="269.771178" y="83.265" width="19.684399" height="19.1325"></rect>
            <rect id="Rectangle" fill="#6C63FF" opacity="0.2" x="296.678077" y="83.265" width="19.684399" height="19.1325"></rect>
            <rect id="Rectangle" fill="#6C63FF" x="323.584976" y="83.265" width="19.684399" height="19.1325"></rect>
            <rect id="Rectangle" fill="#6C63FF" opacity="0.2" x="350.484159" y="83.265" width="19.684399" height="19.1325"></rect>
            <rect id="Rectangle" fill="#6C63FF" opacity="0.2" x="377.391058" y="83.265" width="19.684399" height="19.1325"></rect>
            <rect id="Rectangle" fill="#6C63FF" opacity="0.2" x="404.29024" y="83.265" width="19.684399" height="19.1325"></rect>
            <rect id="Rectangle" fill="#6C63FF" x="431.197139" y="83.265" width="19.684399" height="19.1325"></rect>
            <rect id="Rectangle" fill="#6C63FF" opacity="0.2" x="458.104038" y="83.265" width="19.684399" height="19.1325"></rect>
            <rect id="Rectangle" fill="#6C63FF" opacity="0.2" x="485.003221" y="83.265" width="19.684399" height="19.1325"></rect>
            <rect id="Rectangle" fill="#6C63FF" opacity="0.2" x="511.91012" y="83.265" width="19.684399" height="19.1325"></rect>
            <rect id="Rectangle" fill="#6C63FF" opacity="0.2" x="538.817019" y="83.265" width="19.684399" height="19.1325"></rect>
            <rect id="Rectangle" fill="#6C63FF" opacity="0.2" x="565.716202" y="83.265" width="19.684399" height="19.1325"></rect>
            <rect id="Rectangle" fill="#6C63FF" opacity="0.2" x="592.623101" y="83.265" width="19.684399" height="19.1325"></rect>
            <rect id="Rectangle" fill="#6C63FF" x="619.522284" y="83.265" width="19.684399" height="19.1325"></rect>
            <rect id="Rectangle" fill="#6C63FF" x="646.429183" y="83.265" width="19.684399" height="19.1325"></rect>
            <rect id="Rectangle" fill="#6C63FF" opacity="0.2" x="673.336082" y="83.265" width="19.684399" height="19.1325"></rect>
            <rect id="Rectangle" fill="#6C63FF" opacity="0.2" x="700.235264" y="83.265" width="19.684399" height="19.1325"></rect>
            <rect id="Rectangle" fill="#6C63FF" x="727.142163" y="83.265" width="19.684399" height="19.1325"></rect>
            <rect id="Rectangle" fill="#6C63FF" x="754.041346" y="83.265" width="19.684399" height="19.1325"></rect>
            <path d="M154.944231,117.555 L154.944231,126.63 L148.63226,126.63 C150.63851,123.54 152.7425,120.515 154.944231,117.555 Z" id="Path" fill="#6C63FF"></path>
            <rect id="Rectangle" fill="#6C63FF" opacity="0.2" x="162.159014" y="107.4975" width="19.684399" height="19.1325"></rect>
            <rect id="Rectangle" fill="#6C63FF" x="189.065913" y="107.4975" width="19.684399" height="19.1325"></rect>
            <rect id="Rectangle" fill="#6C63FF" opacity="0.2" x="215.965096" y="107.4975" width="19.684399" height="19.1325"></rect>
            <rect id="Rectangle" fill="#6C63FF" opacity="0.7" x="242.871995" y="107.4975" width="19.684399" height="19.1325"></rect>
            <rect id="Rectangle" fill="#6C63FF" opacity="0.2" x="269.771178" y="107.4975" width="19.684399" height="19.1325"></rect>
            <rect id="Rectangle" fill="#6C63FF" opacity="0.4" x="296.678077" y="107.4975" width="19.684399" height="19.1325"></rect>
            <rect id="Rectangle" fill="#6C63FF" x="323.584976" y="107.4975" width="19.684399" height="19.1325"></rect>
            <rect id="Rectangle" fill="#6C63FF" opacity="0.4" x="350.484159" y="107.4975" width="19.684399" height="19.1325"></rect>
            <rect id="Rectangle" fill="#6C63FF" opacity="0.2" x="377.391058" y="107.4975" width="19.684399" height="19.1325"></rect>
            <rect id="Rectangle" fill="#6C63FF" opacity="0.4" x="404.29024" y="107.4975" width="19.684399" height="19.1325"></rect>
            <rect id="Rectangle" fill="#6C63FF" x="431.197139" y="107.4975" width="19.684399" height="19.1325"></rect>
            <rect id="Rectangle" fill="#6C63FF" opacity="0.4" x="458.104038" y="107.4975" width="19.684399" height="19.1325"></rect>
            <rect id="Rectangle" fill="#6C63FF" opacity="0.4" x="485.003221" y="107.4975" width="19.684399" height="19.1325"></rect>
            <rect id="Rectangle" fill="#6C63FF" opacity="0.2" x="511.91012" y="107.4975" width="19.684399" height="19.1325"></rect>
            <rect id="Rectangle" fill="#6C63FF" opacity="0.4" x="538.817019" y="107.4975" width="19.684399" height="19.1325"></rect>
            <rect id="Rectangle" fill="#6C63FF" opacity="0.4" x="565.716202" y="107.4975" width="19.684399" height="19.1325"></rect>
            <rect id="Rectangle" fill="#6C63FF" opacity="0.2" x="592.623101" y="107.4975" width="19.684399" height="19.1325"></rect>
            <rect id="Rectangle" fill="#6C63FF" opacity="0.2" x="619.522284" y="107.4975" width="19.684399" height="19.1325"></rect>
            <rect id="Rectangle" fill="#6C63FF" opacity="0.4" x="646.429183" y="107.4975" width="19.684399" height="19.1325"></rect>
            <rect id="Rectangle" fill="#6C63FF" opacity="0.2" x="673.336082" y="107.4975" width="19.684399" height="19.1325"></rect>
            <rect id="Rectangle" fill="#6C63FF" x="700.235264" y="107.4975" width="19.684399" height="19.1325"></rect>
            <rect id="Rectangle" fill="#6C63FF" x="727.142163" y="107.4975" width="19.684399" height="19.1325"></rect>
            <rect id="Rectangle" fill="#6C63FF" x="754.041346" y="107.4975" width="19.684399" height="19.1325"></rect>
            <path d="M101.130433,137.4975 L101.130433,150.87 L81.4460337,150.87 L81.4460337,144.3375 C87.8152429,141.565198 94.3965331,139.278309 101.130433,137.4975 Z" id="Path" fill="#6C63FF" opacity="0.2"></path>
            <polygon id="Path" fill="#6C63FF" opacity="0.2" points="128.037332 133.1775 128.037332 150.87 108.352933 150.87 108.352933 135.8025"></polygon>
            <rect id="Rectangle" fill="#6C63FF" x="135.252115" y="131.7375" width="19.684399" height="19.1325"></rect>
            <rect id="Rectangle" fill="#6C63FF" opacity="0.7" x="162.159014" y="131.7375" width="19.684399" height="19.1325"></rect>
            <rect id="Rectangle" fill="#6C63FF" x="189.065913" y="131.7375" width="19.684399" height="19.1325"></rect>
            <rect id="Rectangle" fill="#6C63FF" opacity="0.7" x="215.965096" y="131.7375" width="19.684399" height="19.1325"></rect>
            <rect id="Rectangle" fill="#6C63FF" opacity="0.7" x="242.871995" y="131.7375" width="19.684399" height="19.1325"></rect>
            <rect id="Rectangle" fill="#6C63FF" opacity="0.2" x="269.771178" y="131.7375" width="19.684399" height="19.1325"></rect>
            <rect id="Rectangle" fill="#6C63FF" opacity="0.4" x="296.678077" y="131.7375" width="19.684399" height="19.1325"></rect>
            <rect id="Rectangle" fill="#6C63FF" opacity="0.4" x="323.584976" y="131.7375" width="19.684399" height="19.1325"></rect>
            <rect id="Rectangle" fill="#6C63FF" x="350.484159" y="131.7375" width="19.684399" height="19.1325"></rect>
            <rect id="Rectangle" fill="#6C63FF" opacity="0.2" x="377.391058" y="131.7375" width="19.684399" height="19.1325"></rect>
            <rect id="Rectangle" fill="#6C63FF" opacity="0.4" x="404.29024" y="131.7375" width="19.684399" height="19.1325"></rect>
            <rect id="Rectangle" fill="#6C63FF" x="431.197139" y="131.7375" width="19.684399" height="19.1325"></rect>
            <rect id="Rectangle" fill="#6C63FF" opacity="0.2" x="458.104038" y="131.7375" width="19.684399" height="19.1325"></rect>
            <rect id="Rectangle" fill="#6C63FF" opacity="0.4" x="485.003221" y="131.7375" width="19.684399" height="19.1325"></rect>
            <rect id="Rectangle" fill="#6C63FF" opacity="0.2" x="511.91012" y="131.7375" width="19.684399" height="19.1325"></rect>
            <rect id="Rectangle" fill="#6C63FF" x="538.817019" y="131.7375" width="19.684399" height="19.1325"></rect>
            <rect id="Rectangle" fill="#6C63FF" opacity="0.2" x="565.716202" y="131.7375" width="19.684399" height="19.1325"></rect>
            <rect id="Rectangle" fill="#6C63FF" opacity="0.7" x="592.623101" y="131.7375" width="19.684399" height="19.1325"></rect>
            <rect id="Rectangle" fill="#6C63FF" opacity="0.7" x="619.522284" y="131.7375" width="19.684399" height="19.1325"></rect>
            <rect id="Rectangle" fill="#6C63FF" opacity="0.4" x="646.429183" y="131.7375" width="19.684399" height="19.1325"></rect>
            <rect id="Rectangle" fill="#6C63FF" opacity="0.2" x="673.336082" y="131.7375" width="19.684399" height="19.1325"></rect>
            <rect id="Rectangle" fill="#6C63FF" x="700.235264" y="131.7375" width="19.684399" height="19.1325"></rect>
            <rect id="Rectangle" fill="#6C63FF" x="727.142163" y="131.7375" width="19.684399" height="19.1325"></rect>
            <rect id="Rectangle" fill="#6C63FF" x="754.041346" y="131.7375" width="19.684399" height="19.1325"></rect>
            <rect id="Rectangle" fill="#6C63FF" opacity="0.2" x="81.4460337" y="155.97" width="19.684399" height="19.1325"></rect>
            <rect id="Rectangle" fill="#6C63FF" opacity="0.2" x="108.352933" y="155.97" width="19.684399" height="19.1325"></rect>
            <rect id="Rectangle" fill="#6C63FF" opacity="0.2" x="135.252115" y="155.97" width="19.684399" height="19.1325"></rect>
            <rect id="Rectangle" fill="#6C63FF" opacity="0.2" x="162.159014" y="155.97" width="19.684399" height="19.1325"></rect>
            <rect id="Rectangle" fill="#6C63FF" x="189.065913" y="155.97" width="19.684399" height="19.1325"></rect>
            <rect id="Rectangle" fill="#6C63FF" opacity="0.7" x="215.965096" y="155.97" width="19.684399" height="19.1325"></rect>
            <rect id="Rectangle" fill="#6C63FF" opacity="0.7" x="242.871995" y="155.97" width="19.684399" height="19.1325"></rect>
            <rect id="Rectangle" fill="#6C63FF" opacity="0.2" x="269.771178" y="155.97" width="19.684399" height="19.1325"></rect>
            <rect id="Rectangle" fill="#6C63FF" opacity="0.2" x="296.678077" y="155.97" width="19.684399" height="19.1325"></rect>
            <rect id="Rectangle" fill="#6C63FF" opacity="0.4" x="323.584976" y="155.97" width="19.684399" height="19.1325"></rect>
            <rect id="Rectangle" fill="#6C63FF" opacity="0.4" x="350.484159" y="155.97" width="19.684399" height="19.1325"></rect>
            <rect id="Rectangle" fill="#6C63FF" x="377.391058" y="155.97" width="19.684399" height="19.1325"></rect>
            <rect id="Rectangle" fill="#6C63FF" opacity="0.2" x="404.29024" y="155.97" width="19.684399" height="19.1325"></rect>
            <rect id="Rectangle" fill="#6C63FF" opacity="0.4" x="431.197139" y="155.97" width="19.684399" height="19.1325"></rect>
            <rect id="Rectangle" fill="#6C63FF" opacity="0.4" x="458.104038" y="155.97" width="19.684399" height="19.1325"></rect>
            <rect id="Rectangle" fill="#6C63FF" opacity="0.4" x="485.003221" y="155.97" width="19.684399" height="19.1325"></rect>
            <rect id="Rectangle" fill="#6C63FF" opacity="0.4" x="511.91012" y="155.97" width="19.684399" height="19.1325"></rect>
            <rect id="Rectangle" fill="#6C63FF" opacity="0.2" x="538.817019" y="155.97" width="19.684399" height="19.1325"></rect>
            <rect id="Rectangle" fill="#6C63FF" opacity="0.2" x="565.716202" y="155.97" width="19.684399" height="19.1325"></rect>
            <rect id="Rectangle" fill="#6C63FF" opacity="0.2" x="592.623101" y="155.97" width="19.684399" height="19.1325"></rect>
            <rect id="Rectangle" fill="#6C63FF" opacity="0.2" x="619.522284" y="155.97" width="19.684399" height="19.1325"></rect>
            <rect id="Rectangle" fill="#6C63FF" opacity="0.7" x="646.429183" y="155.97" width="19.684399" height="19.1325"></rect>
            <rect id="Rectangle" fill="#6C63FF" opacity="0.7" x="673.336082" y="155.97" width="19.684399" height="19.1325"></rect>
            <rect id="Rectangle" fill="#6C63FF" opacity="0.4" x="700.235264" y="155.97" width="19.684399" height="19.1325"></rect>
            <rect id="Rectangle" fill="#6C63FF" opacity="0.2" x="727.142163" y="155.97" width="19.684399" height="19.1325"></rect>
            <rect id="Rectangle" fill="#6C63FF" x="754.041346" y="155.97" width="19.684399" height="19.1325"></rect>
            <rect id="Rectangle" fill="#6C63FF" opacity="0.2" x="81.4460337" y="180.21" width="19.684399" height="19.1325"></rect>
            <rect id="Rectangle" fill="#6C63FF" opacity="0.2" x="108.352933" y="180.21" width="19.684399" height="19.1325"></rect>
            <rect id="Rectangle" fill="#6C63FF" opacity="0.4" x="135.252115" y="180.21" width="19.684399" height="19.1325"></rect>
            <rect id="Rectangle" fill="#6C63FF" opacity="0.2" x="162.159014" y="180.21" width="19.684399" height="19.1325"></rect>
            <rect id="Rectangle" fill="#6C63FF" opacity="0.2" x="189.065913" y="180.21" width="19.684399" height="19.1325"></rect>
            <rect id="Rectangle" fill="#6C63FF" opacity="0.7" x="215.965096" y="180.21" width="19.684399" height="19.1325"></rect>
            <rect id="Rectangle" fill="#6C63FF" opacity="0.7" x="242.871995" y="180.21" width="19.684399" height="19.1325"></rect>
            <rect id="Rectangle" fill="#6C63FF" opacity="0.2" x="269.771178" y="180.21" width="19.684399" height="19.1325"></rect>
            <rect id="Rectangle" fill="#6C63FF" opacity="0.2" x="296.678077" y="180.21" width="19.684399" height="19.1325"></rect>
            <rect id="Rectangle" fill="#6C63FF" opacity="0.4" x="323.584976" y="180.21" width="19.684399" height="19.1325"></rect>
            <rect id="Rectangle" fill="#6C63FF" x="350.484159" y="180.21" width="19.684399" height="19.1325"></rect>
            <rect id="Rectangle" fill="#6C63FF" opacity="0.2" x="377.391058" y="180.21" width="19.684399" height="19.1325"></rect>
            <rect id="Rectangle" fill="#6C63FF" x="404.29024" y="180.21" width="19.684399" height="19.1325"></rect>
            <rect id="Rectangle" fill="#6C63FF" x="431.197139" y="180.21" width="19.684399" height="19.1325"></rect>
            <rect id="Rectangle" fill="#6C63FF" x="458.104038" y="180.21" width="19.684399" height="19.1325"></rect>
            <rect id="Rectangle" fill="#6C63FF" opacity="0.2" x="485.003221" y="180.21" width="19.684399" height="19.1325"></rect>
            <rect id="Rectangle" fill="#6C63FF" x="511.91012" y="180.21" width="19.684399" height="19.1325"></rect>
            <rect id="Rectangle" fill="#6C63FF" opacity="0.2" x="538.817019" y="180.21" width="19.684399" height="19.1325"></rect>
            <rect id="Rectangle" fill="#6C63FF" opacity="0.2" x="565.716202" y="180.21" width="19.684399" height="19.1325"></rect>
            <rect id="Rectangle" fill="#6C63FF" opacity="0.2" x="592.623101" y="180.21" width="19.684399" height="19.1325"></rect>
            <rect id="Rectangle" fill="#6C63FF" opacity="0.2" x="619.522284" y="180.21" width="19.684399" height="19.1325"></rect>
            <rect id="Rectangle" fill="#6C63FF" opacity="0.2" x="646.429183" y="180.21" width="19.684399" height="19.1325"></rect>
            <rect id="Rectangle" fill="#6C63FF" opacity="0.7" x="673.336082" y="180.21" width="19.684399" height="19.1325"></rect>
            <rect id="Rectangle" fill="#6C63FF" opacity="0.2" x="700.235264" y="180.21" width="19.684399" height="19.1325"></rect>
            <rect id="Rectangle" fill="#6C63FF" opacity="0.2" x="727.142163" y="180.21" width="19.684399" height="19.1325"></rect>
            <rect id="Rectangle" fill="#6C63FF" x="754.041346" y="180.21" width="19.684399" height="19.1325"></rect>
            <rect id="Rectangle" fill="#6C63FF" opacity="0.2" x="81.4460337" y="204.4425" width="19.684399" height="19.1325"></rect>
            <rect id="Rectangle" fill="#6C63FF" opacity="0.2" x="108.352933" y="204.4425" width="19.684399" height="19.1325"></rect>
            <rect id="Rectangle" fill="#6C63FF" opacity="0.2" x="135.252115" y="204.4425" width="19.684399" height="19.1325"></rect>
            <rect id="Rectangle" fill="#6C63FF" opacity="0.4" x="162.159014" y="204.4425" width="19.684399" height="19.1325"></rect>
            <rect id="Rectangle" fill="#6C63FF" opacity="0.2" x="189.065913" y="204.4425" width="19.684399" height="19.1325"></rect>
            <rect id="Rectangle" fill="#6C63FF" opacity="0.2" x="215.965096" y="204.4425" width="19.684399" height="19.1325"></rect>
            <rect id="Rectangle" fill="#6C63FF" opacity="0.7" x="242.871995" y="204.4425" width="19.684399" height="19.1325"></rect>
            <rect id="Rectangle" fill="#6C63FF" opacity="0.2" x="269.771178" y="204.4425" width="19.684399" height="19.1325"></rect>
            <rect id="Rectangle" fill="#6C63FF" opacity="0.2" x="296.678077" y="204.4425" width="19.684399" height="19.1325"></rect>
            <rect id="Rectangle" fill="#6C63FF" opacity="0.2" x="323.584976" y="204.4425" width="19.684399" height="19.1325"></rect>
            <rect id="Rectangle" fill="#6C63FF" x="350.484159" y="204.4425" width="19.684399" height="19.1325"></rect>
            <rect id="Rectangle" fill="#6C63FF" opacity="0.2" x="377.391058" y="204.4425" width="19.684399" height="19.1325"></rect>
            <rect id="Rectangle" fill="#6C63FF" x="404.29024" y="204.4425" width="19.684399" height="19.1325"></rect>
            <rect id="Rectangle" fill="#6C63FF" x="431.197139" y="204.4425" width="19.684399" height="19.1325"></rect>
            <rect id="Rectangle" fill="#6C63FF" opacity="0.2" x="458.104038" y="204.4425" width="19.684399" height="19.1325"></rect>
            <rect id="Rectangle" fill="#6C63FF" opacity="0.2" x="485.003221" y="204.4425" width="19.684399" height="19.1325"></rect>
            <rect id="Rectangle" fill="#6C63FF" opacity="0.2" x="511.91012" y="204.4425" width="19.684399" height="19.1325"></rect>
            <rect id="Rectangle" fill="#6C63FF" opacity="0.2" x="538.817019" y="204.4425" width="19.684399" height="19.1325"></rect>
            <rect id="Rectangle" fill="#6C63FF" opacity="0.2" x="565.716202" y="204.4425" width="19.684399" height="19.1325"></rect>
            <rect id="Rectangle" fill="#6C63FF" opacity="0.2" x="592.623101" y="204.4425" width="19.684399" height="19.1325"></rect>
            <rect id="Rectangle" fill="#6C63FF" opacity="0.2" x="619.522284" y="204.4425" width="19.684399" height="19.1325"></rect>
            <rect id="Rectangle" fill="#6C63FF" opacity="0.2" x="646.429183" y="204.4425" width="19.684399" height="19.1325"></rect>
            <rect id="Rectangle" fill="#6C63FF" opacity="0.2" x="673.336082" y="204.4425" width="19.684399" height="19.1325"></rect>
            <rect id="Rectangle" fill="#6C63FF" opacity="0.2" x="700.235264" y="204.4425" width="19.684399" height="19.1325"></rect>
            <rect id="Rectangle" fill="#6C63FF" opacity="0.4" x="727.142163" y="204.4425" width="19.684399" height="19.1325"></rect>
            <rect id="Rectangle" fill="#6C63FF" x="754.041346" y="204.4425" width="19.684399" height="19.1325"></rect>
            <rect id="Rectangle" fill="#6C63FF" opacity="0.7" x="81.4460337" y="228.6825" width="19.684399" height="19.1325"></rect>
            <rect id="Rectangle" fill="#6C63FF" opacity="0.7" x="108.352933" y="228.6825" width="19.684399" height="19.1325"></rect>
            <rect id="Rectangle" fill="#6C63FF" opacity="0.7" x="135.252115" y="228.6825" width="19.684399" height="19.1325"></rect>
            <rect id="Rectangle" fill="#6C63FF" opacity="0.7" x="162.159014" y="228.6825" width="19.684399" height="19.1325"></rect>
            <rect id="Rectangle" fill="#6C63FF" opacity="0.7" x="189.065913" y="228.6825" width="19.684399" height="19.1325"></rect>
            <rect id="Rectangle" fill="#6C63FF" opacity="0.2" x="215.965096" y="228.6825" width="19.684399" height="19.1325"></rect>
            <rect id="Rectangle" fill="#6C63FF" opacity="0.2" x="242.871995" y="228.6825" width="19.684399" height="19.1325"></rect>
            <rect id="Rectangle" fill="#6C63FF" opacity="0.2" x="269.771178" y="228.6825" width="19.684399" height="19.1325"></rect>
            <rect id="Rectangle" fill="#6C63FF" opacity="0.2" x="296.678077" y="228.6825" width="19.684399" height="19.1325"></rect>
            <rect id="Rectangle" fill="#6C63FF" opacity="0.2" x="323.584976" y="228.6825" width="19.684399" height="19.1325"></rect>
            <rect id="Rectangle" fill="#6C63FF" opacity="0.2" x="350.484159" y="228.6825" width="19.684399" height="19.1325"></rect>
            <rect id="Rectangle" fill="#6C63FF" x="377.391058" y="228.6825" width="19.684399" height="19.1325"></rect>
            <rect id="Rectangle" fill="#6C63FF" opacity="0.2" x="404.29024" y="228.6825" width="19.684399" height="19.1325"></rect>
            <rect id="Rectangle" fill="#6C63FF" opacity="0.2" x="431.197139" y="228.6825" width="19.684399" height="19.1325"></rect>
            <rect id="Rectangle" fill="#6C63FF" opacity="0.2" x="458.104038" y="228.6825" width="19.684399" height="19.1325"></rect>
            <rect id="Rectangle" fill="#6C63FF" x="485.003221" y="228.6825" width="19.684399" height="19.1325"></rect>
            <rect id="Rectangle" fill="#6C63FF" opacity="0.2" x="511.91012" y="228.6825" width="19.684399" height="19.1325"></rect>
            <rect id="Rectangle" fill="#6C63FF" opacity="0.2" x="538.817019" y="228.6825" width="19.684399" height="19.1325"></rect>
            <rect id="Rectangle" fill="#6C63FF" opacity="0.2" x="565.716202" y="228.6825" width="19.684399" height="19.1325"></rect>
            <rect id="Rectangle" fill="#6C63FF" opacity="0.2" x="592.623101" y="228.6825" width="19.684399" height="19.1325"></rect>
            <rect id="Rectangle" fill="#6C63FF" opacity="0.2" x="619.522284" y="228.6825" width="19.684399" height="19.1325"></rect>
            <rect id="Rectangle" fill="#6C63FF" opacity="0.2" x="646.429183" y="228.6825" width="19.684399" height="19.1325"></rect>
            <rect id="Rectangle" fill="#6C63FF" opacity="0.2" x="673.336082" y="228.6825" width="19.684399" height="19.1325"></rect>
            <rect id="Rectangle" fill="#6C63FF" opacity="0.2" x="700.235264" y="228.6825" width="19.684399" height="19.1325"></rect>
            <rect id="Rectangle" fill="#6C63FF" opacity="0.2" x="727.142163" y="228.6825" width="19.684399" height="19.1325"></rect>
            <rect id="Rectangle" fill="#6C63FF" x="754.041346" y="228.6825" width="19.684399" height="19.1325"></rect>
            <ellipse id="Oval" fill="#767D9F" cx="566.781058" cy="272.9175" rx="26.906899" ry="26.1525"></ellipse>
            <path d="M565.384399,239.6475 C568.069688,251.0375 570.348582,262.5125 572.221082,274.0725 C572.784375,277.5075 573.285938,281.13 572.005024,284.3775 C570.932452,287.085 568.748726,289.2 567.035697,291.57 C565.322668,293.94 564.026322,296.9775 565.068029,299.6925 C566.109736,302.4075 569.149976,303.8925 572.051322,304.6575 C580.354111,306.8325 589.20476,305.25 597.468966,302.895 C601.210783,301.958716 604.798156,300.514512 608.12524,298.605 C611.628462,296.445 614.498942,293.445 617.137933,290.355 C629.183149,276.1575 637.069255,259.1175 644.49238,242.1825 C634.815755,243.03851 625.306795,239.314772 618.943558,232.1775 C615.903317,228.705 613.673293,223.8675 615.386322,219.6225 C610.362981,222.3 604.398245,222.48 598.989087,224.31 C595.634545,225.555252 592.405655,227.099325 589.343654,228.9225 C585.650096,230.9975 581.977115,233.1125 578.324712,235.2675 C574.150168,237.7125 570.237981,239.8875 565.384399,239.6475 Z" id="Path" fill="#FFB8B8" opacity="0.949695676"></path>
            <path d="M621.659712,259.2825 C616.945024,268.2 610.810529,276.7725 602.052476,282.0825 C593.294423,287.3925 581.503846,288.8325 572.730361,283.5825 C568.409207,281.0175 565.137476,277.1175 561.364183,273.8325 C557.590889,270.5475 552.876202,267.735 547.806562,268.1625 C542.219928,268.635 537.84476,272.8725 534.102332,276.93 C528.423101,283.095 522.936779,289.5225 518.916563,296.82 C511.200216,310.845 509.371442,327.24 509.710962,343.14 C510.050481,359.04 512.419399,374.8575 512.473413,390.7575 C512.550577,410.3175 509.139952,429.72 505.690745,448.9875 C537.404928,445.1925 569.157692,453.4875 600.941322,456.63 C621.281611,458.6625 641.776226,458.6175 662.224543,458.565 C665.820361,458.565 669.647668,458.475 672.641611,456.54 C674.471594,455.242409 675.951489,453.533824 676.955048,451.56 C679.779231,446.4975 680.913534,440.7225 681.700601,435.015 C683.699135,420.6 683.760865,406.005 683.81488,391.455 C683.953774,356.205 684.084952,320.8275 679.478293,285.855 C678.34399,277.2525 676.893317,268.605 673.498125,260.5575 C670.102933,252.51 664.562596,245.1075 656.815385,240.795 C651.838341,238.02 640.302404,233.19 634.437981,235.9875 C627.855937,239.1075 624.815697,253.3125 621.659712,259.2825 Z" id="Path" fill="#767D9F"></path>
            <path d="M624.005481,358.8225 C622.809447,337.0725 617.940433,313.86 628.303486,294.555 C630.84988,289.815 621.713726,283.8975 624.537909,279.3075 C627.984426,273.7113 630.597939,267.66877 632.300553,261.36 C632.886995,259.1925 633.357692,256.8975 632.802115,254.7225 C631.775841,250.755 627.740192,248.3925 624.314135,245.9775 C620.533125,243.3075 618.588606,235.17 617.369423,230.7675 C616.15024,226.365 627.06887,231.6675 631.459471,230.1 C637.555385,227.9325 645.302596,229.2975 651.383077,231.495 C654.778269,232.71 658.466683,232.815 662.085649,232.905 C669.11524,233.085 676.167981,233.2575 683.143558,232.4175 C686.276394,232.035 689.416947,231.4575 692.565216,231.63 C700.597933,232.0725 707.581226,237.4125 712.334495,243.7275 C717.087764,250.0425 720.112572,257.4 724.009327,264.24 C727.257909,269.94 731.131514,275.325 733.901683,281.2575 C736.355481,286.5075 737.906466,292.1475 739.442019,297.7575 L743.400505,312.15 C744.092975,314.208896 744.421709,316.366907 744.372764,318.5325 C744.172139,320.835 743.122716,322.98 742.057861,325.0275 C738.031222,332.616392 733.203085,339.77745 727.651442,346.395 C719.325505,356.3175 709.217091,365.265 704.270913,377.145 C702.341827,381.7725 701.269255,386.6925 700.289279,391.5975 C696.33819,411.215331 693.530113,431.034385 691.878462,450.96 C682.862137,446.904681 673.411045,443.833422 663.698365,441.8025 C658.856749,440.795646 653.962554,440.044545 649.037308,439.5525 C644.72387,439.1175 639.160385,439.9425 635.055288,438.8025 C628.18774,436.905 627.431538,425.6175 626.389832,419.7075 C624.723101,410.295 624.391298,400.7175 624.329567,391.2075 C624.252404,380.3925 624.599639,369.6 624.005481,358.8225 Z" id="Path" fill="#4C4981"></path>
            <path d="M473.189495,318.15 C476.438077,336.15 480.018462,354.2025 487.078918,371.115 C486.901442,371.28 486.723966,371.43 486.54649,371.58 C485.921466,372.0975 485.273293,372.585 484.594255,373.08 C483.012404,374.16 481.276226,375.075 479.964447,376.485 C479.46772,377.024602 479.075582,377.647137 478.806995,378.3225 C478.316767,379.389209 478.316767,380.608291 478.806995,381.675 C475.126298,383.2575 470.851442,382.77 466.723197,382.62 C463.165962,382.4925 459.716755,382.62 456.861707,384.5175 C452.895505,387.1725 451.699471,392.2725 451.059014,396.9075 C450.82238,398.5975 450.619183,400.29 450.449423,401.985 C450.284808,403.56 450.151058,405.14 450.048173,406.725 C449.698395,411.968279 449.649448,417.226428 449.901563,422.475 C449.942716,423.435 449.996731,424.395 450.063606,425.355 C437.455096,425.0625 425.965457,418.6725 415.093125,412.4625 C412.608462,411.045 410.046635,409.5525 408.433918,407.2125 C406.947921,404.914344 406.318692,402.189999 406.651442,399.495 C406.651442,399.1125 406.720889,398.745 406.774904,398.355 C407.120481,396.129377 407.712947,393.94666 408.541947,391.845 C411.943541,382.893033 416.95766,374.601163 423.349615,367.3575 C426.112067,364.2225 429.221755,361.155 430.510385,357.2175 C431.073678,355.5 431.282019,353.6775 431.853029,351.9675 C434.414856,344.5575 443.659038,341.055 446.82274,333.8625 C447.594375,332.145 447.949327,330.2625 448.906154,328.6125 C449.767539,327.241205 450.878846,326.03398 452.185601,325.05 C452.748894,324.5925 453.335337,324.15 453.914062,323.7075 C459.336082,319.5775 464.560048,315.215 469.585962,310.62 C470.522212,309.765 471.448173,308.9 472.363846,308.025 C472.241585,311.419545 472.518596,314.816557 473.189495,318.15 L473.189495,318.15 Z" id="Path" fill="#4C4981"></path>
            <path d="M550.947115,264.915 C549.835962,266.055 548.632212,267.1275 547.451611,268.1925 L547.13524,268.47 L545.885192,269.595 C543.616337,271.498277 541.652722,273.720296 540.059351,276.1875 L539.928173,276.3975 C535.992837,283.245 537.451226,291.675 538.546947,299.4525 C539.905999,309.144545 540.517295,318.921819 540.375721,328.7025 C540.175096,342.2025 538.539231,355.6125 538.508365,369.0975 C538.508365,372.1575 538.577813,375.21 538.716707,378.27 C538.940481,383.2425 539.326298,388.2075 539.789279,393.1725 C540.290841,398.6175 540.892716,404.055 541.45601,409.4925 C541.903558,413.7 542.327957,417.9 542.682909,422.1 C542.860385,424.275 543.030144,426.4425 543.169038,428.6175 C543.331082,431.1675 543.46226,433.725 543.539423,436.275 L543.539423,436.275 C543.593438,437.895 543.624303,439.5075 543.624303,441.1275 C543.624303,442.05 543.624303,442.965 543.624303,443.88 C543.624303,445.635 543.575433,447.385 543.477692,449.13 C543.374808,451.375 543.217909,453.625 543.006995,455.88 C542.767788,458.3325 542.343389,461.01 540.56863,462.735 C540.460601,462.84 540.344856,462.9375 540.229111,463.035 L537.729014,462.735 C520.494486,460.72951 503.095136,460.427968 485.798005,461.835 C486.176106,459.3 486.523341,456.7725 486.862861,454.23 C487.017188,453.03 487.171514,451.8225 487.318125,450.615 C487.487885,449.235 487.649928,447.855 487.804255,446.475 C487.981731,444.975 488.143774,443.475 488.298101,441.975 C488.699351,438.11 489.051731,434.2425 489.35524,430.3725 C489.802788,424.7275 490.142308,419.0725 490.373798,413.4075 C490.486971,410.7025 490.574423,407.995 490.636154,405.285 C490.723606,401.925 490.76476,398.5625 490.759615,395.1975 C490.759615,391.9275 490.731322,388.6525 490.674736,385.3725 C490.674736,384.2925 490.628438,383.2125 490.535841,382.14 C490.469411,381.174321 490.332747,380.214423 490.126875,379.2675 C489.553924,377.084052 488.779139,374.955395 487.811971,372.9075 C487.642212,372.5175 487.480168,372.1575 487.318125,371.745 C487.225529,371.5425 487.140649,371.3325 487.055769,371.13 C491.500385,367.2825 494.664087,362.13 497.704327,357.06 C502.635072,348.8925 507.681563,340.365 508.507212,330.93 C509.332861,321.495 504.510144,310.8975 495.235096,308.0175 C492.711851,307.2675 490.041995,307.0575 487.441587,306.615 C484.987788,306.195 479.871851,305.2425 477.032236,303.5325 C475.488966,305.0725 473.945697,306.585 472.402428,308.07 C472.496029,305.804245 473.065877,303.581103 474.076875,301.5375 L475.172596,301.59 C475.083321,301.349761 475.041436,301.095319 475.049135,300.84 C475.049135,300.0375 475.620144,299.13 476.839327,298.125 C480.473726,295.125 486.191538,294.4575 488.483293,290.4 C489.44012,288.7125 489.602163,286.7025 490.373798,284.9325 C492.588389,279.885 498.946659,278.025 502.773966,273.99 C506.601274,269.955 507.558101,264.24 510.652356,259.74 C512.963689,256.453841 516.169647,253.857115 519.911971,252.24 C520.220625,252.0975 520.536995,251.955 520.853365,251.8275 C527.257933,249.165 534.86625,248.5575 541.502308,248.571722 C544.079567,248.571722 550.761923,248.6475 554.033654,249.915 C554.564297,250.099277 555.050225,250.387765 555.461178,250.7625 C558.948966,254.4525 553.524375,262.245 550.947115,264.915 Z" id="Path" fill="#4C4981"></path>
            <path d="M474.339231,301.0125 C486.379727,297.489382 499.370796,298.805015 510.405433,304.665 C515.961202,307.665 520.945962,311.85 524.001635,317.25 C528.592861,325.35 528.392236,335.115 528.068149,344.3625 C527.906106,348.99 527.697764,353.7825 525.598918,357.9375 C523.168269,362.745 518.58476,366.045 513.908654,368.745 C510.979295,370.56151 507.769932,371.911047 504.402115,372.7425 C499.216731,373.8375 493.830721,372.9075 488.606755,371.9925 C482.927524,370.9725 476.831611,369.7425 472.888558,365.6325 C470.573654,363.2475 469.308173,360.15 468.058125,357.12 C466.262788,352.745 464.462308,348.375 462.656683,344.01 C459.531563,336.4275 458.474423,330.12 462.602668,322.7325 C464.47774,319.365 466.769495,316.215 468.621418,312.825 C469.54738,311.1 472.865409,301.455 474.339231,301.0125 Z" id="Path" fill="#4C4981"></path>
            <path d="M798.641827,430.665 L798.641827,453.09 C782.813299,459.481117 765.833814,462.744578 748.693918,462.69 L540.591779,462.69 C540.48375,462.795 540.368005,462.8925 540.25226,462.99 L537.752163,462.69 L167.575889,462.69 C136.517596,462.69 107.735625,454.545 84.1313221,440.67 L84.1313221,406.4325 L262.162861,386.46 L262.301755,386.46 L365.978582,394.995 L392.808317,397.245 L406.744038,398.3925 L435.58774,400.77 L450.426274,401.9925 L472.032043,403.7775 L475.072284,404.025 L490.64387,405.3075 L511.771226,406.995 L541.479159,409.44 L591.002668,413.5275 L625.841971,416.4 L683.050962,421.1175 L693.93101,422.01 L695.103894,422.1075 L696.122452,422.19 L710.490288,423.375 L726.2625,424.68 L728.091274,424.83 L798.641827,430.665 Z" id="Path" fill="#504F60"></path>
            <polygon id="Path" fill="#9C9CA1" points="589.528846 429.84 366.418413 392.8275 357.768389 435.345 460.040841 447.2475 491.53125 451.08 578.154952 434.4975"></polygon>
            <path d="M474.038293,448.95 L585.817284,428.5275 C586.949615,428.316825 588.119545,428.609372 589.006687,429.325026 C589.893828,430.04068 590.405212,431.104442 590.400878,432.225 L590.400878,432.225 C590.405827,434.036663 589.077608,435.592783 587.244808,435.9225 L478.081659,455.79 L474.038293,448.95 Z" id="Path" fill="#9C9CA1"></path>
            <path d="M522.527812,384.7275 C526.007885,384.4125 529.534255,383.88 532.667091,382.38 C536.525264,380.5125 539.526923,377.295 543.099591,374.925 C550.954832,369.675 561.464495,368.97 570.469471,371.985 C579.474447,375 586.990168,381.4575 592.252716,389.1675 C595.748221,394.305 598.371779,400.86 595.902548,406.53 C595.055383,408.26319 593.987288,409.885926 592.723413,411.36 L586.287981,419.535 C585.065425,421.253485 583.594495,422.79179 581.920529,424.1025 C579.513029,425.805 576.519087,426.5025 573.571442,426.9225 C565.739351,428.0325 557.768365,427.4025 549.874543,427.9125 C536.316923,428.79 523.075673,433.035 509.487188,432.8925 C501.678245,432.81 493.969615,431.28 486.338149,429.75 L452.563702,423 C446.683846,421.83 440.040072,420.12 437.269904,414.9375 C436.027572,412.605 435.796082,409.905 435.649471,407.28 C435.248221,400.05 435.649471,392.01 440.80399,386.7975 C445.649856,381.9075 453.312187,380.3625 459.099447,376.7475 C466.183053,372.315 468.521106,373.7475 475.990529,377.0775 C490.562664,383.491857 506.595945,386.127477 522.527812,384.7275 Z" id="Path" fill="#AE6E79"></path>
            <path d="M522.527812,384.7275 C526.007885,384.4125 529.534255,383.88 532.667091,382.38 C536.525264,380.5125 539.526923,377.295 543.099591,374.925 C550.954832,369.675 561.464495,368.97 570.469471,371.985 C579.474447,375 586.990168,381.4575 592.252716,389.1675 C595.748221,394.305 598.371779,400.86 595.902548,406.53 C595.055383,408.26319 593.987288,409.885926 592.723413,411.36 L586.287981,419.535 C585.065425,421.253485 583.594495,422.79179 581.920529,424.1025 C579.513029,425.805 576.519087,426.5025 573.571442,426.9225 C565.739351,428.0325 557.768365,427.4025 549.874543,427.9125 C536.316923,428.79 523.075673,433.035 509.487188,432.8925 C501.678245,432.81 493.969615,431.28 486.338149,429.75 L452.563702,423 C446.683846,421.83 440.040072,420.12 437.269904,414.9375 C436.027572,412.605 435.796082,409.905 435.649471,407.28 C435.248221,400.05 435.649471,392.01 440.80399,386.7975 C445.649856,381.9075 453.312187,380.3625 459.099447,376.7475 C466.183053,372.315 468.521106,373.7475 475.990529,377.0775 C490.562664,383.491857 506.595945,386.127477 522.527812,384.7275 Z" id="Path" fill="#FFB8B8" opacity="0.754133358"></path>
            <path d="M658.158029,374.445 C648.682356,378.0075 639.152668,381.585 629.229447,383.7075 C612.593005,387.27 595.184928,386.7075 578.679663,390.78 C569.960192,392.94 561.294736,396.42 552.336058,395.715 C548.331274,395.4 544.465385,394.215 540.56863,393.315 C518.677356,388.065 493.792139,389.7675 476.013678,403.2675 C469.933197,407.88 464.956154,413.6325 460.442091,419.7675 C458.486339,422.450444 457.864724,425.841834 458.74688,429.016185 C459.629037,432.190537 461.922885,434.816511 465.002452,436.1775 C471.916359,439.267905 479.322476,441.188004 486.901442,441.855 C497.033005,442.725 507.210865,441.33 517.288413,439.935 C532.242692,437.8725 547.204688,435.8025 562.120385,433.485 C567.475529,432.6525 572.830673,431.79 578.216683,431.13 C616.975889,426.3675 656.437284,432.1575 695.296803,428.1825 C699.224423,427.7775 703.22149,427.2525 706.794159,425.625 C715.837716,421.5 720.313197,410.625 718.445841,401.07 C716.578486,391.515 709.371418,383.5725 700.698245,378.6975 C693.429447,374.595 685.589639,372.9375 677.495192,371.1975 C669.979471,369.495 665.395962,371.745 658.158029,374.445 Z" id="Path" fill="#FFB8B8"></path>
            <path d="M741.286226,317.325 C745.561082,322.77 746.471611,330.075 746.00863,336.8925 C745.545649,343.71 743.878918,350.4525 743.631995,357.3 C743.292476,366.69 745.622813,376.05 745.229279,385.41 C744.95149,391.9575 743.354207,398.3775 741.463702,404.6625 C739.233678,412.08 736.008245,420.0525 728.963221,423.615 C719.61101,428.3475 699.996058,425.685 690.157716,429.39 C691.052812,423.9675 699.633389,416.115 700.528486,410.6925 C701.145793,406.9425 701.770817,403.0875 701.107212,399.33 C700.258413,394.5375 697.364784,390.285 693.93101,386.745 C688.467837,381.1125 681.337933,376.875 673.505841,375.495 C665.67375,374.115 646.49863,375.2475 640.232957,380.055 C639.461322,375.09 653.813726,370.305 658.860216,369.2325 C661.375745,368.685 664.261659,368.9925 666.275625,367.44 C670.133798,364.5 667.332764,358.6425 667.517957,353.94 C667.664567,350.19 669.91774,346.755 670.373005,343.005 C671.144639,337.005 667.116707,330.8925 668.698558,325.005 C669.285,322.83 670.589063,320.9175 671.491875,318.8475 C674.238894,312.51 673.035144,305.28 671.569038,298.545 C670.65851,294.315 669.77113,289.545 672.194063,285.9375 C674.439519,282.57 680.813221,294.5625 684.895168,294.0075 C698.375625,292.17 710.575168,282.4575 721.462933,290.4075 C727.010986,294.4575 727.736322,298.6575 729.950913,304.44 C732.103774,309.945 737.682692,312.765 741.286226,317.325 Z" id="Path" fill="#000000" opacity="0.1"></path>
            <path d="M743.60113,317.325 C747.875986,322.77 748.786514,330.075 748.323534,336.8925 C747.860553,343.71 746.193822,350.4525 745.946899,357.3 C745.60738,366.69 747.937716,376.05 747.544183,385.41 C747.266394,391.9575 745.669111,398.3775 743.778606,404.6625 C741.548582,412.08 738.323149,420.0525 731.278125,423.615 C721.925913,428.3475 702.310962,425.685 692.47262,429.39 C693.367716,423.9675 701.948293,416.115 702.843389,410.6925 C703.460697,406.9425 704.085721,403.0875 703.422115,399.33 C702.573317,394.5375 699.679688,390.285 696.245913,386.745 C690.78274,381.1125 683.652837,376.875 675.820745,375.495 C667.988654,374.115 648.813534,375.2475 642.547861,380.055 C641.776226,375.09 656.12863,370.305 661.17512,369.2325 C663.690649,368.685 666.576563,368.9925 668.590529,367.44 C672.448702,364.5 669.647668,358.6425 669.832861,353.94 C669.979471,350.19 672.232644,346.755 672.687909,343.005 C673.459543,337.005 669.431611,330.8925 671.013462,325.005 C671.599904,322.83 672.903966,320.9175 673.806779,318.8475 C676.553798,312.51 675.350048,305.28 673.883942,298.545 C672.973413,294.315 672.086034,289.545 674.508966,285.9375 C676.754423,282.57 681.145024,281.295 685.226971,280.7325 C698.894036,278.935711 712.741909,282.408292 723.808702,290.4075 C729.356755,294.4575 730.082091,298.6575 732.296683,304.44 C734.418678,309.945 739.997596,312.765 743.60113,317.325 Z" id="Path" fill="#4C4981"></path>
            <path d="M233.033654,281.79 L274.987428,432.495 C276.04143,436.275825 279.394372,439.026951 283.405962,439.4025 L472.240385,457.035 C475.363231,457.327686 478.438252,456.130617 480.489832,453.823589 C482.541412,451.516561 483.314887,448.385946 482.564856,445.425 L436.621731,263.64 C435.492819,259.177977 431.212008,256.16204 426.497885,256.5075 L241.621947,269.9475 C238.748013,270.164527 236.123269,271.615654 234.462507,273.905698 C232.801745,276.195743 232.277909,279.086231 233.033654,281.79 Z" id="Path" fill="#9C9CA1"></path>
            <ellipse id="Oval" fill="#FFFFFF" cx="607.361322" cy="290.76" rx="20.7569712" ry="20.4375"></ellipse>
            <path d="M624.406731,253.4775 C624.406731,253.4775 628.781899,266.1225 615.872452,271.44 L614.221154,274.245 L622.307885,282 C622.307885,282 632.277404,264.3225 631.197115,258.045 C631.197115,258.045 629.653846,251.67 624.406731,253.4775 Z" id="Path" fill="#FFFFFF"></path>
            <ellipse id="Oval" fill="#6C63FF" cx="609.745673" cy="291.7425" rx="20.0162019" ry="19.455"></ellipse>
            <path d="M631.297428,260.9175 L628.118293,255.8175 L623.488486,255.18 C624.476178,238.3875 619.992981,233.385 619.992981,233.385 L618.951274,233.2875 L614.414062,232.86 L605.879784,224.25 L605.879784,221.805 C617.870986,223.1925 624.499327,228.7275 628.079712,235.215 C634.407115,246.6 631.297428,260.9175 631.297428,260.9175 Z" id="Path" fill="#6C63FF"></path>
            <path d="M618.989856,230.1975 L618.989856,233.2875 L614.452644,232.86 L605.918365,224.25 C605.918365,224.25 619.121034,227.1225 618.989856,230.1975 Z" id="Path" stroke="#4C4981" fill="#000000" opacity="0.1"></path>
            <path d="M631.297428,260.9175 L628.118293,255.8175 L628.118293,235.245 C634.407115,246.6 631.297428,260.9175 631.297428,260.9175 Z" id="Path" stroke="#4C4981" fill="#000000" opacity="0.1"></path>
            <ellipse id="Oval" fill="#FFFFFF" transform="translate(562.603809, 282.644523) rotate(-30.000000) translate(-562.603809, -282.644523) " cx="562.603809" cy="282.644523" rx="11.0594452" ry="19.8828251"></ellipse>
            <path d="M565.608173,280.995 C571.217957,290.4375 578.100938,296.745 572.776659,299.745 C567.45238,302.745 551.942524,301.245 546.33274,291.795 C540.722957,282.345 545.815745,269.295 551.140024,266.295 C556.464303,263.295 559.990673,271.53 565.608173,280.995 Z" id="Path" fill="#6C63FF"></path>
            <path d="M615.556082,212.97 C615.556082,243.1425 594.312981,272.22 563.27012,272.22 C532.224216,272.22 507.056538,247.757958 507.056538,217.5825 C507.056538,187.407042 532.224216,162.945 563.27012,162.945 C594.312981,162.975 615.556082,182.79 615.556082,212.97 Z" id="Path" fill="#000000" opacity="0.1"></path>
            <ellipse id="Oval" fill="#FFB8B8" cx="563.27012" cy="216.1125" rx="56.2135817" ry="54.6375"></ellipse>
            <path d="M558.331659,191.9025 C565.021731,194.295 568.980216,201.015 574.983534,204.7575 C583.471514,210.0075 594.521322,208.65 604.213053,206.055 C609.614495,204.6225 615.262861,202.875 620.579423,204.465 C621.361482,204.801552 622.224172,204.920967 623.071803,204.81 C624.229255,204.4875 624.800264,203.2425 625.178365,202.1325 C631.752692,183.0825 628.797332,161.505 618.874111,143.88 C616.312284,139.335 613.241178,134.94 609.01262,131.7825 C605.679159,129.3 601.759255,127.6725 597.808486,126.285 C590.588474,123.764654 583.120918,121.972727 575.523678,120.9375 C574.182032,120.700562 572.811731,120.657598 571.457163,120.81 C569.597524,121.1025 567.930793,122.0775 566.271779,122.9475 C559.166423,126.649601 551.286718,128.729732 543.230769,129.03 C532.427885,129.4275 520.081731,126.9525 511.755793,133.6875 C501.724543,141.765 504.224639,157.5225 497.71976,168.4875 C493.414038,175.74 485.11125,181.005 483.745457,189.2625 C483.389801,191.786395 483.555061,194.35387 484.231587,196.815 C487.410721,209.52 500.065529,219.36 513.553702,219.5925 C515.625059,219.746083 517.699288,219.332996 519.541587,218.4 C520.748645,217.599377 521.814422,216.614137 522.697572,215.4825 C531.532788,205.3125 541.641202,185.9325 558.331659,191.9025 Z" id="Path" fill="#444053"></path>
            <path d="M625.178365,196.605 C624.800264,197.715 624.229255,198.96 623.071803,199.2825 C622.224172,199.393467 621.361482,199.274052 620.579423,198.9375 C615.262861,197.3475 609.58363,199.095 604.220769,200.5275 C594.521322,203.1225 583.448365,204.51 574.99125,199.23 C568.980216,195.48 565.029447,188.73 558.331659,186.375 C541.641202,180.375 531.532788,199.785 522.674423,209.955 C521.791273,211.086637 520.725496,212.071877 519.518437,212.8725 C517.676139,213.805496 515.60191,214.218583 513.530553,214.065 C500.088678,213.8325 487.426154,203.9925 484.208437,191.2875 C484.030962,190.5375 483.876635,189.7875 483.760889,189.0375 C483.760889,189.105 483.760889,189.165 483.722308,189.2325 C483.366652,191.756395 483.531912,194.32387 484.208437,196.785 C487.387572,209.49 500.050096,219.33 513.530553,219.5625 C515.60191,219.716083 517.676139,219.302996 519.518437,218.37 C520.725496,217.569377 521.791273,216.584137 522.674423,215.4525 C531.532788,205.2825 541.641202,185.9025 558.331659,191.8725 C565.029447,194.265 568.980216,200.985 574.99125,204.7275 C583.479231,209.9775 594.521322,208.62 604.220769,206.025 C609.622212,204.5925 615.262861,202.845 620.579423,204.435 C621.361482,204.771552 622.224172,204.890967 623.071803,204.78 C624.229255,204.4575 624.800264,203.2125 625.178365,202.1025 C627.830091,194.307852 629.001452,186.109497 628.635288,177.9075 C628.40812,184.268536 627.243972,190.565075 625.178365,196.605 L625.178365,196.605 Z" id="Path" fill="#000000" opacity="0.1"></path>
        </g>
    </g>
</svg>