<?xml version="1.0" encoding="UTF-8"?>
<svg width="771px" height="523px" viewBox="0 0 771 523" version="1.1" xmlns="http://www.w3.org/2000/svg" xmlns:xlink="http://www.w3.org/1999/xlink">
    <!-- Generator: Sketch 64 (93537) - https://sketch.com -->
    <title>Slice 1</title>
    <desc>Created with Sketch.</desc>
    <g id="Page-1" stroke="none" stroke-width="1" fill="none" fill-rule="evenodd">
        <g id="experience-design" fill-rule="nonzero">
            <circle id="Oval" fill="#6C63FF" opacity="0.4" cx="522.185925" cy="266.77626" r="57.564075"></circle>
            <rect id="Rectangle" fill="#3F3D56" x="202.5" y="346.426447" width="321" height="87"></rect>
            <path d="M502.939943,130.87944 L490.122525,136.945695 L501.4665,128.46327 C499.62279,125.585469 497.551572,122.859944 495.272708,120.312832 L439.685175,134.1294 L489.896415,114.97554 C487.601936,112.951092 485.165234,111.093791 482.605058,109.417928 L397.902675,123.06126 C388.909428,134.307269 384.00694,148.276754 384.000015,162.676448 L511.500015,162.676448 C511.494847,151.508791 508.542032,140.540349 502.939943,130.87944 L502.939943,130.87944 Z" id="Path" fill="#F2F2F2"></path>
            <path d="M513.092378,37.646535 C462.142475,12.7964394 406.186977,-0.0802647408 349.5,-0.000372942181 C234.127763,-0.000372942181 130.978958,52.3145175 62.4672525,134.511518 C179.787053,108.805665 384.050175,64.30737 513.092378,37.646535 Z" id="Path" fill="#F2F2F2"></path>
            <rect id="Rectangle" fill="#2F2E41" x="0" y="520.426447" width="765" height="1.5"></rect>
            <path d="M446.898292,162.676448 L403.5,98.2134825 C403.5,98.2134825 469.223317,121.157925 461.76444,162.676448 L446.898292,162.676448 Z" id="Path" fill="#3F3D56"></path>
            <path d="M448.601707,162.676447 L492,98.2134825 C492,98.2134825 426.276682,121.157925 433.735567,162.676447 L448.601707,162.676447 Z" id="Path" fill="#6C63FF"></path>
            <path d="M523.875,521.926447 L202.125,521.926447 L202.125,41.9264475 L523.875,41.9264475 L523.875,521.926447 Z M203.625,520.426447 L522.375,520.426447 L522.375,43.4264475 L203.625,43.4264475 L203.625,520.426447 Z" id="Shape" fill="#2F2E41"></path>
            <rect id="Rectangle" fill="#2F2E41" x="203.25" y="53.31231" width="320.25" height="1.5"></rect>
            <circle id="Oval" fill="#6C63FF" cx="211.5" cy="47.9264475" r="3"></circle>
            <circle id="Oval" fill="#6C63FF" cx="219.75" cy="47.9264475" r="3"></circle>
            <circle id="Oval" fill="#6C63FF" cx="228" cy="47.9264475" r="3"></circle>
            <rect id="Rectangle" fill="#6C63FF" x="214.5" y="63.6764475" width="13.5" height="7.5"></rect>
            <rect id="Rectangle" fill="#6C63FF" x="214.5" y="122.926447" width="66" height="7.5"></rect>
            <rect id="Rectangle" fill="#F2F2F2" transform="translate(482.250000, 67.426447) rotate(-180.000000) translate(-482.250000, -67.426447) " x="449.25" y="63.6764475" width="66" height="7.5"></rect>
            <rect id="Rectangle" fill="#F2F2F2" x="214.5" y="135.676447" width="111" height="4.5"></rect>
            <rect id="Rectangle" fill="#F2F2F2" x="214.5" y="145.426447" width="105" height="4.5"></rect>
            <rect id="Rectangle" fill="#F2F2F2" x="214.5" y="155.176447" width="76.5" height="4.5"></rect>
            <rect id="Rectangle" fill="#F2F2F2" x="240" y="288.676447" width="43.5" height="4.5"></rect>
            <rect id="Rectangle" fill="#F2F2F2" x="240" y="298.426447" width="41.148645" height="4.5"></rect>
            <rect id="Rectangle" fill="#F2F2F2" x="240" y="308.176447" width="29.9797275" height="4.5"></rect>
            <rect id="Rectangle" fill="#F2F2F2" x="341.25" y="288.676447" width="43.5" height="4.5"></rect>
            <rect id="Rectangle" fill="#F2F2F2" x="341.25" y="298.426447" width="41.148645" height="4.5"></rect>
            <rect id="Rectangle" fill="#F2F2F2" x="341.25" y="308.176447" width="29.9797275" height="4.5"></rect>
            <rect id="Rectangle" fill="#F2F2F2" x="446.25" y="288.676447" width="43.5" height="4.5"></rect>
            <rect id="Rectangle" fill="#F2F2F2" x="446.25" y="298.426447" width="41.148645" height="4.5"></rect>
            <rect id="Rectangle" fill="#F2F2F2" x="446.25" y="308.176447" width="29.9797275" height="4.5"></rect>
            <rect id="Rectangle" fill="#6C63FF" x="307.5" y="458.926447" width="66" height="7.5"></rect>
            <rect id="Rectangle" fill="#F2F2F2" x="307.5" y="471.676447" width="111" height="4.5"></rect>
            <rect id="Rectangle" fill="#F2F2F2" x="307.5" y="481.426447" width="105" height="4.5"></rect>
            <rect id="Rectangle" fill="#F2F2F2" x="307.5" y="491.176447" width="76.5" height="4.5"></rect>
            <rect id="Rectangle" fill="#6C63FF" opacity="0.3" x="234.375" y="203.926447" width="261" height="1.5"></rect>
            <rect id="Rectangle" fill="#6C63FF" opacity="0.3" x="234" y="230.176447" width="55.5" height="49.5"></rect>
            <rect id="Rectangle" fill="#3F3D56" x="335.25" y="230.176447" width="55.5" height="49.5"></rect>
            <rect id="Rectangle" fill="#3F3D56" x="440.25" y="230.176447" width="55.5" height="49.5"></rect>
            <path d="M355.768973,279.468375 L355.03677,279.454073 C355.05252,278.643218 355.510125,259.533075 363.033412,254.251073 L363.453855,254.85027 C356.234107,259.919197 355.77255,279.273525 355.768973,279.468375 Z" id="Path" fill="#6C63FF"></path>
            <circle id="Oval" fill="#6C63FF" cx="366.904635" cy="250.348395" r="3.661005"></circle>
            <path d="M366.16446,263.275207 C364.260139,263.873342 362.232134,263.96091 360.283342,263.52915 C362.810984,260.311028 366.992468,258.876738 370.96323,259.865842 C369.689756,261.402872 368.03498,262.578535 366.16446,263.275207 Z" id="Path" fill="#6C63FF"></path>
            <path d="M460.768972,279.468375 L460.03677,279.454073 C460.05252,278.643218 460.510125,259.533075 468.033412,254.251073 L468.453855,254.85027 C461.234107,259.919197 460.77255,279.273525 460.768972,279.468375 Z" id="Path" fill="#6C63FF"></path>
            <circle id="Oval" fill="#6C63FF" cx="471.904635" cy="250.348395" r="3.661005"></circle>
            <path d="M471.16446,263.275207 C469.260139,263.873342 467.232134,263.96091 465.283342,263.52915 C467.810984,260.311028 471.992468,258.876738 475.96323,259.865842 C474.689756,261.402872 473.03498,262.578535 471.16446,263.275207 Z" id="Path" fill="#6C63FF"></path>
            <rect id="Rectangle" fill="#6C63FF" x="214.5" y="374.176447" width="66" height="7.5"></rect>
            <rect id="Rectangle" fill="#F2F2F2" x="214.5" y="386.926447" width="111" height="4.5"></rect>
            <rect id="Rectangle" fill="#F2F2F2" x="214.5" y="396.676447" width="105" height="4.5"></rect>
            <rect id="Rectangle" fill="#F2F2F2" x="214.5" y="406.426447" width="76.5" height="4.5"></rect>
            <circle id="Oval" fill="#6C63FF" opacity="0.4" cx="458.814075" cy="384.52626" r="23.435925"></circle>
            <circle id="Oval" fill="#6C63FF" opacity="0.4" cx="415.440128" cy="395.719538" r="16.4401275"></circle>
            <circle id="Oval" fill="#2F2E41" cx="125.625" cy="436.801447" r="59.25"></circle>
            <rect id="Rectangle" fill="#2F2E41" x="98.625" y="483.301447" width="18" height="32.25"></rect>
            <rect id="Rectangle" fill="#2F2E41" x="134.625" y="483.301447" width="18" height="32.25"></rect>
            <ellipse id="Oval" fill="#2F2E41" cx="113.625" cy="515.926447" rx="15" ry="5.625"></ellipse>
            <ellipse id="Oval" fill="#2F2E41" cx="149.625" cy="515.176447" rx="15" ry="5.625"></ellipse>
            <circle id="Oval" fill="#FFFFFF" cx="127.125" cy="421.801447" r="20.25"></circle>
            <circle id="Oval" fill="#3F3D56" cx="127.125" cy="412.801447" r="6.75"></circle>
            <path d="M68.1504975,381.700657 C63.36633,360.274972 78.659385,338.625217 102.308498,333.34458 C125.95761,328.063942 149.007323,341.15208 153.791498,362.57778 C158.575673,384.00348 142.90254,391.905622 119.253435,397.18626 C95.60433,402.466897 72.934665,403.126335 68.1504975,381.700657 Z" id="Path" fill="#6C63FF"></path>
            <ellipse id="Oval" fill="#2F2E41" transform="translate(170.457290, 371.239749) rotate(-65.076830) translate(-170.457290, -371.239749) " cx="170.45729" cy="371.239749" rx="29.625" ry="9.3002025"></ellipse>
            <ellipse id="Oval" fill="#2F2E41" transform="translate(61.707291, 389.239718) rotate(-27.893290) translate(-61.707291, -389.239718) " cx="61.7072913" cy="389.239718" rx="9.3002025" ry="29.625"></ellipse>
            <ellipse id="Oval" fill="#2F2E41" transform="translate(615.002319, 392.739124) rotate(-21.078320) translate(-615.002319, -392.739124) " cx="615.002319" cy="392.739124" rx="9.3002025" ry="29.625"></ellipse>
            <circle id="Oval" fill="#2F2E41" cx="669.892163" cy="437.327857" r="59.25"></circle>
            <polygon id="Rectangle" fill="#2F2E41" transform="translate(688.065128, 499.899181) rotate(179.839572) translate(-688.065128, -499.899181) " points="679.065093 483.774118 697.065163 483.774118 697.065163 516.024244 679.065093 516.024244"></polygon>
            <polygon id="Rectangle" fill="#2F2E41" transform="translate(652.067600, 500.003089) rotate(179.839510) translate(-652.067600, -500.003089) " points="643.0676 483.878089 661.0676 483.878089 661.0676 516.128089 643.0676 516.128089"></polygon>
            <ellipse id="Oval" fill="#2F2E41" transform="translate(682.113799, 516.418871) rotate(-0.160490) translate(-682.113799, -516.418871) " cx="682.113799" cy="516.418871" rx="15" ry="5.625"></ellipse>
            <ellipse id="Oval" fill="#2F2E41" transform="translate(646.111829, 515.769717) rotate(-0.160490) translate(-646.111829, -515.769717) " cx="646.111829" cy="515.769717" rx="15" ry="5.625"></ellipse>
            <circle id="Oval" fill="#FFFFFF" cx="668.350155" cy="422.332118" r="20.25"></circle>
            <circle id="Oval" fill="#3F3D56" cx="668.350155" cy="422.332118" r="6.75"></circle>
            <path d="M727.212105,382.06629 C731.936235,360.627293 716.582603,339.02046 692.918797,333.806085 C669.254992,328.59171 646.24203,341.74437 641.517893,363.183367 C636.793755,384.622365 652.488952,392.480617 676.152757,397.694977 C699.816562,402.909337 722.487967,403.505295 727.212105,382.06629 Z" id="Path" fill="#6C63FF"></path>
            <ellipse id="Oval" fill="#2F2E41" transform="translate(736.550151, 409.648690) rotate(-25.534750) translate(-736.550151, -409.648690) " cx="736.550151" cy="409.64869" rx="29.625" ry="9.3002025"></ellipse>
            <path d="M699.055348,458.62125 C699.07158,464.42025 684.172253,475.91301 667.603777,475.959511 C651.035302,476.005815 635.454757,459.723412 635.438515,453.924413 C635.422297,448.125413 650.976487,455.005913 667.544962,454.959488 C684.113437,454.913062 699.039098,452.822288 699.055348,458.62125 Z" id="Path" fill="#FFFFFF"></path>
            <circle id="Oval" fill="#6C63FF" opacity="0.4" cx="687.935925" cy="351.52626" r="82.685925"></circle>
            <circle id="Oval" fill="#2F2E41" cx="142.803623" cy="261.442665" r="59.25"></circle>
            <polygon id="Rectangle" fill="#2F2E41" transform="translate(113.935903, 319.859653) rotate(10.261060) translate(-113.935903, -319.859653) " points="104.935903 303.734653 122.935903 303.734653 122.935903 335.984653 104.935903 335.984653"></polygon>
            <polygon id="Rectangle" fill="#2F2E41" transform="translate(149.360134, 326.272462) rotate(10.261060) translate(-149.360134, -326.272462) " points="140.360134 310.147462 158.360134 310.147462 158.360134 342.397462 140.360134 342.397462"></polygon>
            <ellipse id="Oval" fill="#2F2E41" transform="translate(149.576542, 346.128581) rotate(-49.738940) translate(-149.576542, -346.128581) " cx="149.576542" cy="346.128581" rx="5.625" ry="15"></ellipse>
            <ellipse id="Oval" fill="#2F2E41" transform="translate(114.890327, 339.849371) rotate(-49.738940) translate(-114.890327, -339.849371) " cx="114.890327" cy="339.849371" rx="5.625" ry="15"></ellipse>
            <circle id="Oval" fill="#FFFFFF" cx="146.951632" cy="246.94977" r="20.25"></circle>
            <circle id="Oval" fill="#3F3D56" cx="155.274323" cy="239.691225" r="6.75"></circle>
            <path d="M96.063675,196.984995 C95.172675,175.049745 114.077662,156.470483 138.289185,155.487 C162.500708,154.503517 182.850352,171.48825 183.741367,193.4235 C184.632383,215.35875 167.802293,220.342605 143.590763,221.326087 C119.379233,222.30957 96.954675,218.92023 96.063675,196.984995 Z" id="Path" fill="#6C63FF"></path>
            <ellipse id="Oval" fill="#2F2E41" transform="translate(197.512796, 250.648298) rotate(-12.910100) translate(-197.512796, -250.648298) " cx="197.512796" cy="250.648298" rx="29.625" ry="9.3002025"></ellipse>
            <ellipse id="Oval" fill="#2F2E41" transform="translate(81.207275, 269.989734) rotate(-12.910100) translate(-81.207275, -269.989734) " cx="81.2072753" cy="269.989734" rx="29.625" ry="9.3002025"></ellipse>
            <path d="M126.53058,284.792333 C125.202444,292.128931 130.073264,299.153086 137.409863,300.481222 C144.746461,301.809359 151.770616,296.938538 153.098753,289.60194 C154.42689,282.265343 148.754468,279.669218 141.41787,278.34108 C134.081273,277.012943 127.858718,277.455735 126.53058,284.792333 Z" id="Path" fill="#FFFFFF"></path>
            <polygon id="Rectangle" fill="#3F3D56" transform="translate(248.625008, 229.051441) rotate(16.688760) translate(-248.625008, -229.051441) " points="220.875008 204.301441 276.375008 204.301441 276.375008 253.801441 220.875008 253.801441"></polygon>
            <path d="M234.650782,250.483087 L233.95353,250.259115 C234.20145,249.486938 240.12771,231.313148 248.850953,228.41412 L249.081615,229.108822 C240.71031,231.890918 234.710175,250.29747 234.650782,250.483087 Z" id="Path" fill="#6C63FF"></path>
            <circle id="Oval" fill="#6C63FF" cx="253.679865" cy="225.78753" r="3.661005"></circle>
            <path d="M249.25863,237.957285 C247.262756,237.983357 245.295029,237.48485 243.552315,236.511638 C246.897642,234.154935 251.314885,233.981866 254.834348,236.069603 C253.173121,237.176184 251.250427,237.82712 249.25863,237.957285 L249.25863,237.957285 Z" id="Path" fill="#6C63FF"></path>
        </g>
    </g>
</svg>