<?xml version="1.0" encoding="UTF-8"?>
<svg width="825px" height="475px" viewBox="0 0 825 475" version="1.1" xmlns="http://www.w3.org/2000/svg" xmlns:xlink="http://www.w3.org/1999/xlink">
    <!-- Generator: Sketch 64 (93537) - https://sketch.com -->
    <title>Slice 1</title>
    <desc>Created with Sketch.</desc>
    <g id="Page-1" stroke="none" stroke-width="1" fill="none" fill-rule="evenodd">
        <g id="heatmap" fill-rule="nonzero">
            <ellipse id="Oval" fill="#F2F2F2" cx="412.03125" cy="450.580245" rx="412.03125" ry="23.697555"></ellipse>
            <rect id="Rectangle" fill="#F2F2F2" x="131.22561" y="0" width="618.988237" height="19.69272"></rect>
            <circle id="Oval" fill="#6C63FF" cx="147.789533" cy="9.55611" r="5.096595"></circle>
            <circle id="Oval" fill="#6C63FF" cx="164.353455" cy="9.55611" r="5.096595"></circle>
            <circle id="Oval" fill="#6C63FF" cx="180.917378" cy="9.55611" r="5.096595"></circle>
            <polygon id="Path" fill="#3F3D56" points="131.664 311.45775 131.22525 311.83425 131.22525 444.67725 750.21375 444.67725 750.21375 211.33425 742.83675 211.89375"></polygon>
            <rect id="Rectangle" fill="#3F3D56" x="175.896675" y="131.730518" width="172.85274" height="6.96987"></rect>
            <rect id="Rectangle" fill="#3F3D56" x="175.896675" y="147.06423" width="172.85274" height="6.96987"></rect>
            <rect id="Rectangle" fill="#3F3D56" x="175.896675" y="162.397935" width="58.5468975" height="6.96987"></rect>
            <rect id="Rectangle" fill="#FFFFFF" x="528.396675" y="325.230518" width="172.85274" height="6.96987"></rect>
            <rect id="Rectangle" fill="#FFFFFF" x="528.396675" y="340.56423" width="172.85274" height="6.96987"></rect>
            <rect id="Rectangle" fill="#FFFFFF" x="528.396675" y="355.897935" width="58.5468975" height="6.96987"></rect>
            <circle id="Oval" fill="#F2F2F2" cx="421.001618" cy="431.451915" r="6.79935"></circle>
            <circle id="Oval" fill="#F2F2F2" cx="440.719725" cy="432.13185" r="6.79935"></circle>
            <circle id="Oval" fill="#F2F2F2" cx="460.437833" cy="432.811785" r="6.79935"></circle>
            <circle id="Oval" fill="#3F3D56" cx="440.782072" cy="432.13185" r="5.43948"></circle>
            <rect id="Rectangle" fill="#3F3D56" x="232.896675" y="211.51026" width="58.5468975" height="13.357545"></rect>
            <rect id="Rectangle" fill="#FFFFFF" x="580.896675" y="392.26026" width="58.5468975" height="13.357545"></rect>
            <circle id="Oval" fill="#6C63FF" opacity="0.3" cx="262.5" cy="218.26026" r="40.5"></circle>
            <circle id="Oval" fill="#6C63FF" opacity="0.3" cx="262.5" cy="218.26026" r="27"></circle>
            <circle id="Oval" fill="#6C63FF" cx="262.5" cy="218.26026" r="18.75"></circle>
            <circle id="Oval" fill="#6C63FF" opacity="0.3" cx="603.28125" cy="117.8889" r="40.5"></circle>
            <circle id="Oval" fill="#6C63FF" opacity="0.3" cx="603.28125" cy="117.8889" r="27"></circle>
            <circle id="Oval" fill="#6C63FF" cx="603.28125" cy="117.8889" r="18.75"></circle>
            <circle id="Oval" fill="#6C63FF" opacity="0.3" cx="610.5" cy="399.01026" r="40.5"></circle>
            <circle id="Oval" fill="#6C63FF" opacity="0.3" cx="610.5" cy="399.01026" r="27"></circle>
            <circle id="Oval" fill="#6C63FF" cx="610.5" cy="399.01026" r="18.75"></circle>
            <polygon id="Rectangle" fill="#6C63FF" transform="translate(76.191765, 71.628186) rotate(-177.779290) translate(-76.191765, -71.628186) " points="67.8508947 60.9042098 84.5326347 60.9042098 84.5326347 82.3521623 67.8508947 82.3521623"></polygon>
            <path d="M143.467433,135.648105 C143.467433,135.648105 166.551645,124.618785 166.182277,134.144047 C165.81291,143.66931 142.91337,149.936003 142.91337,149.936003 L143.467433,135.648105 Z" id="Path" fill="#FFB9B9"></path>
            <path d="M130.802505,216.24348 C130.802505,216.24348 141.693308,242.89965 145.7172,262.1349 C149.741093,281.37015 155.86926,307.841617 147.986565,326.615115 C140.10387,345.388612 117.692633,400.56462 117.461775,406.51791 C117.230917,412.4712 119.38137,418.516837 114.618743,418.33215 C109.856115,418.147462 83.938665,409.98774 82.88652,406.369597 C81.834375,402.751455 91.72902,393.595597 91.72902,393.595597 L116.16201,317.033917 L90.6699,267.154942 L72.28254,341.566192 L68.68116,434.437515 C68.68116,434.437515 51.0059775,428.982315 48.43998,433.652602 C48.43998,433.652602 40.5209175,422.61348 39.5149425,417.804675 C38.5089675,412.99587 43.25484,321.36138 43.25484,321.36138 C43.25484,321.36138 27.03057,216.989212 40.1278125,217.497105 C53.225055,218.004997 104.52549,186.605737 130.802505,216.24348 Z" id="Path" fill="#2F2E41"></path>
            <path d="M114.803423,413.5695 C114.803423,413.5695 126.884888,440.271862 128.02938,441.508695 C129.173873,442.745527 137.046758,454.975305 131.093468,454.744447 C125.140178,454.51359 111.083138,448.006237 100.736588,438.06543 C90.3900375,428.124622 76.7485425,410.901352 77.985375,409.756867 C79.2222075,408.612382 87.695325,405.363607 87.695325,405.363607 L114.803423,413.5695 Z" id="Path" fill="#2F2E41"></path>
            <path d="M66.5307075,428.391855 C66.5307075,428.391855 67.2596475,440.344605 69.4562775,445.19958 C71.6529075,450.054555 71.37588,457.1985 65.42259,456.967642 C59.4693,456.736785 44.0830875,453.755243 44.0830875,453.755243 C44.0830875,453.755243 43.16946,446.56512 44.406285,445.420635 C45.64311,444.27615 50.9136375,431.363595 48.6708375,427.699282 C46.4280375,424.03497 66.5307075,428.391855 66.5307075,428.391855 Z" id="Path" fill="#2F2E41"></path>
            <path d="M57.7232925,40.504575 C57.7232925,40.504575 45.0317925,60.2840475 40.0844775,64.861995 C35.1371625,69.4399425 49.0556775,79.519245 49.0556775,79.519245 L73.9671525,82.8701625 C73.9671525,82.8701625 73.6537575,60.2014875 74.93676,57.8663475 C76.2197625,55.5312075 57.7232925,40.504575 57.7232925,40.504575 Z" id="Path" fill="#FFB9B9"></path>
            <path d="M79.37619,66.38565 C79.37619,66.38565 74.2441875,75.7262325 69.4815525,75.541545 C64.7189175,75.3568575 40.0844775,64.861995 39.0323025,61.243845 C37.9801275,57.625695 30.87258,87.161295 30.87258,87.161295 L91.15125,193.241798 L105.854692,183.079935 L98.730345,120.79635 L92.8791975,87.1809 L79.37619,66.38565 Z" id="Path" fill="#6C63FF"></path>
            <path d="M36.8089575,161.323297 C39.2134575,166.353293 40.71522,171.59865 40.5069825,176.96853 C40.49775,177.206677 40.4885175,177.44478 40.4673675,177.682432 C39.89694,188.7024 35.83731,201.44727 34.3808625,210.715747 C33.3240525,217.364385 33.6248025,222.217387 37.5156375,223.358017 C46.94856,226.10871 36.140295,228.074482 72.6351375,240.221722 C109.12998,252.368963 115.49883,241.883895 115.59117,239.502577 C115.68351,237.12126 110.4228,219.030532 111.659625,217.886077 C112.89645,216.741622 128.96544,232.866577 133.820415,230.669917 C138.67539,228.473257 134.37447,216.38202 134.37447,216.38202 C134.37447,216.38202 123.43749,190.91652 123.668347,184.9632 C123.899205,179.00988 107.101282,150.932205 107.101282,150.932205 L95.676,76.557315 C95.676,76.557315 91.28274,66.847365 85.37562,65.4258525 C79.4685,64.00434 74.56737,67.3916025 74.56737,67.3916025 L84.45225,89.2390125 L94.881345,127.801762 L93.1366275,142.043512 C93.1366275,142.043512 81.0089925,116.531812 73.0437525,106.683345 C65.0785125,96.8348775 48.09591,73.5198075 48.09591,73.5198075 C48.09591,73.5198075 44.131065,60.1417725 47.124135,56.143875 C50.117655,52.134135 34.6391025,51.5339025 28.03941,67.97226 C24.541545,76.6845675 18.8625525,89.67669 15.304995,101.77326 C12.13488,112.48965 10.6374225,122.50776 13.778085,128.234092 C18.57825,136.98201 30.6531,148.480395 36.8089575,161.323297 Z" id="Path" fill="#575A89"></path>
            <path d="M13.778055,128.234093 C18.5782725,136.98201 30.6531,148.480395 36.8089575,161.323298 C38.4167925,155.53068 40.378275,149.537228 40.378275,149.537228 C40.378275,149.537228 47.90139,109.28571 25.648275,98.8831875 C21.9610678,98.5266714 18.2733368,99.557079 15.30498,101.77326 C12.13485,112.48965 10.6373925,122.507782 13.778055,128.234093 Z" id="Path" fill="#000000" opacity="0.1"></path>
            <path d="M102.1176,125.697495 L120.983445,131.198872 L147.177945,132.214642 L149.872695,154.975642 L106.824263,158.07615 C106.824263,158.07615 96.072,127.847955 102.1176,125.697495 Z" id="Path" fill="#575A89"></path>
            <path d="M71.35425,202.22715 C71.35425,202.22715 96.5929725,206.414498 90.8325,214.0095 C85.0720275,221.604502 62.713545,213.619658 62.713545,213.619658 L71.35425,202.22715 Z" id="Path" fill="#FFB9B9"></path>
            <path d="M40.4673675,177.682433 C39.89694,188.7024 35.83731,201.44727 34.3808625,210.715748 C42.4209825,218.325308 50.0666475,225.03717 52.94802,225.148905 C58.90131,225.379763 68.4727425,224.558483 71.998545,225.887655 C75.5243475,227.216828 77.59227,204.640493 77.59227,204.640493 C77.59227,204.640493 75.48798,197.4042 66.1012275,193.46286 C59.7653775,190.79646 47.6205,183.564345 40.4673675,177.682433 Z" id="Path" fill="#000000" opacity="0.1"></path>
            <path d="M25.925295,91.7392425 C25.925295,91.7392425 5.7764475,88.573005 6.86496,122.003775 C7.9534725,155.434545 4.7410725,176.774025 12.8448225,183.050535 C20.9485725,189.327045 47.2717575,217.774102 53.2250475,218.00496 C59.1783375,218.235817 68.7497775,217.41453 72.27558,218.74371 C75.8013825,220.07289 77.8692975,197.496555 77.8692975,197.496555 C77.8692975,197.496555 75.765,190.260255 66.3782625,186.3189 C56.991525,182.377545 34.8768975,168.403058 35.0615775,163.6404 C35.2462575,158.877743 40.6553025,142.393238 40.6553025,142.393238 C40.6553025,142.393238 48.178425,102.141765 25.925295,91.7392425 Z" id="Path" fill="#575A89"></path>
            <circle id="Oval" fill="#FFB9B9" cx="75.490815" cy="43.578465" r="26.214165"></circle>
            <path d="M93.1414725,6.00594 C93.7737556,6.55070616 94.530931,6.93067743 95.3455875,7.112025 C96.19694,7.26379597 97.0111319,6.69980924 97.168305,5.8494375 C97.768065,7.093245 98.444745,8.418885 99.6692625,9.057105 C100.89378,9.695325 102.787253,9.1601625 102.963758,7.790625 C103.142544,8.83048227 103.602579,9.8015567 104.293988,10.598565 C105.053738,11.322945 106.431488,11.5057725 107.09478,10.69218 C106.55853,13.6227675 106.889513,16.636575 106.721108,19.61106 C106.552703,22.585545 105.759533,25.7389275 103.512255,27.69486 C100.234853,30.547365 95.306445,29.8433625 90.9952875,29.302935 C90.3433397,29.1661215 89.666879,29.203126 89.033745,29.4102375 C87.4195125,30.0979875 87.4927425,32.3450625 87.4709775,34.09956 C87.1990891,40.4563971 82.3757995,45.6872066 76.06182,46.4726775 C74.3506409,46.7368023 72.6046055,46.3106713 71.20749,45.2879475 C69.983445,44.2504275 69.3582,42.5594025 67.9556025,41.7800175 C65.67405,40.5122175 62.906955,42.3611625 61.2388425,44.3687025 C59.57073,46.3762425 57.9266925,48.8457 55.3425525,49.2131925 C51.92487,49.6991925 49.3218075,46.2161925 48.0447,43.009065 C44.4850604,33.9279335 44.744257,23.7940159 48.7634775,14.90673 C55.8996825,-0.6490725 80.277135,-3.10953 93.1414725,6.00594 Z" id="Path" fill="#2F2E41"></path>
            <path d="M722.416732,422.827155 C731.649045,438.571448 750.269085,444.804803 750.269085,444.804803 C750.269085,444.804803 753.92058,425.511623 744.688275,409.767323 C735.45597,394.023023 716.835922,387.789668 716.835922,387.789668 C716.835922,387.789668 713.18442,407.082855 722.416732,422.827155 Z" id="Path" fill="#F2F2F2"></path>
            <path d="M728.177633,417.33204 C744.143895,426.17493 750.832635,444.636278 750.832635,444.636278 C750.832635,444.636278 731.634937,448.760468 715.668667,439.917577 C699.702397,431.074687 693.013665,412.613348 693.013665,412.613348 C693.013665,412.613348 712.211362,408.48915 728.177633,417.33204 Z" id="Path" fill="#6C63FF"></path>
        </g>
    </g>
</svg>