<?xml version="1.0" encoding="UTF-8"?>
<svg width="782px" height="417px" viewBox="0 0 782 417" version="1.1" xmlns="http://www.w3.org/2000/svg" xmlns:xlink="http://www.w3.org/1999/xlink">
    <!-- Generator: Sketch 64 (93537) - https://sketch.com -->
    <title>Slice 1</title>
    <desc>Created with Sketch.</desc>
    <defs>
        <linearGradient x1="49.9918241%" y1="100%" x2="49.9918241%" y2="-0.0776833077%" id="linearGradient-1">
            <stop stop-color="#808080" stop-opacity="0.25" offset="0%"></stop>
            <stop stop-color="#808080" stop-opacity="0.12" offset="54%"></stop>
            <stop stop-color="#808080" stop-opacity="0.1" offset="100%"></stop>
        </linearGradient>
    </defs>
    <g id="Page-1" stroke="none" stroke-width="1" fill="none" fill-rule="evenodd">
        <g id="programming">
            <path d="M721.11,328.6575 C720.24,330.5325 719.3725,332.3825 718.5075,334.2075 C717.1575,337.0425 715.825,339.8225 714.51,342.5475 C713.925,343.755 713.34,344.94 712.77,346.125 C706.32,359.3025 700.2975,370.9575 695.1825,380.5425 C685.72878,398.232381 667.38146,409.359811 647.325,409.5675 L533.5875,410.805 L532.3875,410.805 L522.6375,410.91 L514.2975,411 L488.7225,411.2775 L487.6875,411.2775 L474.6675,411.42 L474.27,411.42 L394.02,412.29 L322.3875,413.04 L314.055,413.13 L262.305,413.6925 L262.245,413.6925 L228.6825,414.0525 L228.3225,414.0525 L122.1975,415.2 L90.45,415.545 C83.6750216,415.621542 76.9285977,414.655237 70.4475,412.68 C59.1690734,409.273105 49.0330529,402.85544 41.13,394.1175 C27.495,379.095 17.5575,361.5675 10.8825,342.5475 C9.9175,339.8025 9.0175,337.0225 8.1825,334.2075 C-14.925,256.095 13.245,155.3175 63.945,87.8775 C66.07,85.0575 68.23,82.3075 70.425,79.6275 L70.4775,79.5675 C86.07,60.4275 103.5525,44.4375 122.175,33.0675 C155.175,12.885 191.7375,7.2 227.7,24.1425 C258.1275,38.4825 286.5375,45.225 314.0775,47.055 C316.86,47.235 319.6425,47.37 322.41,47.4525 C385.5825,49.44 444.7875,26.6775 514.3125,11.985 C517.08,11.4 519.855,10.8225 522.6525,10.275 C572.25,0.405 627.27,-4.8 692.7,6.1425 C699.497687,7.25299683 706.20544,8.85724276 712.77,10.9425 C715.655,11.8725 718.435,12.8725 721.11,13.9425 C752.34,26.6475 769.3725,50.1225 776.61,79.5375 C777.295,82.2675 777.8875,85.045 778.3875,87.87 C791.22,158.625 753.6375,258.99 721.11,328.6575 Z" id="Path" fill="#6C63FF" fill-rule="nonzero" opacity="0.1"></path>
            <g id="Group" opacity="0.1" transform="translate(7.500000, 9.750000)" fill="#6C63FF" fill-rule="nonzero">
                <path d="M114.675,23.3175 L114.675,405.5325 L82.9275,405.8775 C76.1525216,405.954042 69.4060977,404.987737 62.925,403.0125 L62.925,69.8175 L62.9775,69.8175 C78.57,50.655 96.0525,34.665 114.675,23.3175 Z" id="Path"></path>
                <path d="M770.925,78.1275 L56.445,78.1275 C58.57,75.3075 60.73,72.5575 62.925,69.8775 L62.925,69.8175 L769.1475,69.8175 C769.8325,72.5325 770.425,75.3025 770.925,78.1275 Z" id="Path"></path>
                <path d="M713.61,4.2 L713.61,324.45 L711.0075,324.45 C709.6575,327.285 708.325,330.065 707.01,332.79 C706.425,333.9975 705.84,335.1825 705.27,336.3675 L705.27,1.17 C708.155,2.1 710.935,3.11 713.61,4.2 Z" id="Path"></path>
                <path d="M515.1525,0.5025 L515.1525,401.19 L506.8125,401.28 L506.8125,2.2125 C509.58,1.6275 512.355,1.05 515.1525,0.5025 Z" id="Path"></path>
                <path d="M314.91,37.68 L314.91,403.365 L306.5775,403.455 L306.5775,37.2825 C309.36,37.4625 312.1425,37.5675 314.91,37.68 Z" id="Path"></path>
                <path d="M711.0075,324.4575 C709.6575,327.2925 708.325,330.0725 707.01,332.7975 L3.3825,332.7975 C2.4175,330.0525 1.5175,327.2725 0.6825,324.4575 L711.0075,324.4575 Z" id="Path"></path>
            </g>
            <rect id="Rectangle" fill="#3F3D56" fill-rule="nonzero" x="158.7" y="199.3725" width="14.25" height="43.245"></rect>
            <rect id="Rectangle" fill="#3F3D56" fill-rule="nonzero" x="542.1975" y="197.1225" width="14.25" height="45.75"></rect>
            <polygon id="Path" fill="#65617D" fill-rule="nonzero" points="647.325 400.2375 647.325 409.9875 533.385 411.0375 532.17 411.06 488.865 411.4575 487.83 411.4725 474.6675 411.585 474.2775 411.585 394.0425 412.3275 262.335 413.55 262.2225 413.55 228.735 413.865 228.375 413.8725 79.575 415.2375 79.575 403.9875 114.5625 382.9875 184.7625 382.4025 186.2625 382.395 186.7575 382.3875 188.2575 382.365 221.9625 382.0875 223.47 382.08 223.95 382.0725 225.45 382.065 236.2575 381.975 236.5425 381.9675 263.205 381.7425 263.4225 381.7425 471.4725 379.9875 476.565 379.95 477.075 379.95 480.96 379.9125 509.1975 379.68 510.6975 379.6575 512.085 379.6425 512.805 379.6425 521.5875 379.575 523.3275 379.5525 525.66 379.5375 532.9725 379.47 544.575 379.3725 546.075 379.3575 548.685 379.3425 549.1725 379.3425 605.205 378.8625"></polygon>
            <polygon id="Path" fill="#000000" fill-rule="nonzero" opacity="0.2" points="647.325 400.2375 647.325 409.9875 533.385 411.0375 532.17 411.06 488.865 411.4575 487.83 411.4725 474.6675 411.585 474.2775 411.585 394.0425 412.3275 262.335 413.55 262.2225 413.55 228.735 413.865 228.375 413.8725 79.575 415.2375 79.575 403.9875 114.5625 382.9875 184.7625 382.4025 186.2625 382.395 186.7575 382.3875 188.2575 382.365 221.9625 382.0875 223.47 382.08 223.95 382.0725 225.45 382.065 236.2575 381.975 236.5425 381.9675 263.205 381.7425 263.4225 381.7425 471.4725 379.9875 476.565 379.95 477.075 379.95 480.96 379.9125 509.1975 379.68 510.6975 379.6575 512.085 379.6425 512.805 379.6425 521.5875 379.575 523.3275 379.5525 525.66 379.5375 532.9725 379.47 544.575 379.3725 546.075 379.3575 548.685 379.3425 549.1725 379.3425 605.205 378.8625"></polygon>
            <path d="M222.075001,362.745 L222.075001,381.1125 C222.075826,382.888215 221.05398,384.505652 219.45,385.2675 C218.864857,385.551217 218.225173,385.704741 217.575,385.7175 L191.4,386.2725 C190.700954,386.289266 190.007618,386.142895 189.375,385.845 C187.741886,385.096464 186.695576,383.463987 186.697497,381.6675 L186.697497,362.745 L222.075001,362.745 Z" id="Path" fill="#3F3D56" fill-rule="nonzero"></path>
            <path d="M222.075001,362.745 L222.075001,381.1125 C222.075826,382.888215 221.05398,384.505652 219.45,385.2675 C218.864857,385.551217 218.225173,385.704741 217.575,385.7175 L191.4,386.2725 C190.700954,386.289266 190.007618,386.142895 189.375,385.845 C187.741886,385.096464 186.695576,383.463987 186.697497,381.6675 L186.697497,362.745 L222.075001,362.745 Z" id="Path" fill="#000000" fill-rule="nonzero" opacity="0.1"></path>
            <path d="M223.575001,362.745 L223.575001,381.1125 C223.575826,382.888215 222.55398,384.505652 220.95,385.2675 C220.364857,385.551217 219.725173,385.704741 219.075,385.7175 L192.9,386.2725 C192.200954,386.289266 191.507618,386.142895 190.875,385.845 C189.241886,385.096464 188.195576,383.463987 188.197497,381.6675 L188.197497,362.745 L223.575001,362.745 Z" id="Path" fill="#3F3D56" fill-rule="nonzero"></path>
            <rect id="Rectangle" fill="#3F3D56" fill-rule="nonzero" x="510.6975" y="362.745" width="35.3775" height="23.625"></rect>
            <rect id="Rectangle" fill="#000000" fill-rule="nonzero" opacity="0.1" x="510.6975" y="362.745" width="35.3775" height="23.625"></rect>
            <rect id="Rectangle" fill="#3F3D56" fill-rule="nonzero" x="509.1975" y="362.745" width="35.3775" height="23.625"></rect>
            <polygon id="Path" fill="#000000" fill-rule="nonzero" opacity="0.1" points="172.95 199.365 172.95 203.6625 158.7 203.295 158.7 199.365"></polygon>
            <path d="M266.745,78.3 L249.6225,201.3 C249.397729,202.926659 247.986573,204.124688 246.345,204.08358 L109.245,200.5275 L106.6425,200.46 C105.726059,200.438278 104.862166,200.027577 104.266766,199.330558 C103.671366,198.633539 103.400727,197.716074 103.5225,196.8075 L122.745,68.0475 C123.001878,66.3940983 124.480598,65.2117742 126.15,65.325 L263.745,74.64 C264.642503,74.6920191 265.477309,75.1171598 266.047216,75.812446 C266.617123,76.5077323 266.870146,77.4097443 266.745,78.3 L266.745,78.3 Z" id="Path" fill="#65617D" fill-rule="nonzero"></path>
            <polygon id="Path" fill="#6C63FF" fill-rule="nonzero" points="131.9475 74.37 117.45 187.8675 243.45 191.865 258.945 82.365"></polygon>
            <rect id="Rectangle" fill="#65617D" fill-rule="nonzero" x="288.45" y="72.615" width="153.5025" height="129.9975" rx="5.33"></rect>
            <rect id="Rectangle" fill="#6C63FF" fill-rule="nonzero" x="295.695" y="81.3675" width="139.5" height="108.2475"></rect>
            <polygon id="Path" fill="#000000" fill-rule="nonzero" opacity="0.1" points="556.4475 197.115 556.4475 199.9575 542.1975 200.25 542.1975 197.115"></polygon>
            <path d="M620.745,194.715 C620.786039,195.342905 620.569152,195.960377 620.144469,196.424697 C619.719786,196.889017 619.124065,197.159996 618.495,197.175 L478.095,200.078001 C476.885224,200.102495 475.861174,199.189683 475.7475,197.985 L463.68,72.525 C463.619794,71.895987 463.819889,71.2697688 464.233678,70.7922114 C464.647467,70.314654 465.238822,70.0274506 465.87,69.9975 L605.205,63.0675 L606.705,62.9925 C607.944421,62.9271992 609.012563,63.8560187 609.12,65.0925 L620.745,194.715 Z" id="Path" fill="#65617D" fill-rule="nonzero"></path>
            <polygon id="Path" fill="#6C63FF" fill-rule="nonzero" points="471.6975 77.37 598.95 71.115 609.6975 185.115 483.45 188.115"></polygon>
            <path d="M620.745,194.715 C620.786039,195.342905 620.569152,195.960377 620.144469,196.424697 C619.719786,196.889017 619.124065,197.159996 618.495,197.175 L605.205,63.0675 L606.705,62.9925 C607.944421,62.9271992 609.012563,63.8560187 609.12,65.0925 L620.745,194.715 Z" id="Path" fill="#000000" fill-rule="nonzero" opacity="0.1"></path>
            <path d="M126.1725,65.3175 L109.245,200.5275 L106.6425,200.46 C105.726059,200.438278 104.862166,200.027577 104.266766,199.330558 C103.671366,198.633539 103.400727,197.716074 103.5225,196.8075 L122.745,68.0475 C122.998961,66.3818818 124.492278,65.1924561 126.1725,65.3175 L126.1725,65.3175 Z" id="Path" fill="#000000" fill-rule="nonzero" opacity="0.1"></path>
            <rect id="Rectangle" fill="#000000" fill-rule="nonzero" opacity="0.1" x="158.7" y="229.8075" width="14.25" height="12.81"></rect>
            <polygon id="Path" fill="#000000" fill-rule="nonzero" opacity="0.1" points="223.575 362.7375 223.575 366.465 188.1975 367.41 188.1975 362.7375"></polygon>
            <path d="M286.0125,234.27 L286.0125,360.42 C285.993628,362.019346 284.723337,363.322632 283.125,363.3825 L139.3875,367.2075 L139.35,367.2075 C137.722306,367.187278 136.407722,365.872694 136.3875,364.245 L136.3875,234.27 C136.407722,232.642306 137.722306,231.327722 139.35,231.3075 L283.05,231.3075 C284.677694,231.327722 285.992278,232.642306 286.0125,234.27 Z" id="Path" fill="#65617D" fill-rule="nonzero"></path>
            <path d="M139.3875,231.3075 L139.3875,367.2075 L139.35,367.2075 C137.722306,367.187278 136.407722,365.872694 136.3875,364.245 L136.3875,234.27 C136.407722,232.642306 137.722306,231.327722 139.35,231.3075 L139.3875,231.3075 Z" id="Path" fill="#000000" fill-rule="nonzero" opacity="0.1"></path>
            <polygon id="Path" fill="#D4DFEC" fill-rule="nonzero" points="145.95 239.3625 279.075 239.3625 279.075 350.55 145.95 353.55"></polygon>
            <rect id="Rectangle" fill="#000000" fill-rule="nonzero" opacity="0.1" x="542.1975" y="229.8075" width="14.25" height="13.065"></rect>
            <polygon id="Path" fill="#000000" fill-rule="nonzero" opacity="0.1" points="544.575 362.7375 544.575 367.545 509.1975 366.6 509.1975 362.7375"></polygon>
            <path d="M591.2625,234.27 L591.2625,364.245 C591.241971,365.887191 589.904819,367.2075 588.2625,367.2075 L588.2625,367.2075 L444.495,363.3825 C442.896663,363.322632 441.626372,362.019346 441.6075,360.42 L441.6075,234.27 C441.627722,232.642306 442.942306,231.327722 444.57,231.3075 L588.27,231.3075 C589.909397,231.31147 591.242012,232.630726 591.2625,234.27 Z" id="Path" fill="#65617D" fill-rule="nonzero"></path>
            <path d="M591.2625,234.27 L591.2625,364.245 C591.241971,365.887191 589.904819,367.2075 588.2625,367.2075 L588.2625,367.2075 L588.2625,231.3075 L588.2625,231.3075 C589.904819,231.3075 591.241971,232.627809 591.2625,234.27 Z" id="Path" fill="#000000" fill-rule="nonzero" opacity="0.1"></path>
            <polygon id="Path" fill="#D4DFEC" fill-rule="nonzero" points="581.7 239.3625 448.575 239.3625 448.575 350.55 581.7 353.55"></polygon>
            <path d="M437.8875,234.27 L437.8875,360.42 C437.868628,362.019346 436.598337,363.322632 435,363.3825 L291.2625,367.2075 L291.2625,367.2075 C289.620181,367.2075 288.283029,365.887191 288.2625,364.245 L288.2625,234.27 C288.282722,232.642306 289.597306,231.327722 291.225,231.3075 L434.925,231.3075 C436.552694,231.327722 437.867278,232.642306 437.8875,234.27 Z" id="Path" fill="#65617D" fill-rule="nonzero"></path>
            <polygon id="Path" fill="#D4DFEC" fill-rule="nonzero" points="297.825 239.3625 430.95 239.3625 430.95 350.55 297.825 353.55"></polygon>
            <polygon id="Path" fill="#000000" fill-rule="nonzero" opacity="0.1" points="647.325 400.2375 647.325 409.9875 533.385 411.0375 532.17 411.06 488.865 411.4575 487.83 411.4725 474.6675 411.585 474.2775 411.585 394.0425 412.3275 262.335 413.55 262.2225 413.55 228.735 413.865 228.375 413.8725 79.575 415.2375 79.575 403.9875 231.4575 402.99 231.8175 402.99 262.56 402.78 262.7025 402.78 475.0125 401.3775 475.23 401.3775 475.3575 401.37 475.71 401.37 479.3025 401.3475 480.3975 401.3475 536.265 400.9725 539.565 400.9575 540.3 400.95"></polygon>
            <circle id="Oval" fill="#FBBEBE" fill-rule="nonzero" cx="365.445" cy="204.12" r="38.4975"></circle>
            <path d="M228.3,414.135 C228.3,414.0525 228.345,413.9625 228.375,413.8725 C229.125,411.18 230.46,406.6275 231.4575,402.99 C231.585,402.54 231.705,402.0975 231.8175,401.6775 C232.92,397.575 235.065,387.9675 236.2575,381.975 C236.6775,379.8675 237.0075,378.225 237.075,377.4 C237.225,376.1325 239.4825,370.71 242.04,364.4775 C243.8325,360.0975 245.79,355.3125 247.2225,351.2775 C248.160217,348.880757 248.895292,346.409598 249.42,343.89 C249.532438,343.363435 249.532438,342.819065 249.42,342.2925 C249.194841,341.435168 249.073967,340.553796 249.06,339.6675 L249.06,339.6675 C248.8875,335.0175 250.275,327.6675 252.42,324.585 C255.045,320.835 256.92,306.84 256.92,306.84 C256.92,306.84 260.805,307.4025 261.42,304.1925 C261.484988,303.846509 261.510152,303.494215 261.495,303.1425 C261.493414,302.8637 261.47085,302.585414 261.4275,302.31 C260.76,297.63 272.4675,292.65 279.0525,291.5775 C279.796028,291.450076 280.548234,291.37987 281.3025,291.3675 C282.902078,291.193346 284.475481,290.830833 285.99,290.2875 C286.69,290.0725 287.44,289.8225 288.24,289.5375 C291,288.6075 294.3,287.3775 297.8025,286.0275 C310.9725,280.92 326.9175,274.0275 326.9175,274.0275 C327.03,273.495 327.1575,272.985 327.3,272.4825 C328.897497,266.069409 333.450041,260.798481 339.5625,258.285 L339.5625,258.285 C339.5625,257.79 339.5625,257.2875 339.5625,256.785 C339.5625,254.1975 339.45,251.535 339.3375,248.88 C339.3375,248.3625 339.2925,247.845 339.2625,247.3275 C339.2625,247.1775 339.2625,247.02 339.2625,246.87 C339.2625,246.72 339.2625,246.6075 339.2625,246.48 C339.2625,245.955 339.21,245.43 339.18,244.9125 L339.045,244.8075 C337.892764,243.937217 336.902665,242.870957 336.12,241.6575 C335.684302,240.948424 335.327193,240.193968 335.055,239.4075 C334.1175,236.865 333.9,234.03 333.27,231.345 L333.135,230.79 C332.314417,228.080601 331.312146,225.429593 330.135,222.855 C328.4775,218.79 327.2025,214.605 325.935,210.3675 C325.165,207.8025 324.3875,205.2325 323.6025,202.6575 L322.4175,198.7275 C322.1925,197.9775 321.9675,197.2275 321.795,196.4775 L321.795,196.4775 C321.711255,196.131242 321.646161,195.780738 321.6,195.4275 C321.389527,194.276734 321.45117,193.092689 321.78,191.97 C322.071458,191.203626 322.401889,190.452647 322.77,189.72 C322.926969,189.387435 323.052515,189.040929 323.145,188.685 L323.145,188.685 C323.169386,188.606161 323.189416,188.52604 323.205,188.445 C323.258435,188.178274 323.286063,187.907022 323.2875,187.635 C323.26154,186.651405 323.130801,185.673379 322.8975,184.7175 C322.892883,184.705426 322.892883,184.692074 322.8975,184.68 C322.888632,184.611878 322.876114,184.544281 322.86,184.4775 C322.725571,183.733501 322.635413,182.982181 322.59,182.2275 C322.326154,178.166465 323.229154,174.114672 325.1925,170.55 L325.335,170.28 C325.748511,169.555324 326.209518,168.858803 326.715,168.195 L326.715,168.195 C326.9475,167.88 327.1875,167.58 327.465,167.28 C326.415,168.285 324.69,167.8425 323.715,166.7625 C323.553821,166.593571 323.415171,166.404502 323.3025,166.2 C323.237594,166.091442 323.179967,165.978694 323.13,165.8625 C323.0925,165.7725 323.0625,165.675 323.0325,165.5775 C322.5075,163.74 323.4225,161.7825 324.6225,160.29 C325.804621,158.836228 327.269093,157.637095 328.9275,156.765 L328.9275,156.765 C329.024322,156.706658 329.124496,156.654067 329.2275,156.6075 C329.864301,156.288027 330.526587,156.02211 331.2075,155.8125 L331.2075,155.8125 C331.608509,155.679727 332.01665,155.569554 332.43,155.4825 L329.6475,155.2275 L328.5225,155.1225 C329.668102,150.577949 333.598111,147.279764 338.2725,146.94 L339.0825,146.94 C339.476741,146.946077 339.870128,146.97865 340.26,147.0375 C338.982957,146.477841 338.189792,145.181839 338.2725,143.79 C340.236367,145.327377 342.671515,146.138209 345.165,146.085 L345.45,146.085 C345.320236,145.272776 345.235108,144.454046 345.195,143.6325 L345.195,143.6325 C345.12,142.518761 345.12,141.401239 345.195,140.2875 C346.555342,141.57767 348.417624,142.198431 350.28,141.9825 L348.72,139.8075 C350.110296,140.916719 351.865504,141.465221 353.64,141.345 L354,141.3075 C354.301928,141.275912 354.600547,141.218196 354.8925,141.135 L354.96,141.135 C354.8175,140.955 354.69,140.7675 354.5625,140.5725 L354.5175,140.4825 C354.205582,139.991946 353.953775,139.46567 353.7675,138.915 C353.69266,138.701869 353.632519,138.483858 353.5875,138.2625 L353.5875,138.2625 C353.260411,136.898934 353.378689,135.46645 353.925,134.175 C356.3475,136.2 359.0025,138.9675 362.175,136.875 C365.3475,134.7825 365.4525,130.9425 370.425,131.3325 C373.208242,131.595068 375.626618,133.354932 376.7325,135.9225 C378.170512,134.297306 380.484381,133.76937 382.485,134.61 C384.451635,135.542236 385.617474,137.6125 385.395,139.7775 C387.4575,139.26 389.6775,138.75 391.6575,139.53 C393.6375,140.31 394.9125,142.8375 393.7875,144.525 C393.75684,144.577902 393.721712,144.628084 393.6825,144.675 C392.76,145.8675 390.72,146.52 390.9375,148.02 L391.2525,148.245 L392.2275,148.95 C396.0525,151.71 399.7775,154.61 403.4025,157.65 C405.2625,159.21 407.2425,161.085 407.37,163.5225 C407.392358,164.120469 407.331783,164.718653 407.19,165.3 L407.19,165.3 C407.07,165.885 406.905,166.47 406.7775,167.055 C406.456704,168.544989 406.370667,170.07595 406.5225,171.5925 L406.5225,171.5925 C406.575,172.035 406.6425,172.47 406.725,172.9125 C407.8725,178.71 412.5075,183.495 412.965,189.4125 L412.965,189.8325 C412.992597,190.465444 412.975053,191.09955 412.9125,191.73 C412.5675,195.33 410.9025,198.7875 409.5525,202.23 C409.47,202.44 409.3875,202.65 409.3125,202.86 C406.71,209.61 405.21,216.8025 404.0625,223.98 C403.692314,226.526504 403.191655,229.052328 402.5625,231.5475 C401.878255,234.403115 400.575042,237.073551 398.745,239.37 C398.013735,240.233554 397.165558,240.990855 396.225,241.62 C395.591957,242.025273 394.92731,242.378916 394.2375,242.6775 C394.2375,242.6775 394.2375,242.6775 394.2375,242.7225 C394.32,243.18 394.3875,243.6375 394.47,244.095 C394.515,244.335 394.5525,244.575 394.5975,244.845 L394.5975,244.845 C394.594248,244.859824 394.594248,244.875176 394.5975,244.89 C395.2275,248.4375 395.9475,251.91 396.705,255.21 L397.0875,256.8525 C406.5375,260.265 407.655,267.255 407.7225,269.9325 C407.749052,270.289507 407.749052,270.647993 407.7225,271.005 C407.7225,271.005 421.9725,271.38 427.5975,275.505 C428.648762,276.218621 429.785062,276.798108 430.98,277.23 C433.248311,278.087001 435.564759,278.810734 437.9175,279.3975 C439.125,279.7125 440.385,280.02 441.6675,280.32 C443.9175,280.8375 446.3025,281.34 448.605,281.82 C454.7475,283.0575 460.53,284.07 463.4625,284.82 C470.46,286.59 486.465,301.935 486.465,301.935 C486.465,301.935 488.34,317.415 490.215,319.6725 C492.09,321.93 495.465,329.865 495.465,329.865 L507.87,351.9225 L513.12,361.2 L516.495,361.2 C516.96,361.2 517.875,361.86 518.9025,362.775 C519.795,363.57 520.785,364.56 521.655,365.46 L523.095,366.9975 L523.995,367.995 C523.995,367.995 529.4475,368.13 530.925,372.4425 C535.365,372.315 540.8175,372.6075 544.635,374.3175 C545.155926,374.546811 545.657546,374.817685 546.135,375.1275 C547.718106,376.044406 548.84234,377.585123 549.2325,379.3725 C549.308795,379.727894 549.353966,380.089261 549.3675,380.4525 C549.3675,380.88 549.3675,381.3075 549.3675,381.7275 C549.0975,387.405 545.4,392.13 542.0025,395.31 L542.2425,395.7375 C542.2425,395.7375 542.13,396.0075 541.9125,396.4875 C541.8525,396.63 541.7775,396.7875 541.695,396.9675 L541.695,396.9675 C541.2525,397.9125 540.5475,399.33 539.625,400.9875 C537.667559,404.575171 535.255119,407.895112 532.4475,410.865 L532.23,411.09 L488.925,411.4875 L488.7975,411.3375 L480.3975,401.3175 L476.22,396.3375 L476.0925,396.18 L475.9725,397.3725 L475.5675,401.3475 L474.5925,410.955 L474.54,411.435 L474.54,411.5625 L474.4275,412.6725 L474.51,411.5625 L474.2925,411.5625 L394.0425,412.3125 L262.3275,413.7675 L262.3275,414.3975 L262.2225,414.3975 L262.2225,413.7675 L228.66,414.1275 L228.3,414.135 Z" id="Path" fill="url(#linearGradient-1)" fill-rule="nonzero"></path>
            <path d="M403.95,282.87 C403.95,282.87 329.325,291.87 336.45,282.87 C339.03,279.615 339.7425,269.97 339.6,258.9825 C339.555,255.645 339.435,252.1875 339.2625,248.745 C338.4375,232.245 336.45,216.12 336.45,216.12 C336.45,216.12 401.7,185.37 394.2,209.745 C391.2,219.5925 392.1825,233.4225 394.4625,246.405 C395.13,250.1925 395.9025,253.905 396.7125,257.43 C398.689307,266.027946 401.104968,274.519058 403.95,282.87 L403.95,282.87 Z" id="Path" fill="#FBBEBE" fill-rule="nonzero"></path>
            <path d="M403.95,282.87 C403.95,282.87 329.325,291.87 336.45,282.87 C339.03,279.615 339.7425,269.97 339.6,258.9825 C350.9775,254.1225 365.4525,257.745 365.4525,257.745 C380.6925,254.7075 390.465,255.3 396.7125,257.43 C398.689307,266.027946 401.104968,274.519058 403.95,282.87 L403.95,282.87 Z" id="Path" fill="#000000" fill-rule="nonzero" opacity="0.1"></path>
            <path d="M262.305,414.3975 L262.305,413.7675 L394.02,412.335 L474.27,411.585 L474.495,411.585 L474.4125,412.695 L474.525,411.585 L474.6675,411.585 L474.6675,411.4575 L475.695,401.37 L476.085,397.5525 L476.205,396.36 L476.31,395.3625 L480.945,379.905 L485.58,364.47 L489.48,351.4725 L495.435,331.6125 C495.435,331.6125 492.06,323.7375 490.185,321.4875 C488.31,319.2375 486.435,303.8625 486.435,303.8625 C486.435,303.8625 470.43,288.615 463.4325,286.86 C460.5,286.11 454.71,285.1125 448.56,283.86 C446.2575,283.395 443.895,282.9 441.6225,282.36 C440.34,282.0675 439.08,281.76 437.8725,281.4525 C435.522352,280.865484 433.206341,280.149398 430.935,279.3075 C429.744131,278.874865 428.610701,278.298075 427.56,277.59 C422.0475,273.5475 408.2325,273.09 407.7,273.09 L407.7,273.09 C407.698539,273.07253 407.698539,273.05497 407.7,273.0375 L407.7,272.97 C407.71936,272.655297 407.71936,272.339703 407.7,272.025 C407.7,271.725 407.7,271.3725 407.6325,270.975 C407.6325,270.855 407.6325,270.7275 407.58,270.6 C407.5425,270.33 407.4975,270.045 407.43,269.745 C407.407228,269.610967 407.377183,269.478271 407.34,269.3475 C407.122656,268.44379 406.808333,267.5662 406.4025,266.73 C406.35,266.61 406.2825,266.4825 406.2225,266.3625 C405.854801,265.669683 405.428231,265.009754 404.9475,264.39 C404.85,264.2625 404.745,264.1275 404.6325,264 C404.018136,263.275577 403.334935,262.612471 402.5925,262.02 C402.39,261.8625 402.18,261.6975 401.9625,261.5475 C401.841165,261.449069 401.713379,261.358868 401.58,261.2775 L400.9125,260.8425 L400.29,260.4825 C399.7425,260.1825 399.165,259.89 398.535,259.6125 C398.34,259.5225 398.13,259.44 397.92,259.3575 C397.71,259.275 397.38,259.1475 397.1025,259.0425 L397.0575,259.0425 L396.495,258.8175 C396.0675,258.675 395.6325,258.5475 395.175,258.42 L394.4775,258.24 L393.7275,258.0675 L392.9775,257.91 C392.2275,257.76 391.425,257.625 390.585,257.52 L389.73,257.415 L388.8525,257.325 L387.945,257.25 L386.655,257.175 L385.155,257.1225 C378.53945,257.1225 371.942512,257.823313 365.475,259.215 C360.982017,258.215214 356.379982,257.791807 351.78,257.955 L351.1275,257.955 L350.3775,258 L349.8975,258 L348.93,258.09 C348.6075,258.09 348.2775,258.1575 347.955,258.2025 C347.6325,258.2475 347.295,258.285 346.9725,258.3375 L346.4775,258.42 C345.99,258.5025 345.495,258.5925 344.9775,258.6975 C344.8125,258.7275 344.6475,258.765 344.4825,258.81 C343.83,258.9525 343.1775,259.125 342.5325,259.32 C342.21,259.41 341.8875,259.515 341.565,259.6275 C341.4,259.6725 341.2425,259.7325 341.085,259.7925 L340.605,259.965 L340.1325,260.1525 L339.57,260.3775 C339.285,260.4975 339.0075,260.625 338.73,260.76 C338.5725,260.8275 338.415,260.9025 338.265,260.985 C338.115,261.0675 337.9575,261.135 337.815,261.2175 C336.119205,262.09374 334.552014,263.199102 333.1575,264.5025 L332.775,264.87 L332.4,265.2525 C332.2725,265.38 332.1525,265.515 332.0325,265.65 C331.543719,266.184315 331.087878,266.747855 330.6675,267.3375 C330.5475,267.495 330.435,267.6525 330.3225,267.8175 C329.846542,268.519436 329.415674,269.25091 329.0325,270.0075 C328.935,270.1875 328.845,270.375 328.755,270.555 C328.142969,271.822039 327.641118,273.139399 327.255,274.4925 C327.115,274.9925 326.9875,275.4925 326.8725,275.9925 C326.8725,275.9925 310.995,282.9975 297.825,288.0675 C294.3225,289.4175 291.0225,290.64 288.2625,291.5625 C287.46,291.8325 286.71,292.08 286.0125,292.3125 C284.499072,292.859542 282.92522,293.222158 281.325,293.3925 C280.570734,293.40487 279.818528,293.475076 279.075,293.6025 C273.0225,294.585 262.65,298.8525 261.5175,303.135 C261.425552,303.476978 261.400092,303.833425 261.4425,304.185 C261.4425,304.185 261.4425,304.2375 261.4425,304.2675 C262.1925,309.5175 256.9425,308.7675 256.9425,308.7675 C256.9425,308.7675 255.0675,322.6425 252.4425,326.3925 C250.545,329.0925 249.2475,335.115 249.0825,339.66 L249.0825,339.66 C248.988201,341.07605 249.099353,342.498293 249.4125,343.8825 C249.4125,343.92 249.4125,343.9575 249.4125,343.9875 C249.7125,344.9925 248.9925,347.7375 247.77,351.255 C246.4425,355.1175 244.5075,359.9175 242.6475,364.4475 C239.8425,371.2875 237.2025,377.4975 237.0375,378.8625 C236.97,379.47 236.775,380.5575 236.505,381.96 C235.41,387.675 232.98,398.5575 231.78,402.96 C230.8875,406.245 229.59,410.745 228.6975,413.835 C228.6975,413.925 228.645,414.015 228.6225,414.0975 L262.245,413.7675 L262.245,414.3975 L262.35,414.3975 L262.305,414.3975 Z" id="Path" fill="#6C63FF" fill-rule="nonzero"></path>
            <path d="M274.575,325.995 C274.575,325.995 317.325,348.12 332.7,345.495 L274.575,325.995 Z" id="Path" fill="#000000" fill-rule="nonzero" opacity="0.1"></path>
            <path d="M361.575,316.995 C361.575,316.995 403.2,330.495 417.075,332.37 C430.95,334.245 361.575,316.995 361.575,316.995 Z" id="Path" fill="#000000" fill-rule="nonzero" opacity="0.1"></path>
            <path d="M407.745,273.555 C385.995,277.56 345.045,276.6975 327.345,276.09 C333.8325,252.84 365.4675,260.745 365.4675,260.745 C404.625,252.93 407.625,269.145 407.745,273.555 Z" id="Path" fill="#000000" fill-rule="nonzero" opacity="0.1"></path>
            <path d="M407.745,272.055 C385.995,276.06 345.045,275.1975 327.345,274.59 C333.8325,251.34 365.4675,259.245 365.4675,259.245 C404.625,251.43 407.625,267.645 407.745,272.055 Z" id="Path" fill="#6C63FF" fill-rule="nonzero"></path>
            <path d="M523.2,374.5575 C523.2,374.5575 548.82,370.62 549.3225,381.87 C549.825,393.12 536.2575,400.98 536.2575,400.98 L523.2,374.5575 Z" id="Path" fill="#FBBEBE" fill-rule="nonzero"></path>
            <path d="M394.4625,246.405 C393.360584,246.897493 392.2341,247.333067 391.0875,247.71 C383.0025,250.5 374.85,253.3125 366.3375,254.3325 C357.825,255.3525 348.8925,254.4525 341.4675,250.2075 C340.687882,249.767155 339.93643,249.278711 339.2175,248.745 C338.3925,232.245 336.405,216.12 336.405,216.12 C336.405,216.12 401.655,185.37 394.155,209.745 C391.17,219.5925 392.1825,233.4225 394.4625,246.405 Z" id="Path" fill="#000000" fill-rule="nonzero" opacity="0.1"></path>
            <path d="M354.885,143.9475 C352.714463,144.520758 350.400681,144.034085 348.645,142.635 L350.205,144.8025 C348.344099,145.017257 346.483284,144.399729 345.12,143.115 C344.978533,145.05532 345.059055,147.005447 345.36,148.9275 C342.778738,149.052 340.237323,148.254485 338.19,146.6775 C338.108064,148.063291 338.898273,149.353367 340.17,149.91 C334.806179,149.269241 329.799304,152.706653 328.47,157.9425 L332.385,158.3025 C329.308197,158.959614 326.546734,160.64453 324.555,163.08 C323.355,164.58 322.44,166.5 322.965,168.33 C323.49,170.16 326.025,171.33 327.405,170.025 C323.431368,174.767674 321.756796,181.023984 322.83,187.1175 C323.185978,188.400211 323.302924,189.73747 323.175,191.0625 C322.9275,192.3 322.1475,193.3725 321.7575,194.58 C321.0075,196.77 321.72,199.1475 322.3875,201.33 L325.905,212.895 C327.18,217.0725 328.4475,221.2575 330.1125,225.3 C331.291527,227.855827 332.293879,230.489506 333.1125,233.1825 C334.0575,236.8125 334.095,240.7875 336.1125,243.96 C337.495187,245.956451 339.343491,247.585945 341.4975,248.7075 C348.915,252.9525 357.8775,253.8525 366.3675,252.8325 C374.8575,251.8125 383.0025,249 391.08,246.21 C392.874431,245.669493 394.59693,244.914011 396.21,243.96 C401.7975,240.3 403.0425,232.815 404.085,226.2225 C405.2475,218.8725 406.8,211.5375 409.5525,204.6225 C411.1875,200.505 413.3025,196.3275 412.9425,191.9175 C412.485,186.06 407.85,181.3125 406.7025,175.5525 C406.318366,173.627125 406.336239,171.643142 406.755,169.725 C407.110871,168.58217 407.310185,167.396374 407.3475,166.2 C407.22,163.785 405.24,161.925 403.38,160.3725 C399.345,157.0025 395.18,153.8175 390.885,150.8175 C390.6675,149.3175 392.7075,148.6725 393.63,147.4875 C394.935,145.815 393.585,143.16 391.605,142.38 C389.625,141.6 387.405,142.11 385.3425,142.6275 C385.618446,140.459555 384.437841,138.367752 382.439269,137.483536 C380.440697,136.599319 378.098679,137.132628 376.68,138.795 C375.564349,136.236901 373.144184,134.489324 370.365,134.235 C365.3925,133.845 365.295,137.6475 362.115,139.74 C358.935,141.8325 356.31,139.0725 353.865,137.0625 C352.950671,139.374928 353.339496,141.999491 354.885,143.9475 L354.885,143.9475 Z" id="Path" fill="#3F3D56" fill-rule="nonzero"></path>
            <path d="M542.1975,397.0575 C542.1975,397.0575 541.53,398.6475 540.3,400.95 C538.439427,404.492381 536.174294,407.807025 533.55,410.8275 L533.3475,411.045 L532.1325,411.045 L488.8275,411.4425 L487.7925,411.4425 L487.665,411.2925 L479.265,401.325 L476.1,397.5675 L475.9725,397.41 L475.7025,397.095 L475.5525,396.915 L475.3575,396.6825 L469.2,389.3775 L471.45,380.0025 L475.2825,364.2075 L475.38,363.825 L476.13,360.825 L476.6625,358.575 L478.4475,351.24 L484.5675,326.0025 L495.4425,331.6275 L506.91,351.8775 L513.0675,362.7525 L516.4425,362.7525 C517.08,362.7525 518.5425,363.9825 520.0125,365.4 C520.5375,365.9025 521.0625,366.435 521.5125,366.9 C522.8475,368.28 523.905,369.465 523.905,369.465 C523.905,369.465 529.3725,369.585 530.8425,373.89 C530.918399,374.098327 530.981024,374.311254 531.03,374.5275 C531.517957,376.219648 532.152873,377.865912 532.9275,379.4475 C533.895,381.555 535.11,383.9475 536.34,386.34 C538.6275,390.7275 540.9525,394.905 541.8075,396.42 L541.9125,396.6075 L542.1975,397.0575 Z" id="Path" fill="#6C63FF" fill-rule="nonzero"></path>
            <path d="M477.7725,363.195 L477.6975,364.2675 L477.6975,364.3425 L477.57,366.0675 L476.5725,379.95 L475.365,396.675 L475.02,401.385 L474.27,411.465 L474.27,411.5925 L394.02,412.3425 L262.3275,413.7675 L262.3275,414.3975 L262.2225,414.3975 L262.2225,413.7675 L262.2225,413.5575 L262.56,402.7875 L263.205,381.7425 L263.76,363.9 L263.8125,362.1225 C263.878814,359.954269 264.834066,357.908772 266.454048,356.466108 C268.074031,355.023444 270.216103,354.310641 272.3775,354.495 C275.9175,354.795 280.515,355.1625 286.0125,355.5525 L288.2625,355.7175 C320.01,357.9225 378.6825,360.7725 437.8875,357.2175 C439.1325,357.15 440.385,357.075 441.6375,356.985 C450.8175,356.4075 459.99,355.665 469.0725,354.735 C471.396768,354.491476 473.709538,355.289863 475.388602,356.91537 C477.067665,358.540877 477.940578,360.826561 477.7725,363.1575 L477.7725,363.195 Z" id="Path" fill="#000000" fill-rule="nonzero" opacity="0.1"></path>
            <path d="M262.305,414.3975 L262.305,413.7675 L394.02,412.335 L474.27,411.585 L474.495,411.585 L474.495,411.4575 L475.245,401.3775 L475.5675,396.8775 L476.7975,379.92 L477.765,366.495 L477.765,366.165 C477.809719,365.546394 477.782032,364.924682 477.6825,364.3125 C477.686696,364.287676 477.686696,364.262324 477.6825,364.2375 C477.47647,362.971744 476.961235,361.7764 476.1825,360.7575 C474.503576,358.60456 471.832549,357.470366 469.1175,357.7575 C460.035,358.6875 450.8625,359.43 441.6825,360.0075 C440.43,360.0975 439.1775,360.1725 437.9325,360.24 C378.7275,363.7575 320.055,360.9075 288.3075,358.74 L286.0575,358.575 C280.56,358.185 275.9625,357.825 272.4225,357.5175 C268.388996,357.17714 264.750097,359.938689 263.9925,363.915 C263.916773,364.321042 263.871646,364.732199 263.8575,365.145 L263.3475,381.765 L262.65,402.8175 L262.32,413.5875 L262.32,413.7975 L262.32,414.4275 L262.305,414.3975 Z" id="Path" fill="#3F3D56" fill-rule="nonzero"></path>
            <path d="M477.9975,368.4525 L477.075,379.95 L475.7025,397.0875 L475.3575,401.3775 L474.6075,410.985 L474.5625,411.465 L474.5625,411.5925 L474.5625,411.5925 L474.45,412.7025 L474.5325,411.5925 L474.315,411.5925 L394.065,412.3425 L262.3275,413.7675 L262.3275,413.5575 L262.695,402.7875 L263.445,381.7425 L263.925,367.755 C263.972956,366.138288 264.836908,364.656018 266.22,363.8175 C267.069278,363.296997 268.062285,363.060567 269.055,363.1425 C270.63,363.27 272.565,363.42 274.8225,363.585 C278.49,363.855 283.0125,364.17 288.2775,364.5 C298.0275,365.115 310.26,365.775 324.2775,366.315 C363.2775,367.815 415.9275,368.3175 465.9375,363.9375 C468.1875,363.7425 470.5125,363.525 472.785,363.3075 C473.684512,363.217795 474.590795,363.389676 475.395,363.8025 C475.622793,363.915964 475.838839,364.051621 476.04,364.2075 C476.692896,364.68058 477.210139,365.31679 477.54,366.0525 C477.616516,366.198872 477.679285,366.352029 477.7275,366.51 C477.952801,367.131382 478.044795,367.793228 477.9975,368.4525 Z" id="Path" fill="#000000" fill-rule="nonzero" opacity="0.1"></path>
            <path d="M223.575001,378.72 L223.575001,381.1125 C223.575826,382.888215 222.55398,384.505652 220.95,385.2675 L190.875,385.845 C189.241886,385.096464 188.195576,383.463987 188.197497,381.6675 L188.197497,379.4175 L223.575001,378.72 Z" id="Path" fill="#000000" fill-rule="nonzero" opacity="0.1"></path>
            <polygon id="Path" fill="#3F3D56" fill-rule="nonzero" points="223.95 386.6775 184.7625 387.4275 184.7625 380.925 223.95 380.175"></polygon>
            <polygon id="Path" fill="#000000" fill-rule="nonzero" opacity="0.1" points="223.95 386.6775 184.7625 387.4275 184.7625 380.925 223.95 380.175"></polygon>
            <polygon id="Path" fill="#3F3D56" fill-rule="nonzero" points="225.45 386.6775 186.2625 387.4275 186.2625 380.925 225.45 380.175"></polygon>
            <g id="Group" opacity="0.1" transform="translate(321.000000, 138.000000)" fill="#000000" fill-rule="nonzero">
                <path d="M34.1925,3.4875 C33.4597883,2.53541566 32.9729404,1.41746861 32.775,0.2325 C32.5942521,1.39089184 32.7024572,2.57599557 33.09,3.6825 C33.4622659,3.64814307 33.8310341,3.58291876 34.1925,3.4875 Z" id="Path"></path>
                <path d="M24.6675,8.4675 C24.5260617,7.54804932 24.4334319,6.62175131 24.39,5.6925 C24.39,6.615 24.39,7.545 24.39,8.475 L24.6675,8.4675 Z" id="Path"></path>
                <path d="M85.7925,33.495 C85.8340128,32.8268121 85.9242526,32.1625466 86.0625,31.5075 C86.4172586,30.3667133 86.6190206,29.1838834 86.6625,27.99 C86.6456784,27.7220164 86.6055264,27.4560093 86.5425,27.195 C86.415,27.885 86.2125,28.575 86.0625,29.2575 C85.7629395,30.6488061 85.6719443,32.0769254 85.7925,33.495 Z" id="Path"></path>
                <path d="M70.1925,10.32 L71.01,10.9125 C71.6992062,10.4139887 72.3440994,9.85692145 72.9375,9.2475 C73.5118238,8.45316268 73.6203776,7.41333087 73.2225,6.5175 C73.1477936,6.68871029 73.0520569,6.84995097 72.9375,6.9975 C72.015,8.1825 69.975,8.835 70.1925,10.32 Z" id="Path"></path>
                <path d="M8.565,17.535 C8.29144401,18.082001 8.07287202,18.6548104 7.9125,19.245 C9.08573761,18.5901145 10.3494235,18.1124413 11.6625,17.8275 L8.565,17.535 Z" id="Path"></path>
                <path d="M18.9075,9.375 C18.4148508,9.10359406 17.9434986,8.79520939 17.4975,8.4525 C17.478617,8.74920433 17.5013372,9.04709153 17.565,9.3375 C18.0128056,9.31615067 18.4615844,9.32868639 18.9075,9.375 Z" id="Path"></path>
                <path d="M92.235,53.565 C91.9275,57.2025 90.2325,60.705 88.86,64.155 C86.1075,71.07 84.555,78.405 83.3925,85.7625 C82.35,92.355 81.1425,99.84 75.5175,103.4925 C73.9102611,104.4527 72.1894608,105.208542 70.395,105.7425 C62.31,108.54 54.1575,111.345 45.645,112.365 C37.1325,113.385 28.2,112.4925 20.775,108.2475 C18.6221895,107.124199 16.7742693,105.495043 15.39,103.5 C13.3875,100.3275 13.35,96.3525 12.39,92.7225 C11.571413,90.0270562 10.5690647,87.3908801 9.39,84.8325 C7.7325,80.7975 6.4575,76.5825 5.19,72.435 C4.015,68.58 2.8425,64.7225 1.6725,60.8625 C1.287159,59.7013466 1.00113113,58.5095638 0.8175,57.3 C0.525,59.22 1.095,61.23 1.6725,63.1125 C2.8425,66.9775 4.015,70.835 5.19,74.685 C6.4575,78.8625 7.7325,83.0475 9.39,87.0825 C10.5690647,89.6408801 11.571413,92.2770562 12.39,94.9725 C13.335,98.6025 13.3725,102.5775 15.39,105.75 C16.7742693,107.745043 18.6221895,109.374199 20.775,110.4975 C28.2,114.7425 37.155,115.635 45.645,114.615 C54.135,113.595 62.28,110.79 70.395,107.9925 C72.1894608,107.458542 73.9102611,106.7027 75.5175,105.7425 C81.105,102.09 82.35,94.605 83.3925,88.0125 C84.555,80.655 86.1075,73.32 88.86,66.405 C90.495,62.295 92.61,58.1175 92.25,53.7 C92.25,53.655 92.235,53.61 92.235,53.565 Z" id="Path"></path>
                <path d="M2.4675,50.6625 C2.4675,50.6625 2.4675,50.61 2.4675,50.58 C2.60280106,49.2574945 2.48572716,47.9213249 2.1225,46.6425 C1.9728721,45.8194563 1.8751791,44.9878133 1.83,44.1525 C1.74365495,45.7384957 1.84181263,47.3291534 2.1225,48.8925 C2.2425,49.4775 2.3775,50.07 2.4675,50.6625 Z" id="Path"></path>
                <path d="M4.755,32.3175 C5.33182289,31.3484638 5.98647964,30.4279312 6.7125,29.565 C5.34,30.8775 2.805,29.7075 2.2725,27.885 C2.07622878,28.6221592 2.07622878,29.3978408 2.2725,30.135 C2.6484053,31.2552658 3.59581319,32.0881833 4.755,32.3175 L4.755,32.3175 Z" id="Path"></path>
            </g>
            <path d="M513.075,362.745 C513.075,362.745 515.4525,371.37 513.075,378.87 C510.6975,386.37 513.075,362.745 513.075,362.745 Z" id="Path" fill="#000000" fill-rule="nonzero" opacity="0.1"></path>
            <path d="M523.2,371.5425 C523.2,371.5425 524.1975,382.4925 521.9475,384.435 C519.6975,386.3775 523.2,371.5425 523.2,371.5425 Z" id="Path" fill="#000000" fill-rule="nonzero" opacity="0.1"></path>
            <line x1="149.2425" y1="257.145" x2="225.45" y2="256.395" id="Path" stroke="#6C63FF" stroke-width="2"></line>
            <line x1="149.2425" y1="266.4975" x2="225.45" y2="265.755" id="Path" stroke="#6C63FF" stroke-width="2"></line>
            <line x1="149.2425" y1="275.8575" x2="225.45" y2="275.1075" id="Path" stroke="#6C63FF" stroke-width="2"></line>
        </g>
    </g>
</svg>