<?xml version="1.0" encoding="UTF-8"?>
<svg width="841px" height="456px" viewBox="0 0 841 456" version="1.1" xmlns="http://www.w3.org/2000/svg" xmlns:xlink="http://www.w3.org/1999/xlink">
    <!-- Generator: Sketch 64 (93537) - https://sketch.com -->
    <title>Slice 1</title>
    <desc>Created with Sketch.</desc>
    <g id="Page-1" stroke="none" stroke-width="1" fill="none" fill-rule="evenodd">
        <g id="source-code" fill-rule="nonzero">
            <path d="M124.98594,299.014252 C132.08856,293.300541 140.251087,289.047971 149.0037,286.501312 C173.497372,279.493582 198.836077,286.276627 223.340137,292.83699 C236.569462,296.378273 250.248532,300.040395 263.739697,301.548615 C285.357818,303.966 305.507258,300.592403 322.009493,291.79329 C340.556242,281.905417 353.91483,264.886867 357.74571,246.273697 C358.229229,243.918154 358.55146,241.532363 358.710158,239.132947 C356.882843,240.260153 355.049023,241.370207 353.208697,242.463112 C333.851685,253.958722 306.644797,264.706807 286.961888,250.623578 C279.40611,245.21817 274.503945,236.185583 273.510998,225.843353 C272.447625,214.761263 276.013148,203.711512 283.04811,196.28655 C284.194885,195.077221 285.424257,193.94899 286.727355,192.909998 C300.986213,181.52793 323.494928,180.914205 339.283718,192.163748 C352.654635,201.690735 360.575663,218.90505 360.321428,236.364855 C371.753827,229.195171 382.809973,221.442336 393.44607,213.137063 L394.3692,214.319475 C383.428479,222.862801 372.04502,230.823474 360.266205,238.168358 C360.134921,240.994033 359.783371,243.805158 359.214758,246.576143 C355.294973,265.621523 341.649855,283.019633 322.71558,293.11701 C305.9445,302.059493 285.493358,305.490683 263.57283,303.039608 C249.969473,301.518803 236.235285,297.841628 222.952328,294.285983 C197.526375,287.479335 173.510828,281.049638 149.41614,287.943233 C125.197658,294.87189 105.635145,316.127483 100.734855,340.834088 C95.832615,365.541742 105.801615,392.655435 125.540295,408.303165 L124.608323,409.479023 C104.440403,393.490733 94.2551925,365.786797 99.2630475,340.542225 C102.49962,324.22659 111.99516,309.38325 124.98594,299.014252 Z M358.800293,237.313328 C359.367548,220.003838 351.639458,202.809353 338.41278,193.385588 C321.773085,181.528995 297.42378,183.29553 284.137268,197.317733 C277.39605,204.433275 273.98178,215.043233 275.00457,225.699915 C275.955795,235.61064 280.63182,244.250685 287.834655,249.404108 C306.859155,263.015783 333.469635,252.441 352.44309,241.172813 C354.57048,239.909663 356.689548,238.623168 358.800293,237.313328 L358.800293,237.313328 Z" id="Shape" fill="#3F3D56"></path>
            <ellipse id="Oval" fill="#3F3D56" cx="208.875" cy="416.971493" rx="208.875" ry="9.75"></ellipse>
            <ellipse id="Oval" fill="#3F3D56" cx="201" cy="446.221493" rx="74.25" ry="9.75"></ellipse>
            <path d="M139.125023,212.5965 L139.125023,218.5965 C139.125023,218.5965 132.357518,249.968347 142.875023,248.5965 C160.125023,246.3465 147.375023,220.8465 147.375023,220.8465 L147.375023,215.5965 L139.125023,212.5965 Z" id="Path" fill="#FFB8B8"></path>
            <polygon id="Path" fill="#FFB8B8" points="223.125 381.3465 229.875 400.0965 246.375 394.0965 238.875 376.8465"></polygon>
            <polygon id="Path" fill="#FFB8B8" points="181.875 400.0965 177.375 416.5965 194.625 421.8465 195.375 404.5965"></polygon>
            <path d="M166.875022,211.0965 L165.375022,219.3465 C165.375022,219.3465 164.625022,225.3465 165.375022,229.0965 C166.125022,232.8465 220.125022,388.0965 220.125022,388.0965 L243.375022,379.0965 L213.375022,280.8465 L209.625022,205.0965 L166.875022,211.0965 Z" id="Path" fill="#2F2E41"></path>
            <path d="M196.125023,209.5965 L193.125023,320.5965 C193.125023,320.5965 186.375023,328.0965 187.875023,333.3465 C189.375023,338.5965 184.125023,382.0965 184.125023,382.0965 L179.625023,403.8465 L199.125023,409.8465 C199.125023,409.8465 202.875022,390.3465 205.875022,388.0965 C208.875022,385.8465 226.125023,318.3465 226.125023,313.8465 C226.125023,309.3465 238.875022,209.5965 238.875022,209.5965 L207.375022,196.8465 L196.125023,209.5965 Z" id="Path" fill="#2F2E41"></path>
            <path d="M231.375023,388.0965 C231.375023,388.0965 223.125023,379.0965 218.625023,388.0965 C215.25369,394.566039 211.49693,400.827306 207.375023,406.8465 C207.375023,406.8465 183.375022,421.0965 207.375023,424.8465 C207.375023,424.8465 220.875023,425.5965 227.625023,421.0965 C234.375023,416.5965 252.375023,409.8465 252.375023,408.3465 C252.375023,406.8465 247.875023,384.7965 243.375023,387.1965 C238.875023,389.5965 231.375023,388.0965 231.375023,388.0965 Z" id="Path" fill="#2F2E41"></path>
            <path d="M190.125022,412.8465 C190.125022,412.8465 183.375022,403.0965 177.375022,409.8465 C171.375022,416.5965 163.875023,436.0965 163.875023,436.0965 C163.875023,436.0965 150.375023,456.3465 171.375022,455.5965 C192.375022,454.8465 193.875022,447.3465 193.875022,447.3465 C193.875022,447.3465 196.875022,427.8465 196.875022,427.0965 C196.875022,426.3465 195.375022,418.636852 195.375022,418.636852 L190.125022,412.8465 Z" id="Path" fill="#2F2E41"></path>
            <circle id="Oval" fill="#FFB8B8" cx="185.25" cy="34.4714925" r="21"></circle>
            <path d="M174.375023,47.5965 L177.375023,71.5965 L186.375023,94.0965 L205.875023,70.8465 L205.875023,59.5965 C205.875023,59.5965 199.875023,50.5965 201.375023,43.0965 L174.375023,47.5965 Z" id="Path" fill="#FFB8B8"></path>
            <path d="M184.875023,76.8465 L174.375023,72.3465 L163.125023,205.0965 L165.375023,213.3465 C165.375023,213.3465 171.375023,217.0965 190.125023,214.0965 C208.875022,211.0965 239.625023,213.3465 239.625023,213.3465 L241.875022,145.0965 L205.125023,64.8465 L184.875023,76.8465 Z" id="Path" fill="#D0CDE1"></path>
            <path d="M166.125023,208.0965 C166.125023,208.0965 180.375023,84.3465 179.625023,82.0965 C178.875023,79.8465 166.125023,73.7539275 166.125023,73.7539275 C166.125023,73.7539275 144.375023,88.0965 145.125023,93.3465 C145.875023,98.5965 159.375023,209.5965 159.375023,209.5965 L166.125023,208.0965 Z" id="Path" fill="#575A89"></path>
            <path d="M223.125023,199.0965 C223.125023,199.0965 200.625023,111.3465 199.875023,91.8465 C199.125023,72.3465 199.125023,70.0965 199.125023,70.0965 C199.125023,70.0965 233.625023,58.0965 245.625023,70.0965 L247.875023,133.0965 C247.875023,133.0965 251.625023,160.0965 250.125023,168.3465 C249.091773,173.718777 247.585919,178.989265 245.625023,184.0965 C245.625023,184.0965 253.875022,192.3465 246.375022,194.5965 C238.875022,196.8465 233.625023,193.0965 230.625023,196.8465 C227.625023,200.5965 223.125023,199.0965 223.125023,199.0965 Z" id="Path" fill="#575A89"></path>
            <path d="M150.375023,88.8465 C150.375023,88.8465 141.375023,88.8465 142.125023,99.3465 C142.875023,109.8465 142.125023,158.5965 142.125023,158.5965 C142.125023,158.5965 135.375023,199.8465 137.625023,202.8465 C139.875023,205.8465 136.875023,215.5965 136.875023,215.5965 L150.375023,218.5965 C150.375023,218.5965 151.875023,208.0965 154.875023,207.3465 C157.875023,206.5965 162.375023,184.8465 162.375023,184.8465 L150.375023,88.8465 Z" id="Path" fill="#575A89"></path>
            <path d="M251.625023,181.0965 L248.181023,187.35825 C248.181023,187.35825 224.558872,206.16975 236.216925,213.133148 C247.874977,220.096545 259.125023,194.5965 259.125023,194.5965 L262.875023,187.8465 L251.625023,181.0965 Z" id="Path" fill="#FFB8B8"></path>
            <path d="M235.125023,68.5965 L245.625023,70.0965 C245.625023,70.0965 257.625023,78.3465 258.375023,82.8465 C259.125023,87.3465 283.125023,128.5965 283.125023,128.5965 C284.540192,131.65628 285.306283,134.976006 285.375023,138.3465 C285.375023,143.5965 277.125023,183.3465 272.625023,184.0965 C268.125023,184.8465 265.125023,192.3465 265.125023,192.3465 L249.375023,182.5965 C249.424553,180.328724 249.675541,178.069837 250.125023,175.8465 C250.875023,172.0965 253.875023,164.5965 253.875023,164.5965 L258.375023,148.8465 C256.958615,147.784194 256.125023,146.11701 256.125023,144.3465 C256.125023,141.3465 243.375023,125.5965 243.375023,125.5965 L235.125023,68.5965 Z" id="Path" fill="#575A89"></path>
            <path d="M182.537843,84.5036025 C182.537843,84.5036025 163.125023,79.0965 164.625023,75.3465 C166.125023,71.5965 167.625023,70.8465 167.625023,70.8465 C167.625023,70.8465 169.875023,64.8465 172.125023,64.8465 C174.375023,64.8465 176.301022,63.0042525 176.301022,63.0042525 L184.875023,76.8465 L182.537843,84.5036025 Z" id="Path" fill="#D0CDE1"></path>
            <path d="M203.636212,55.4715 C203.636212,55.4715 211.125,53.5965 214.125,55.8465 C217.125,58.0965 219.375,58.0965 220.125,59.5965 C220.875,61.0965 230.625,62.5965 227.625,64.8465 C224.625,67.0965 184.875,76.8465 184.875,76.8465 L203.625,63.3465 L203.636212,55.4715 Z" id="Path" fill="#D0CDE1"></path>
            <path d="M205.977023,12.1268175 C202.626349,6.68566975 197.381538,2.67612886 191.252048,0.8699025 L186.750023,4.4715 L188.500327,0.270645 C187.028404,0.0460973073 185.538675,-0.0400016972 184.050682,0.0134775 L180.000023,5.2215 L181.676543,0.191865 C174.570493,1.07494246 168.157552,4.88953956 163.989832,10.712415 C158.834332,18.1461825 159.179377,28.4796 164.250023,35.9715 C165.642022,31.693875 166.11642,27.6846 167.50839,23.4069375 C168.602352,23.5560692 169.711122,23.56147 170.806485,23.4230025 L172.500023,19.4715 L172.973077,23.2558725 C178.222072,22.7985225 186.007627,21.7945575 190.983885,20.8746225 L190.500023,17.9715 L193.395023,20.3840025 C194.919653,20.0330025 195.824835,19.714755 195.750023,19.4715 C199.45095,25.437855 203.118022,29.2486875 206.818845,35.2149975 C208.2237,26.799285 210.70377,19.8038775 205.977023,12.1268175 Z" id="Path" fill="#2F2E41"></path>
            <ellipse id="Oval" fill="#FFB8B8" cx="204.75" cy="31.4714925" rx="1.5" ry="3"></ellipse>
            <path d="M78.1649325,416.76999 L77.3600025,416.468228 C77.1831225,416.401583 59.5786275,409.656728 51.3319275,394.363005 C43.08486,379.06857 47.1230625,360.654023 47.164815,360.470183 L47.35488,359.631563 L48.1594425,359.933318 C48.3363225,359.99997 65.9404425,366.744818 74.1875175,382.03854 C82.434585,397.332975 78.3963825,415.74753 78.35463,415.931363 L78.1649325,416.76999 Z M52.6524825,393.65109 C59.624775,406.581998 73.5363975,413.210415 77.0611725,414.7236 C77.7313425,410.945767 79.8330225,395.668913 72.8669625,382.750455 C65.90163,369.833467 51.9845175,363.19479 48.4582725,361.677945 C47.7877725,365.457975 45.6867825,380.733368 52.6524825,393.65109 L52.6524825,393.65109 Z" id="Shape" fill="#3F3D56"></path>
            <path d="M57.63432,388.998218 C72.45474,397.914675 78.16257,415.62522 78.16257,415.62522 C78.16257,415.62522 59.8417275,418.879327 45.0213075,409.96287 C30.2008875,401.046413 24.4930575,383.335868 24.4930575,383.335868 C24.4930575,383.335868 42.8138925,380.08176 57.63432,388.998218 Z" id="Path" fill="#6C63FF"></path>
            <path d="M380.249962,222.6 L723.137872,222.6 C788.09328,222.6 840.750045,185.577503 840.750045,120.622095 L840.750045,120.621855 C840.750045,55.6664475 788.093295,28.5930225 723.137872,28.5930225 L615.4743,28.5930225 C485.563485,28.5930225 380.249962,92.6889525 380.249962,222.6 L380.249962,222.6 Z" id="Path" fill="#3F3D56"></path>
            <path d="M703.997318,206.866028 L418.626712,206.866028 L418.626712,206.116028 C418.626712,155.096985 438.504645,113.06403 476.111572,84.56073 C510.839355,58.2396825 558.737572,44.32698 614.628668,44.32698 L703.997318,44.32698 C732.500977,44.32698 756.52002,50.5899225 773.459475,62.43831 C792.64527,75.85881 802.373295,95.7191925 802.373295,121.46712 C802.373295,147.345412 792.390382,169.17342 773.503418,184.59162 C755.908447,198.955875 731.224365,206.866028 703.997318,206.866028 Z M420.128175,205.366028 L703.997318,205.366028 C761.942145,205.366028 800.873317,171.649718 800.873317,121.467473 C800.873317,73.3967925 765.563257,45.8269725 703.997318,45.8269725 L614.628668,45.8269725 C520.801028,45.8269725 420.555907,87.7617825 420.128175,205.366028 L420.128175,205.366028 Z" id="Shape" fill="#6C63FF"></path>
            <rect id="Rectangle" fill="#6C63FF" x="525.75" y="94.4714925" width="40.5" height="9.75"></rect>
            <rect id="Rectangle" fill="#6C63FF" x="692.25" y="94.4714925" width="14.25" height="9.75"></rect>
            <rect id="Rectangle" fill="#6C63FF" x="720.75" y="94.4714925" width="14.25" height="9.75"></rect>
            <rect id="Rectangle" fill="#6C63FF" x="580.5" y="94.4714925" width="96.75" height="9.75"></rect>
            <rect id="Rectangle" fill="#6C63FF" x="474.75" y="157.471492" width="40.5" height="9.75"></rect>
            <rect id="Rectangle" fill="#6C63FF" x="641.25" y="157.471492" width="14.25" height="9.75"></rect>
            <rect id="Rectangle" fill="#6C63FF" x="669.75" y="157.471492" width="14.25" height="9.75"></rect>
            <rect id="Rectangle" fill="#6C63FF" x="529.5" y="157.471492" width="96.75" height="9.75"></rect>
            <rect id="Rectangle" fill="#6C63FF" x="642" y="116.221492" width="40.5" height="9.75"></rect>
            <rect id="Rectangle" fill="#6C63FF" x="696.75" y="116.221492" width="40.5" height="9.75"></rect>
            <rect id="Rectangle" fill="#6C63FF" x="751.5" y="116.221492" width="14.25" height="9.75"></rect>
            <rect id="Rectangle" fill="#6C63FF" x="474.75" y="116.221492" width="14.25" height="9.75"></rect>
            <rect id="Rectangle" fill="#6C63FF" x="503.25" y="116.221492" width="14.25" height="9.75"></rect>
            <rect id="Rectangle" fill="#6C63FF" x="531.75" y="116.221492" width="96.75" height="9.75"></rect>
            <rect id="Rectangle" fill="#6C63FF" transform="translate(578.250000, 142.096492) rotate(-180.000000) translate(-578.250000, -142.096492) " x="558" y="137.221492" width="40.5" height="9.75"></rect>
            <rect id="Rectangle" fill="#6C63FF" transform="translate(523.500000, 142.096492) rotate(-180.000000) translate(-523.500000, -142.096492) " x="503.25" y="137.221492" width="40.5" height="9.75"></rect>
            <rect id="Rectangle" fill="#6C63FF" transform="translate(481.875000, 142.096492) rotate(-180.000000) translate(-481.875000, -142.096492) " x="474.75" y="137.221492" width="14.25" height="9.75"></rect>
            <rect id="Rectangle" fill="#6C63FF" transform="translate(758.625000, 142.096492) rotate(-180.000000) translate(-758.625000, -142.096492) " x="751.5" y="137.221492" width="14.25" height="9.75"></rect>
            <rect id="Rectangle" fill="#6C63FF" transform="translate(730.125000, 142.096492) rotate(-180.000000) translate(-730.125000, -142.096492) " x="723" y="137.221492" width="14.25" height="9.75"></rect>
            <rect id="Rectangle" fill="#6C63FF" transform="translate(660.375000, 142.096492) rotate(-180.000000) translate(-660.375000, -142.096492) " x="612" y="137.221492" width="96.75" height="9.75"></rect>
            <rect id="Rectangle" fill="#6C63FF" x="114" y="402.721493" width="14.25" height="11.25"></rect>
            <rect id="Rectangle" fill="#6C63FF" x="231.75" y="435.721493" width="14.25" height="11.25"></rect>
        </g>
    </g>
</svg>